<svg xmlns="http://www.w3.org/2000/svg" viewBox="1280 170 215 200" fill="none"><path d="M1450.34 283.721C1450.46 283.844 1444.84 283.907 1435.15 284.135C1428.99 284.281 1422.37 287.358 1413.86 291.786C1405.85 295.954 1401.02 300.924 1397.26 304.829C1392.27 310.005 1388.37 316.312 1385.15 320.352C1383.92 321.909 1382.87 321.929 1381.95 321.219C1374.16 315.147 1372.92 299.355 1372.5 287.637C1372.42 285.3 1373.23 284.607 1374.34 283.954C1376.97 282.408 1383.41 282.249 1402.88 288.427C1418.22 293.292 1442.93 306.403 1456.47 313.013C1476.87 322.973 1484.84 329.764 1486.11 330.828C1486.77 331.372 1487.43 331.924 1486.5 331.844C1482.95 331.539 1470.58 326.721 1451.64 320.431C1442.62 317.434 1434.45 315.927 1423.47 314.731C1412.49 313.534 1398.86 312.973 1390.77 313.037C1380.51 313.119 1377.42 314.995 1375.81 316.042C1375.04 316.536 1374.68 317.334 1374.46 318.317C1374.23 319.299 1374.23 320.539 1374.81 321.699C1377.48 327.106 1384.8 328.965 1399.08 331.446C1409.03 333.175 1417.32 331.563 1422.07 329.901C1426.06 328.504 1429.44 322.953 1433.5 316.343C1437.23 310.265 1438.23 302.238 1439.83 287.437C1440.97 276.881 1441.4 260.014 1441.67 249.979C1442.01 237.223 1441.12 233.343 1440.45 232.152C1439.9 231.186 1438.76 235.001 1436.43 248.482C1434.32 260.69 1430.96 283.898 1429.21 298.677C1427.46 313.456 1427.58 319.128 1428.22 322.52C1428.85 325.911 1430 326.849 1431.48 327.554C1437.25 330.301 1442.65 329.516 1447.17 329.2C1448.86 329.082 1449.22 328.254 1448.67 327.316C1447.18 324.75 1443.59 323.196 1436.22 320.76C1430.44 318.847 1420.28 316.248 1403.41 313.855C1386.54 311.462 1363.2 309.53 1349.56 308.12C1332.62 306.37 1328.55 304.585 1327.06 303.593C1326.3 303.094 1325.7 302.41 1325.32 301.424C1324.95 300.439 1324.85 299.123 1324.96 298.08C1325.14 296.266 1328.48 293.466 1336.93 288.2C1342.44 284.764 1351.04 280.812 1360.56 277.256C1370.09 273.7 1380.42 270.925 1389.07 269.137C1404.26 265.999 1414.66 265.897 1420.02 266.406C1422.01 266.594 1422.29 267.932 1422.46 269.142C1422.82 271.703 1422.19 273.914 1421.04 275.388C1416.87 280.746 1398.42 280.158 1390.58 279.409C1388.38 279.199 1386.71 276.487 1385.19 273.99C1384.51 272.857 1384.42 271.759 1384.63 270.788C1385.06 268.811 1387 267.602 1389.29 266.637C1392.49 265.289 1404.93 264.623 1423.63 264.583C1437.86 264.552 1444.99 267.232 1447.81 268.654C1455.67 272.621 1462.6 277.013 1466.46 280.699C1470.59 284.652 1470.45 288.206 1470.77 291.118C1470.99 293.105 1471.01 296.152 1467.69 298.179C1449.44 309.309 1436.59 306.683 1433.32 308.616C1431.93 309.433 1430.5 311.261 1428.86 314.34C1426.56 318.677 1427.1 325.912 1427.4 332.115C1427.51 334.389 1428.31 334.819 1429.03 335.199C1429.75 335.579 1430.58 335.88 1430.65 336.104C1430.71 336.329 1429.98 336.469 1414.32 336.775C1398.66 337.081 1368.08 337.549 1351.8 337.65C1335.53 337.751 1334.49 337.471 1334.86 336.996C1336.35 335.055 1348.05 335.175 1365.59 336.103C1374 336.548 1381.24 338.89 1385.08 339.068C1388.93 339.246 1389.11 337.687 1386.15 330.778C1383.19 323.868 1377.07 311.655 1372.91 304.078C1363.9 287.707 1352.06 282.179 1348.22 279.298C1347.57 278.81 1347.46 277.835 1349.41 277.157C1355.35 275.095 1369.75 275.386 1386.13 275.926C1399.65 276.373 1403.19 281.241 1407.91 284.887C1409.95 286.454 1409.52 289.271 1409.25 290.903C1409.02 292.357 1398.24 297.647 1381.99 305.696C1375.5 308.913 1372.32 309.856 1371.09 310.439C1363.18 314.21 1397.29 304.859 1397.93 303.455C1399.72 299.532 1393.43 296.286 1377.24 277.823C1371.98 271.816 1368.51 262.374 1360.89 244.56C1353.48 227.205 1350.59 214.762 1349.69 212.854C1348.95 211.291 1347.79 210.367 1346.32 209.903C1345.58 209.67 1344.83 209.574 1344.5 210.131C1343.57 211.694 1345.27 215.901 1347.87 226.255C1349.78 233.879 1352.06 246.513 1353.63 254.099C1356.54 268.165 1361.65 276.2 1364.43 279.513C1364.73 279.866 1365.17 278.241 1365.2 270.675C1365.24 263.11 1364.96 249.073 1364.56 240.586C1363.82 224.484 1359.59 217.919 1356.62 215.423C1352.53 211.992 1346.79 211.144 1341.45 207.874C1336.09 204.592 1324.79 204.157 1319.03 206.115C1316.05 207.129 1319.29 212.505 1320.63 214.849C1322.82 218.651 1327.39 220.23 1332.47 221.022C1337.35 221.782 1341.53 220.799 1343.46 220.097C1344.39 219.76 1345.07 219.123 1345.52 218.148C1346.53 215.94 1345.83 213.339 1344.7 211.328C1342.26 206.981 1336 205.208 1330.55 203.775C1328.78 203.311 1326.21 203.477 1324.64 203.734C1323.08 203.99 1322.56 204.604 1322.15 205.314C1319.39 210.171 1321.4 218.087 1322.6 219.625C1325.55 223.422 1333.88 222.703 1337.6 221.074C1342.66 218.861 1340.05 206.774 1339.41 201.403C1339.13 199.11 1336.25 197.121 1333.62 195.158C1331.52 193.591 1328.35 194.03 1325.44 194.14C1319.1 194.383 1310.99 205.185 1308.31 210.521C1306.69 213.73 1308.78 217.242 1310.47 219.029C1313.99 222.752 1323.41 226.248 1339.46 229.008C1345.32 230.016 1348.44 229.289 1350.27 228.709C1353.01 227.842 1355.15 225.255 1356.64 222.445C1361.58 213.085 1358.09 200.046 1356.26 197.744C1352.53 193.036 1341.4 193.846 1335.36 195.511C1325.83 198.134 1323.15 206.073 1319.01 211.86C1315.22 217.175 1309.16 225.933 1293.89 238.13C1290.69 240.684 1289.34 241.434 1288.99 242.061C1286.07 247.467 1313.22 241.943 1321.16 240.234C1322.36 239.975 1323.36 239.563 1323.31 239.289C1322.66 236.159 1316.9 239.378 1313.07 240.04C1308.3 240.864 1304.2 241.219 1301.19 240.987C1296.58 240.63 1312.47 236.689 1319.4 233.745C1322.49 232.431 1324.1 230.07 1325.02 227.291C1326.18 223.77 1324.89 220.456 1324.07 219.518C1324.81 223.167 1325.84 226.06 1326.45 227.995C1326.8 229.142 1327.23 230.626 1327.66 232.155" stroke="#EAEAEA" stroke-width="4" stroke-linecap="round"/><path d="M1377.39 327.234H1377.56" stroke="#EAEAEA" stroke-width="4" stroke-linecap="round"/><path d="M1407.04 328.702C1407.04 328.569 1407.04 328.436 1406.87 335.248C1406.71 342.061 1406.38 355.824 1402.09 380.515C1397.8 405.207 1389.54 440.41 1385.13 459.11C1380.71 477.81 1380.38 478.94 1380.14 479.069C1379.39 479.482 1379.76 475.052 1382.85 461.03C1385.46 449.233 1391.63 428.282 1396.56 412.219C1401.49 396.156 1405.36 385.706 1407.45 379.591C1410.75 369.958 1411.86 359.07 1412.25 352.526C1412.26 352.263 1411.47 353.623 1405.91 371.826C1400.36 390.03 1389.78 425.358 1384.23 444.075C1377.8 465.816 1377.1 472.593 1375.87 477.289C1375.08 480.318 1374.4 482.588 1373.34 483.684C1369.72 487.449 1361.04 481.966 1354.87 478.815C1353.71 478.222 1353.04 477.532 1353.18 477.105C1354.61 472.54 1369.26 478.102 1378.21 480.373C1378.88 480.723 1377.64 480.779 1376.5 480.765C1375.35 480.752 1374.35 480.667 1373.12 480.385" stroke="#EAEAEA" stroke-width="4" stroke-linecap="round"/><path d="M1425.45 334.088C1425.4 340.626 1426.09 355.946 1427.94 366.03C1429.48 374.433 1431.81 389.583 1433.75 404.954C1435.68 420.325 1437.03 435.476 1437.84 443.726C1439.1 456.616 1441.2 463.839 1442.2 467.306C1443.21 470.806 1444.15 474.569 1444.69 477.549C1444.14 478.906 1435.57 479.586 1428.16 479.31C1428.87 479.035 1438.65 478.483 1447.53 477.09" stroke="#EAEAEA" stroke-width="4" stroke-linecap="round"/><path d="M1323.57 193.878C1323.57 190.405 1323.65 182.929 1324.22 182.016C1326.43 178.472 1330.88 189.045 1333.68 191.857C1334.71 192.894 1337.33 190.143 1340.18 188.139C1340.94 187.601 1342.25 187.791 1343.14 188.076C1344.79 188.606 1345.8 190.242 1347.4 191.09C1351.92 193.485 1356.67 189.705 1359.06 189.616C1360.1 189.578 1360.72 190.452 1360.52 191.756C1359.24 194.998 1357.32 198.082 1354.37 201.659C1352.23 204.148 1348.8 208.006 1345.26 211.982" stroke="#EAEAEA" stroke-width="4" stroke-linecap="round"/><path d="M1317.98 217.853C1316.12 219.706 1309.12 225.767 1304.85 228.627C1304.08 229.145 1303.36 229.644 1303.45 230.158C1309.12 232.116 1319.4 233.075 1324.1 233.27C1325.98 233.362 1326.83 233.439 1327.89 233.692" stroke="#EAEAEA" stroke-width="4" stroke-linecap="round"/><path d="M1419.05 276.4C1418.78 276.533 1418.64 261.796 1418.64 239.957C1418.64 232.922 1418.64 234.106 1420.22 244.861C1421.79 255.617 1424.93 275.908 1426.82 295.108C1428.71 314.308 1429.25 331.801 1433.77 337.016C1438.3 342.231 1446.79 334.637 1454 328.858C1466.49 318.844 1474.13 314.709 1475.94 313.084C1476.63 312.465 1475.7 311.395 1474.48 310.51C1471.66 308.463 1465.85 306.501 1455.74 304.3C1449.52 302.945 1440.74 303.006 1436.85 302.387C1432.97 301.768 1434.17 300.953 1438.44 299.454C1442.71 297.956 1450.01 295.799 1457.16 294.202C1470.97 291.116 1481.92 290.301 1487.16 289.262C1488.91 288.916 1483.08 284.873 1474.87 280.452C1462.32 273.697 1454.36 268.747 1453.31 268.906C1453.21 270.344 1454.64 273.511 1461.06 281.272C1466.24 286.939 1475.33 296.114 1484.7 305.568" stroke="#EAEAEA" stroke-width="4" stroke-linecap="round"/><path d="M1393.42 309.34C1393.15 309.206 1391.31 309.137 1382.38 310.676C1375.1 311.929 1362.48 315.292 1353.16 317.258C1338.36 320.382 1329.38 320.996 1324.99 321.312C1323.76 321.4 1324.56 321.339 1335.81 322.053C1347.07 322.767 1368.75 324.257 1380.61 324.794C1392.46 325.331 1393.83 324.868 1395.28 324.526C1396.72 324.183 1398.19 323.974 1399.71 323.759" stroke="#EAEAEA" stroke-width="4" stroke-linecap="round"/><path d="M1403.04 323.759C1402.39 327.178 1397.47 346.269 1393.93 354.988C1393.81 355.282 1395.19 354.547 1402.12 348.038C1409.04 341.529 1421.79 329.208 1428.68 322.654C1435.57 316.1 1436.19 315.686 1436.44 316.61C1438.75 325.336 1434.67 336.122 1435.08 341.502C1435.49 343.41 1436.32 343.647 1437.86 343.769C1439.4 343.891 1441.63 343.891 1443.93 343.891" stroke="#EAEAEA" stroke-width="4" stroke-linecap="round"/></svg>