<svg width="48" height="347" viewBox="0 0 48 347" fill="none" xmlns="http://www.w3.org/2000/svg">
<path d="M16.6402 1.15786C16.6402 0.88315 23.3332 0.741634 33.4742 2.72108C37.0384 3.41679 36.9221 8.65942 37.5914 23.691C38.2607 38.7225 39.5993 64.7068 40.6473 116.551C41.6953 168.394 42.4121 245.31 41.7364 284.934C41.0606 324.557 38.9707 324.557 32.619 326.099C26.2673 327.641 15.7171 330.725 9.8331 332.587C3.9491 334.449 3.05093 334.996 1.00024 335.56" stroke="#717B08" stroke-width="1.99999" stroke-linecap="round"/>
<path d="M21.6402 11.1578C21.6402 10.8831 28.3332 10.7416 38.4741 12.721C42.0383 13.4167 41.9221 18.6594 42.5914 33.6909C43.2607 48.7225 44.5993 74.7067 45.6473 126.551C46.6952 178.394 47.412 255.31 46.7363 294.934C46.0606 334.557 43.9707 334.557 37.6189 336.099C31.2672 337.641 20.7171 340.725 14.8331 342.587C8.94907 344.449 8.05091 344.996 6.00021 345.56" stroke="#D9D9D9" stroke-width="1.99999" stroke-linecap="round"/>
</svg>
