<svg width="1514" height="520" viewBox="0 0 1514 520" fill="none" xmlns="http://www.w3.org/2000/svg">
<rect width="1514" height="520" fill="#F8F8F8"/>
<path d="M1450.34 283.721C1450.46 283.844 1444.84 283.907 1435.15 284.135C1428.99 284.281 1422.37 287.358 1413.86 291.786C1405.85 295.954 1401.02 300.924 1397.26 304.829C1392.27 310.005 1388.37 316.312 1385.15 320.352C1383.92 321.909 1382.87 321.929 1381.95 321.219C1374.16 315.147 1372.92 299.355 1372.5 287.637C1372.42 285.3 1373.23 284.607 1374.34 283.954C1376.97 282.408 1383.41 282.249 1402.88 288.427C1418.22 293.292 1442.93 306.403 1456.47 313.013C1476.87 322.973 1484.84 329.764 1486.11 330.828C1486.77 331.372 1487.43 331.924 1486.5 331.844C1482.95 331.539 1470.58 326.721 1451.64 320.431C1442.62 317.434 1434.45 315.927 1423.47 314.731C1412.49 313.534 1398.86 312.973 1390.77 313.037C1380.51 313.119 1377.42 314.995 1375.81 316.042C1375.04 316.536 1374.68 317.334 1374.46 318.317C1374.23 319.299 1374.23 320.539 1374.81 321.699C1377.48 327.106 1384.8 328.965 1399.08 331.446C1409.03 333.175 1417.32 331.563 1422.07 329.901C1426.06 328.504 1429.44 322.953 1433.5 316.343C1437.23 310.265 1438.23 302.238 1439.83 287.437C1440.97 276.881 1441.4 260.014 1441.67 249.979C1442.01 237.223 1441.12 233.343 1440.45 232.152C1439.9 231.186 1438.76 235.001 1436.43 248.482C1434.32 260.69 1430.96 283.898 1429.21 298.677C1427.46 313.456 1427.58 319.128 1428.22 322.52C1428.85 325.911 1430 326.849 1431.48 327.554C1437.25 330.301 1442.65 329.516 1447.17 329.2C1448.86 329.082 1449.22 328.254 1448.67 327.316C1447.18 324.75 1443.59 323.196 1436.22 320.76C1430.44 318.847 1420.28 316.248 1403.41 313.855C1386.54 311.462 1363.2 309.53 1349.56 308.12C1332.62 306.37 1328.55 304.585 1327.06 303.593C1326.3 303.094 1325.7 302.41 1325.32 301.424C1324.95 300.439 1324.85 299.123 1324.96 298.08C1325.14 296.266 1328.48 293.466 1336.93 288.2C1342.44 284.764 1351.04 280.812 1360.56 277.256C1370.09 273.7 1380.42 270.925 1389.07 269.137C1404.26 265.999 1414.66 265.897 1420.02 266.406C1422.01 266.594 1422.29 267.932 1422.46 269.142C1422.82 271.703 1422.19 273.914 1421.04 275.388C1416.87 280.746 1398.42 280.158 1390.58 279.409C1388.38 279.199 1386.71 276.487 1385.19 273.99C1384.51 272.857 1384.42 271.759 1384.63 270.788C1385.06 268.811 1387 267.602 1389.29 266.637C1392.49 265.289 1404.93 264.623 1423.63 264.583C1437.86 264.552 1444.99 267.232 1447.81 268.654C1455.67 272.621 1462.6 277.013 1466.46 280.699C1470.59 284.652 1470.45 288.206 1470.77 291.118C1470.99 293.105 1471.01 296.152 1467.69 298.179C1449.44 309.309 1436.59 306.683 1433.32 308.616C1431.93 309.433 1430.5 311.261 1428.86 314.34C1426.56 318.677 1427.1 325.912 1427.4 332.115C1427.51 334.389 1428.31 334.819 1429.03 335.199C1429.75 335.579 1430.58 335.88 1430.65 336.104C1430.71 336.329 1429.98 336.469 1414.32 336.775C1398.66 337.081 1368.08 337.549 1351.8 337.65C1335.53 337.751 1334.49 337.471 1334.86 336.996C1336.35 335.055 1348.05 335.175 1365.59 336.103C1374 336.548 1381.24 338.89 1385.08 339.068C1388.93 339.246 1389.11 337.687 1386.15 330.778C1383.19 323.868 1377.07 311.655 1372.91 304.078C1363.9 287.707 1352.06 282.179 1348.22 279.298C1347.57 278.81 1347.46 277.835 1349.41 277.157C1355.35 275.095 1369.75 275.386 1386.13 275.926C1399.65 276.373 1403.19 281.241 1407.91 284.887C1409.95 286.454 1409.52 289.271 1409.25 290.903C1409.02 292.357 1398.24 297.647 1381.99 305.696C1375.5 308.913 1372.32 309.856 1371.09 310.439C1363.18 314.21 1397.29 304.859 1397.93 303.455C1399.72 299.532 1393.43 296.286 1377.24 277.823C1371.98 271.816 1368.51 262.374 1360.89 244.56C1353.48 227.205 1350.59 214.762 1349.69 212.854C1348.95 211.291 1347.79 210.367 1346.32 209.903C1345.58 209.67 1344.83 209.574 1344.5 210.131C1343.57 211.694 1345.27 215.901 1347.87 226.255C1349.78 233.879 1352.06 246.513 1353.63 254.099C1356.54 268.165 1361.65 276.2 1364.43 279.513C1364.73 279.866 1365.17 278.241 1365.2 270.675C1365.24 263.11 1364.96 249.073 1364.56 240.586C1363.82 224.484 1359.59 217.919 1356.62 215.423C1352.53 211.992 1346.79 211.144 1341.45 207.874C1336.09 204.592 1324.79 204.157 1319.03 206.115C1316.05 207.129 1319.29 212.505 1320.63 214.849C1322.82 218.651 1327.39 220.23 1332.47 221.022C1337.35 221.782 1341.53 220.799 1343.46 220.097C1344.39 219.76 1345.07 219.123 1345.52 218.148C1346.53 215.94 1345.83 213.339 1344.7 211.328C1342.26 206.981 1336 205.208 1330.55 203.775C1328.78 203.311 1326.21 203.477 1324.64 203.734C1323.08 203.99 1322.56 204.604 1322.15 205.314C1319.39 210.171 1321.4 218.087 1322.6 219.625C1325.55 223.422 1333.88 222.703 1337.6 221.074C1342.66 218.861 1340.05 206.774 1339.41 201.403C1339.13 199.11 1336.25 197.121 1333.62 195.158C1331.52 193.591 1328.35 194.03 1325.44 194.14C1319.1 194.383 1310.99 205.185 1308.31 210.521C1306.69 213.73 1308.78 217.242 1310.47 219.029C1313.99 222.752 1323.41 226.248 1339.46 229.008C1345.32 230.016 1348.44 229.289 1350.27 228.709C1353.01 227.842 1355.15 225.255 1356.64 222.445C1361.58 213.085 1358.09 200.046 1356.26 197.744C1352.53 193.036 1341.4 193.846 1335.36 195.511C1325.83 198.134 1323.15 206.073 1319.01 211.86C1315.22 217.175 1309.16 225.933 1293.89 238.13C1290.69 240.684 1289.34 241.434 1288.99 242.061C1286.07 247.467 1313.22 241.943 1321.16 240.234C1322.36 239.975 1323.36 239.563 1323.31 239.289C1322.66 236.159 1316.9 239.378 1313.07 240.04C1308.3 240.864 1304.2 241.219 1301.19 240.987C1296.58 240.63 1312.47 236.689 1319.4 233.745C1322.49 232.431 1324.1 230.07 1325.02 227.291C1326.18 223.77 1324.89 220.456 1324.07 219.518C1324.81 223.167 1325.84 226.06 1326.45 227.995C1326.8 229.142 1327.23 230.626 1327.66 232.155" stroke="#EAEAEA" stroke-width="4" stroke-linecap="round"/>
<path d="M1377.39 327.234H1377.56" stroke="#EAEAEA" stroke-width="4" stroke-linecap="round"/>
<path d="M1407.04 328.702C1407.04 328.569 1407.04 328.436 1406.87 335.248C1406.71 342.061 1406.38 355.824 1402.09 380.515C1397.8 405.207 1389.54 440.41 1385.13 459.11C1380.71 477.81 1380.38 478.94 1380.14 479.069C1379.39 479.482 1379.76 475.052 1382.85 461.03C1385.46 449.233 1391.63 428.282 1396.56 412.219C1401.49 396.156 1405.36 385.706 1407.45 379.591C1410.75 369.958 1411.86 359.07 1412.25 352.526C1412.26 352.263 1411.47 353.623 1405.91 371.826C1400.36 390.03 1389.78 425.358 1384.23 444.075C1377.8 465.816 1377.1 472.593 1375.87 477.289C1375.08 480.318 1374.4 482.588 1373.34 483.684C1369.72 487.449 1361.04 481.966 1354.87 478.815C1353.71 478.222 1353.04 477.532 1353.18 477.105C1354.61 472.54 1369.26 478.102 1378.21 480.373C1378.88 480.723 1377.64 480.779 1376.5 480.765C1375.35 480.752 1374.35 480.667 1373.12 480.385" stroke="#EAEAEA" stroke-width="4" stroke-linecap="round"/>
<path d="M1425.45 334.088C1425.4 340.626 1426.09 355.946 1427.94 366.03C1429.48 374.433 1431.81 389.583 1433.75 404.954C1435.68 420.325 1437.03 435.476 1437.84 443.726C1439.1 456.616 1441.2 463.839 1442.2 467.306C1443.21 470.806 1444.15 474.569 1444.69 477.549C1444.14 478.906 1435.57 479.586 1428.16 479.31C1428.87 479.035 1438.65 478.483 1447.53 477.09" stroke="#EAEAEA" stroke-width="4" stroke-linecap="round"/>
<path d="M1323.57 193.878C1323.57 190.405 1323.65 182.929 1324.22 182.016C1326.43 178.472 1330.88 189.045 1333.68 191.857C1334.71 192.894 1337.33 190.143 1340.18 188.139C1340.94 187.601 1342.25 187.791 1343.14 188.076C1344.79 188.606 1345.8 190.242 1347.4 191.09C1351.92 193.485 1356.67 189.705 1359.06 189.616C1360.1 189.578 1360.72 190.452 1360.52 191.756C1359.24 194.998 1357.32 198.082 1354.37 201.659C1352.23 204.148 1348.8 208.006 1345.26 211.982" stroke="#EAEAEA" stroke-width="4" stroke-linecap="round"/>
<path d="M1317.98 217.853C1316.12 219.706 1309.12 225.767 1304.85 228.627C1304.08 229.145 1303.36 229.644 1303.45 230.158C1309.12 232.116 1319.4 233.075 1324.1 233.27C1325.98 233.362 1326.83 233.439 1327.89 233.692" stroke="#EAEAEA" stroke-width="4" stroke-linecap="round"/>
<path d="M1419.05 276.4C1418.78 276.533 1418.64 261.796 1418.64 239.957C1418.64 232.922 1418.64 234.106 1420.22 244.861C1421.79 255.617 1424.93 275.908 1426.82 295.108C1428.71 314.308 1429.25 331.801 1433.77 337.016C1438.3 342.231 1446.79 334.637 1454 328.858C1466.49 318.844 1474.13 314.709 1475.94 313.084C1476.63 312.465 1475.7 311.395 1474.48 310.51C1471.66 308.463 1465.85 306.501 1455.74 304.3C1449.52 302.945 1440.74 303.006 1436.85 302.387C1432.97 301.768 1434.17 300.953 1438.44 299.454C1442.71 297.956 1450.01 295.799 1457.16 294.202C1470.97 291.116 1481.92 290.301 1487.16 289.262C1488.91 288.916 1483.08 284.873 1474.87 280.452C1462.32 273.697 1454.36 268.747 1453.31 268.906C1453.21 270.344 1454.64 273.511 1461.06 281.272C1466.24 286.939 1475.33 296.114 1484.7 305.568" stroke="#EAEAEA" stroke-width="4" stroke-linecap="round"/>
<path d="M1393.42 309.34C1393.15 309.206 1391.31 309.137 1382.38 310.676C1375.1 311.929 1362.48 315.292 1353.16 317.258C1338.36 320.382 1329.38 320.996 1324.99 321.312C1323.76 321.4 1324.56 321.339 1335.81 322.053C1347.07 322.767 1368.75 324.257 1380.61 324.794C1392.46 325.331 1393.83 324.868 1395.28 324.526C1396.72 324.183 1398.19 323.974 1399.71 323.759" stroke="#EAEAEA" stroke-width="4" stroke-linecap="round"/>
<path d="M1403.04 323.759C1402.39 327.178 1397.47 346.269 1393.93 354.988C1393.81 355.282 1395.19 354.547 1402.12 348.038C1409.04 341.529 1421.79 329.208 1428.68 322.654C1435.57 316.1 1436.19 315.686 1436.44 316.61C1438.75 325.336 1434.67 336.122 1435.08 341.502C1435.49 343.41 1436.32 343.647 1437.86 343.769C1439.4 343.891 1441.63 343.891 1443.93 343.891" stroke="#EAEAEA" stroke-width="4" stroke-linecap="round"/>
<path fill-rule="evenodd" clip-rule="evenodd" d="M186.689 236C285.414 240.162 292.618 267.895 292.618 289.405C292.618 307.188 282.871 338.648 218.468 335.915H173.241V487.686L38 489V236H186.689ZM173.241 322.027H181.158C196 322.027 209.56 320.866 209.56 300.348C209.56 279.83 200.237 275.727 178.547 275.25H173.241V322.027Z" fill="#717B08"/>
<path d="M1205.1 387.972H1289V487.686H1144.87V236H1205.1V387.972Z" fill="#717B08"/>
<path d="M1067.53 436.532H1139.69V487.687H941.461V236L1067.53 236.001V436.532Z" fill="#717B08"/>
<path d="M721.105 487.686H616.012V260.621H721.105V487.686Z" fill="#717B08"/>
<path d="M721.105 249.679H616.012V236H721.105V249.679Z" fill="#717B08"/>
<path d="M827.153 240.155C883.648 264.2 879.445 301.604 879.445 326.717H822.483C822.483 315.224 821.358 308.954 819.478 305.803C814.284 297.103 802.874 295.192 795.403 298.932C780.929 314.428 783.731 338.619 783.731 368.746C783.731 398.873 783.731 413.28 787.466 423.432C791.413 429.911 795.055 430.162 796.804 430.913C797.738 431.314 810.811 433.05 815.48 429.844C824.72 423.5 823.417 406.429 823.417 406.429H798.558V358.281H881.313V365.416C880.3 430.913 865.414 455.187 855.166 471.522C846.274 485.699 816.414 487.553 800.539 487.553C786.065 487.553 765.365 491.08 742.643 461.904C728.031 439.037 725.368 403.092 725.368 360.915C725.368 317.152 726.755 281.579 744.044 260.994C775.793 233.208 809.27 232.544 827.153 240.155Z" fill="#717B08"/>
<path d="M936.376 487.686H884.581V282.507H936.376V487.686Z" fill="#717B08"/>
<path d="M936.346 271.564H884.647V236H936.346V271.564Z" fill="#717B08"/>
<path fill-rule="evenodd" clip-rule="evenodd" d="M305.81 264.354C300.309 280.126 297.347 298.107 297.347 314.804C297.347 448.02 307.196 381.249 360.409 381.249H416.472V487.687H436.76C436.76 487.687 436.76 370.892 436.76 314.845C436.76 258.797 418.115 236.014 371.903 236C335.895 235.99 313.022 243.676 305.81 264.354ZM415.546 361.954H369.67C369.67 346.203 369.61 359.915 369.67 347.315C369.806 318.869 384.799 310.69 390.994 310.69C397.189 310.69 415.546 314.765 415.546 347.315C415.546 359.883 415.546 349.386 415.546 361.954Z" fill="#717B08"/>
<path d="M297.526 390.297V334.243L368.922 334.243V419.932V452.948V487.579H297.526V429.362V390.297Z" fill="#717B08"/>
<path fill-rule="evenodd" clip-rule="evenodd" d="M531.622 236C592.266 236 610.676 237.324 610.676 299.152C610.676 321.46 604.989 360.973 555.378 357.919H512.112H468.846V487.686H440.574V236H531.622ZM468.846 327.031H523.246C539.675 328.273 550.702 322.823 550.702 303.748C550.702 275.135 524.609 278.671 521.294 277.533H468.846V327.031Z" fill="#717B08"/>
<path d="M583.351 371.762C561.517 364.908 481.632 365.098 462.61 366.05V397.465H536.209C549.855 397.465 549.442 426.684 549.855 429.921V487.686H609.421C609.421 455.51 609.402 422.171 609.402 421.714C609.402 418.281 610.643 380.33 583.351 371.762Z" fill="#717B08"/>
<rect x="38" y="37" width="75" height="31" rx="15.5" fill="#717B08"/>
<path d="M56.9575 50.9835L56.7657 50.8052C56.5549 50.6108 56.4493 50.5132 56.394 50.3784C56.3381 50.2435 56.3381 50.0871 56.3388 49.7738L56.3387 49.489C56.3389 48.3864 56.3396 47.8352 56.0127 47.6522M60.3154 56.4315C60.4191 56.3221 60.5541 56.263 60.826 56.1452L61.0727 56.0371C62.0283 55.6225 62.5062 55.4146 62.5858 55.003C62.6662 54.591 62.2957 54.2485 61.5544 53.5622L61.3631 53.3847C61.1523 53.1902 61.0474 53.0921 60.9914 52.9579C60.9353 52.8236 60.9354 52.6666 60.9355 52.3531L60.9354 52.0683C60.9362 50.9658 60.9363 50.4145 60.6101 50.2316L56.0127 47.6522C55.686 47.4685 55.2491 47.7746 54.3752 48.3869L54.1487 48.5453C53.9008 48.7195 53.7769 48.8066 53.6385 48.833C53.5008 48.8589 53.3655 48.8215 53.0939 48.7452L52.8466 48.6765C51.8913 48.4108 51.414 48.2774 51.132 48.576C50.85 48.8746 50.9507 49.407 51.1513 50.4704L51.2037 50.7459C51.2603 51.0484 51.2889 51.1998 51.2596 51.3506C51.2303 51.5015 51.1465 51.6345 50.9788 51.9011L50.8258 52.1437C50.2344 53.0818 49.9394 53.5507 50.0917 53.9179C50.2438 54.2857 50.7429 54.3088 51.7417 54.3545L51.9997 54.3658C52.2835 54.3785 52.4246 54.3853 52.5446 54.4524C52.6645 54.5194 52.7478 54.6399 52.9161 54.8798L53.0683 55.0991C53.6586 55.9443 54.3299 56.2963 54.3299 56.2963M61.3637 53.3848L56.957 50.9828C57.6985 51.6684 58.0695 52.0117 57.9892 52.4231C57.909 52.8345 57.431 53.0424 56.4752 53.4583L56.2286 53.5657C55.9568 53.6835 55.8211 53.7425 55.7181 53.8521L60.3154 56.4315M54.3299 56.2963C54.7056 56.2249 54.9136 55.707 55.3298 54.6707L55.4373 54.4025C55.5554 54.1081 55.6144 53.9615 55.7174 53.852M54.3299 56.2963L58.1031 58.4132C58.5025 58.6373 58.7025 58.7497 58.9541 58.6741C59.205 58.5983 59.3107 58.4216 59.5214 58.0686C59.6581 57.8398 59.8008 57.5661 59.927 57.2508L60.0351 56.9827C60.1534 56.6877 60.2125 56.5405 60.3154 56.4315" stroke="white" stroke-width="0.761616"/>
<path d="M67.1113 50.3216H70.3483V50.6335C70.0504 50.656 69.8537 50.7094 69.7582 50.7937C69.6683 50.878 69.6233 50.9988 69.6233 51.1562C69.6233 51.3304 69.6711 51.5411 69.7666 51.7884L71.4189 56.2309L73.0795 52.6145L72.6412 51.4765C72.5063 51.1393 72.3293 50.9061 72.1101 50.7768C71.9865 50.6982 71.7561 50.6504 71.4189 50.6335V50.3216H75.0942V50.6335C74.6896 50.6504 74.403 50.7234 74.2344 50.8527C74.122 50.9426 74.0658 51.0859 74.0658 51.2826C74.0658 51.395 74.0883 51.5102 74.1333 51.6282L75.8866 56.0623L77.5136 51.7884C77.626 51.4849 77.6822 51.2433 77.6822 51.0634C77.6822 50.9567 77.626 50.8611 77.5136 50.7768C77.4068 50.6925 77.1933 50.6448 76.8729 50.6335V50.3216H79.3091V50.6335C78.8202 50.7066 78.4605 51.0382 78.2301 51.6282L75.6506 58.2793H75.305L73.3746 53.3479L71.1238 58.2793H70.8119L68.3336 51.7884C68.1706 51.3782 68.0104 51.1028 67.8531 50.9623C67.6957 50.8162 67.4485 50.7066 67.1113 50.6335V50.3216ZM83.7937 50.094C84.9627 50.094 85.9012 50.538 86.6093 51.4259C87.2106 52.1846 87.5113 53.0557 87.5113 54.0391C87.5113 54.7304 87.3455 55.4301 87.0139 56.1382C86.6823 56.8462 86.2243 57.3801 85.6399 57.7398C85.061 58.0995 84.4147 58.2793 83.701 58.2793C82.5377 58.2793 81.6133 57.8157 80.9276 56.8884C80.3488 56.1072 80.0594 55.2305 80.0594 54.2583C80.0594 53.5502 80.2336 52.8477 80.582 52.1509C80.9361 51.4484 81.3997 50.9314 81.9729 50.5998C82.5461 50.2626 83.1531 50.094 83.7937 50.094ZM83.5324 50.642C83.2346 50.642 82.9339 50.7319 82.6304 50.9117C82.3326 51.0859 82.0909 51.395 81.9055 51.839C81.72 52.2829 81.6273 52.8534 81.6273 53.5502C81.6273 54.6742 81.8493 55.6436 82.2933 56.4585C82.7428 57.2734 83.3329 57.6808 84.0635 57.6808C84.6086 57.6808 85.0582 57.456 85.4123 57.0064C85.7663 56.5568 85.9433 55.7841 85.9433 54.6882C85.9433 53.317 85.6483 52.238 85.0582 51.4512C84.6592 50.9117 84.1506 50.642 83.5324 50.642ZM90.9085 50.094V51.8305C91.5547 50.6729 92.2179 50.094 92.8979 50.094C93.207 50.094 93.4627 50.1896 93.665 50.3806C93.8673 50.5661 93.9685 50.7824 93.9685 51.0297C93.9685 51.2489 93.8954 51.4343 93.7493 51.5861C93.6032 51.7378 93.429 51.8137 93.2266 51.8137C93.0299 51.8137 92.808 51.7182 92.5607 51.5271C92.319 51.3304 92.1392 51.232 92.0212 51.232C91.92 51.232 91.8104 51.2882 91.6924 51.4006C91.4395 51.631 91.1782 52.0104 90.9085 52.5386V56.2393C90.9085 56.6664 90.9618 56.9896 91.0686 57.2087C91.1417 57.3605 91.2709 57.4869 91.4564 57.5881C91.6418 57.6892 91.9088 57.7398 92.2572 57.7398V58.0433H88.3037V57.7398C88.6971 57.7398 88.9893 57.678 89.1804 57.5543C89.3209 57.4644 89.4192 57.3211 89.4754 57.1244C89.5035 57.0289 89.5175 56.7563 89.5175 56.3067V53.3142C89.5175 52.415 89.4979 51.8811 89.4585 51.7125C89.4248 51.5383 89.3574 51.4119 89.2562 51.3332C89.1607 51.2545 89.0399 51.2152 88.8937 51.2152C88.7195 51.2152 88.5228 51.2573 88.3037 51.3416L88.2194 51.0382L90.5544 50.094H90.9085ZM96.6828 46.0562V53.7441L98.647 51.9486C99.0628 51.5664 99.3045 51.3248 99.3719 51.2236C99.4169 51.1562 99.4394 51.0887 99.4394 51.0213C99.4394 50.9089 99.3916 50.8134 99.2961 50.7347C99.2061 50.6504 99.0544 50.6026 98.8409 50.5914V50.3216H102.196V50.5914C101.735 50.6026 101.35 50.6729 101.041 50.8021C100.738 50.9314 100.403 51.1618 100.038 51.4934L98.0569 53.3226L100.038 55.8262C100.589 56.5175 100.96 56.9558 101.151 57.1413C101.42 57.4054 101.656 57.5768 101.859 57.6555C101.999 57.7117 102.244 57.7398 102.592 57.7398V58.0433H98.8409V57.7398C99.0544 57.7342 99.1977 57.7033 99.2708 57.6471C99.3494 57.5853 99.3888 57.501 99.3888 57.3942C99.3888 57.2649 99.2764 57.057 99.0516 56.7704L96.6828 53.7441V56.3067C96.6828 56.8069 96.7166 57.1357 96.784 57.293C96.8571 57.4504 96.9582 57.5628 97.0875 57.6302C97.2167 57.6977 97.4977 57.7342 97.9304 57.7398V58.0433H94.0022V57.7398C94.3956 57.7398 94.6906 57.692 94.8873 57.5965C95.0053 57.5347 95.0952 57.4391 95.1571 57.3099C95.2414 57.1244 95.2835 56.8041 95.2835 56.3489V49.3185C95.2835 48.4249 95.2638 47.8798 95.2245 47.6831C95.1852 47.4808 95.1205 47.3431 95.0306 47.2701C94.9407 47.1914 94.8227 47.152 94.6766 47.152C94.5585 47.152 94.3815 47.1998 94.1455 47.2953L94.0022 47.0003L96.2951 46.0562H96.6828Z" fill="white"/>
<rect x="185.875" y="37.875" width="113.25" height="29.25" rx="14.625" stroke="#ECECEC" stroke-width="1.75"/>
<path d="M205.18 53.896H200.996L201.124 53.7639L202.218 52.6366C202.66 52.8659 203.147 52.9881 203.642 52.994C204.14 52.9953 204.629 52.8549 205.054 52.5882C206.348 51.7812 207.042 49.9132 206.909 47.5912C206.903 47.4812 206.858 47.3774 206.782 47.2995C206.706 47.2216 206.606 47.175 206.499 47.1685C204.245 47.0325 202.432 47.7463 201.648 49.0793C201.138 49.9475 201.125 50.9962 201.601 52.0015L200.816 52.8102L200.15 52.124C200.477 51.3794 200.454 50.6067 200.074 49.9616C199.481 48.9506 198.121 48.4116 196.437 48.5134C196.33 48.5199 196.23 48.5665 196.154 48.6442C196.079 48.722 196.034 48.8256 196.027 48.9354C195.928 50.6702 196.452 52.0707 197.434 52.6821C197.762 52.8888 198.14 52.9977 198.525 52.9968C198.874 52.9932 199.218 52.913 199.535 52.7613L200.198 53.4464L199.762 53.896H197.324C197.209 53.896 197.098 53.9433 197.016 54.0276C196.934 54.112 196.888 54.2263 196.888 54.3455C196.888 54.4648 196.934 54.5791 197.016 54.6634C197.098 54.7478 197.209 54.7951 197.324 54.7951H197.848L198.568 58.1372C198.61 58.3374 198.718 58.5165 198.873 58.6447C199.028 58.7729 199.221 58.8423 199.42 58.8413H203.085C203.283 58.8423 203.477 58.7729 203.632 58.6447C203.787 58.5165 203.894 58.3374 203.937 58.1372L204.657 54.7951H205.18C205.296 54.7951 205.407 54.7478 205.488 54.6634C205.57 54.5791 205.616 54.4648 205.616 54.3455C205.616 54.2263 205.57 54.112 205.488 54.0276C205.407 53.9433 205.296 53.896 205.18 53.896ZM202.398 49.5451C202.968 48.5752 204.32 48.0278 206.053 48.052C206.075 49.8396 205.545 51.2316 204.603 51.8172C203.975 52.2106 203.218 52.1847 202.46 51.7509C202.039 50.9737 202.016 50.192 202.398 49.5451ZM199.294 51.879C198.792 52.1561 198.295 52.169 197.885 51.9127C197.258 51.521 196.896 50.5977 196.888 49.4002C198.051 49.4086 198.947 49.7812 199.327 50.4274C199.576 50.85 199.561 51.362 199.294 51.879ZM203.085 57.9422H199.42L198.743 54.7951H203.762L203.085 57.9422Z" fill="#382617"/>
<path d="M215.544 51.6797C216.106 51.1177 216.437 50.7946 216.538 50.7103C216.791 50.4967 217.064 50.331 217.356 50.2129C217.648 50.0949 217.938 50.0359 218.224 50.0359C218.708 50.0359 219.124 50.1764 219.472 50.4574C219.82 50.7384 220.054 51.1458 220.172 51.6797C220.751 51.0053 221.239 50.5642 221.638 50.3562C222.037 50.1427 222.448 50.0359 222.869 50.0359C223.279 50.0359 223.642 50.1427 223.957 50.3562C224.277 50.5642 224.53 50.907 224.715 51.3847C224.839 51.7106 224.901 52.222 224.901 52.9189V56.2402C224.901 56.7235 224.937 57.0551 225.01 57.2349C225.067 57.3586 225.171 57.4653 225.322 57.5553C225.474 57.6395 225.721 57.6817 226.064 57.6817V57.9852H222.254V57.6817H222.414C222.746 57.6817 223.004 57.6171 223.19 57.4878C223.319 57.3979 223.412 57.2546 223.468 57.0579C223.49 56.9624 223.501 56.6898 223.501 56.2402V52.9189C223.501 52.2895 223.426 51.8455 223.274 51.587C223.055 51.2273 222.703 51.0475 222.22 51.0475C221.922 51.0475 221.622 51.1234 221.318 51.2751C221.02 51.4212 220.658 51.6966 220.231 52.1012L220.214 52.1939L220.231 52.5564V56.2402C220.231 56.7685 220.259 57.0972 220.315 57.2265C220.377 57.3557 220.489 57.4653 220.652 57.5553C220.815 57.6395 221.093 57.6817 221.487 57.6817V57.9852H217.584V57.6817C218.011 57.6817 218.303 57.6311 218.46 57.53C218.623 57.4288 218.736 57.2771 218.798 57.0748C218.826 56.9792 218.84 56.701 218.84 56.2402V52.9189C218.84 52.2895 218.747 51.8371 218.562 51.5617C218.314 51.202 217.969 51.0222 217.525 51.0222C217.221 51.0222 216.921 51.1037 216.623 51.2667C216.156 51.5139 215.797 51.7921 215.544 52.1012V56.2402C215.544 56.746 215.577 57.0748 215.645 57.2265C215.718 57.3782 215.822 57.4934 215.957 57.5721C216.097 57.6452 216.378 57.6817 216.8 57.6817V57.9852H212.981V57.6817C213.335 57.6817 213.582 57.6452 213.723 57.5721C213.863 57.4934 213.97 57.3726 214.043 57.2096C214.116 57.041 214.153 56.7179 214.153 56.2402V53.2898C214.153 52.4412 214.128 51.8933 214.077 51.646C214.038 51.4605 213.976 51.3341 213.892 51.2667C213.807 51.1936 213.692 51.1571 213.546 51.1571C213.389 51.1571 213.2 51.1992 212.981 51.2835L212.855 50.98L215.181 50.0359H215.544V51.6797ZM228.652 45.9981C228.888 45.9981 229.088 46.0824 229.251 46.251C229.419 46.4139 229.503 46.6134 229.503 46.8495C229.503 47.0855 229.419 47.2878 229.251 47.4564C229.088 47.625 228.888 47.7093 228.652 47.7093C228.416 47.7093 228.214 47.625 228.045 47.4564C227.876 47.2878 227.792 47.0855 227.792 46.8495C227.792 46.6134 227.874 46.4139 228.037 46.251C228.205 46.0824 228.41 45.9981 228.652 45.9981ZM229.352 50.0359V56.2402C229.352 56.7235 229.385 57.0467 229.453 57.2096C229.526 57.367 229.63 57.485 229.765 57.5637C229.905 57.6424 230.158 57.6817 230.523 57.6817V57.9852H226.772V57.6817C227.149 57.6817 227.402 57.6452 227.531 57.5721C227.66 57.4991 227.761 57.3782 227.834 57.2096C227.913 57.041 227.952 56.7179 227.952 56.2402V53.2645C227.952 52.4272 227.927 51.8848 227.876 51.6376C227.837 51.4577 227.775 51.3341 227.691 51.2667C227.607 51.1936 227.492 51.1571 227.345 51.1571C227.188 51.1571 226.997 51.1992 226.772 51.2835L226.654 50.98L228.981 50.0359H229.352ZM236.483 50.0359V52.666H236.205C235.992 51.8399 235.716 51.2779 235.379 50.98C235.047 50.6822 234.623 50.5333 234.106 50.5333C233.713 50.5333 233.395 50.6372 233.153 50.8452C232.912 51.0531 232.791 51.2835 232.791 51.5364C232.791 51.8511 232.881 52.1209 233.061 52.3457C233.235 52.5761 233.589 52.8205 234.123 53.0791L235.354 53.6776C236.494 54.2339 237.065 54.9673 237.065 55.8777C237.065 56.5802 236.798 57.1478 236.264 57.5805C235.736 58.0076 235.143 58.2212 234.485 58.2212C234.013 58.2212 233.474 58.1369 232.867 57.9683C232.681 57.9121 232.53 57.884 232.412 57.884C232.282 57.884 232.181 57.9571 232.108 58.1032H231.83V55.3467H232.108C232.266 56.1334 232.566 56.7263 233.01 57.1253C233.454 57.5243 233.952 57.7238 234.502 57.7238C234.89 57.7238 235.205 57.6114 235.446 57.3867C235.694 57.1562 235.817 56.8809 235.817 56.5605C235.817 56.1728 235.68 55.8468 235.404 55.5827C235.134 55.3186 234.592 54.9842 233.777 54.5795C232.962 54.1749 232.429 53.8096 232.176 53.4837C231.923 53.1634 231.796 52.7587 231.796 52.2698C231.796 51.6348 232.013 51.1037 232.445 50.6766C232.884 50.2495 233.449 50.0359 234.14 50.0359C234.443 50.0359 234.811 50.1005 235.244 50.2298C235.531 50.3141 235.722 50.3562 235.817 50.3562C235.907 50.3562 235.977 50.3366 236.028 50.2972C236.079 50.2579 236.138 50.1708 236.205 50.0359H236.483ZM244.778 55.0516C244.57 56.0688 244.163 56.8528 243.556 57.4035C242.949 57.9486 242.277 58.2212 241.541 58.2212C240.664 58.2212 239.9 57.8531 239.248 57.1169C238.596 56.3807 238.27 55.386 238.27 54.1328C238.27 52.9189 238.63 51.9326 239.349 51.1739C240.074 50.4153 240.943 50.0359 241.954 50.0359C242.713 50.0359 243.337 50.2382 243.826 50.6429C244.314 51.0419 244.559 51.4577 244.559 51.8905C244.559 52.104 244.489 52.2782 244.348 52.4131C244.213 52.5424 244.022 52.607 243.775 52.607C243.443 52.607 243.193 52.5002 243.025 52.2867C242.929 52.1686 242.865 51.9438 242.831 51.6123C242.803 51.2807 242.69 51.0278 242.494 50.8536C242.297 50.685 242.024 50.6007 241.676 50.6007C241.114 50.6007 240.662 50.8086 240.319 51.2245C239.864 51.7753 239.636 52.503 239.636 53.4078C239.636 54.3295 239.861 55.1443 240.31 55.8524C240.766 56.5549 241.378 56.9062 242.148 56.9062C242.699 56.9062 243.193 56.7179 243.632 56.3414C243.941 56.0829 244.241 55.6136 244.534 54.9336L244.778 55.0516ZM247.189 53.1718C247.183 54.3182 247.462 55.2174 248.024 55.8693C248.586 56.5212 249.246 56.8472 250.005 56.8472C250.51 56.8472 250.949 56.7095 251.32 56.4341C251.696 56.1531 252.011 55.6754 252.264 55.001L252.525 55.1696C252.407 55.9395 252.064 56.642 251.497 57.2771C250.929 57.9065 250.218 58.2212 249.364 58.2212C248.437 58.2212 247.641 57.8615 246.978 57.1422C246.321 56.4172 245.992 55.445 245.992 54.2255C245.992 52.9048 246.329 51.8764 247.004 51.1402C247.684 50.3984 248.535 50.0275 249.558 50.0275C250.423 50.0275 251.134 50.3141 251.691 50.8873C252.247 51.4549 252.525 52.2164 252.525 53.1718H247.189ZM247.189 52.6829H250.763C250.735 52.1883 250.676 51.8399 250.586 51.6376C250.446 51.3229 250.235 51.0756 249.954 50.8957C249.679 50.7159 249.389 50.626 249.086 50.626C248.619 50.626 248.201 50.8086 247.83 51.1739C247.464 51.5336 247.251 52.0366 247.189 52.6829ZM256.217 45.9981V56.2402C256.217 56.7235 256.251 57.0438 256.318 57.2012C256.392 57.3586 256.501 57.4794 256.647 57.5637C256.793 57.6424 257.066 57.6817 257.465 57.6817V57.9852H253.68V57.6817C254.034 57.6817 254.276 57.6452 254.405 57.5721C254.534 57.4991 254.635 57.3782 254.708 57.2096C254.781 57.041 254.818 56.7179 254.818 56.2402V49.2267C254.818 48.3556 254.798 47.8217 254.759 47.625C254.72 47.4227 254.655 47.285 254.565 47.2119C254.481 47.1389 254.371 47.1024 254.236 47.1024C254.09 47.1024 253.905 47.1473 253.68 47.2372L253.537 46.9422L255.838 45.9981H256.217ZM261.022 45.9981V56.2402C261.022 56.7235 261.056 57.0438 261.123 57.2012C261.196 57.3586 261.306 57.4794 261.452 57.5637C261.598 57.6424 261.871 57.6817 262.27 57.6817V57.9852H258.485V57.6817C258.839 57.6817 259.081 57.6452 259.21 57.5721C259.339 57.4991 259.44 57.3782 259.513 57.2096C259.586 57.041 259.623 56.7179 259.623 56.2402V49.2267C259.623 48.3556 259.603 47.8217 259.564 47.625C259.525 47.4227 259.46 47.285 259.37 47.2119C259.286 47.1389 259.176 47.1024 259.041 47.1024C258.895 47.1024 258.71 47.1473 258.485 47.2372L258.342 46.9422L260.643 45.9981H261.022ZM267.547 56.8724C266.754 57.485 266.257 57.8391 266.055 57.9346C265.751 58.0751 265.428 58.1453 265.085 58.1453C264.552 58.1453 264.11 57.9627 263.762 57.5974C263.419 57.2321 263.248 56.7516 263.248 56.1559C263.248 55.7794 263.332 55.4534 263.501 55.1781C263.731 54.7959 264.13 54.4362 264.698 54.0991C265.271 53.7619 266.221 53.3516 267.547 52.8683V52.5648C267.547 51.7949 267.423 51.2667 267.176 50.98C266.934 50.6934 266.58 50.5501 266.114 50.5501C265.76 50.5501 265.479 50.6457 265.271 50.8367C265.057 51.0278 264.951 51.247 264.951 51.4943L264.967 51.9832C264.967 52.2417 264.9 52.4412 264.765 52.5817C264.636 52.7222 264.464 52.7924 264.251 52.7924C264.043 52.7924 263.872 52.7194 263.737 52.5733C263.607 52.4272 263.543 52.2276 263.543 51.9748C263.543 51.4914 263.79 51.0475 264.285 50.6429C264.779 50.2382 265.473 50.0359 266.367 50.0359C267.052 50.0359 267.614 50.1511 268.053 50.3815C268.384 50.5557 268.629 50.8283 268.786 51.1992C268.887 51.4409 268.938 51.9354 268.938 52.6829V55.3045C268.938 56.0407 268.952 56.4931 268.98 56.6617C269.008 56.8247 269.053 56.9343 269.115 56.9905C269.182 57.0467 269.258 57.0748 269.342 57.0748C269.432 57.0748 269.511 57.0551 269.578 57.0157C269.696 56.9427 269.924 56.7376 270.261 56.4004V56.8724C269.632 57.7154 269.031 58.1369 268.457 58.1369C268.182 58.1369 267.963 58.0414 267.8 57.8503C267.637 57.6592 267.552 57.3333 267.547 56.8724ZM267.547 56.3245V53.3825C266.698 53.7197 266.15 53.9586 265.903 54.0991C265.459 54.3463 265.142 54.6048 264.951 54.8746C264.759 55.1443 264.664 55.4394 264.664 55.7597C264.664 56.1643 264.785 56.5015 265.026 56.7713C265.268 57.0354 265.546 57.1675 265.861 57.1675C266.288 57.1675 266.85 56.8865 267.547 56.3245ZM273.094 51.6713C273.998 50.581 274.861 50.0359 275.682 50.0359C276.103 50.0359 276.466 50.1427 276.769 50.3562C277.072 50.5642 277.314 50.9098 277.494 51.3931C277.618 51.7303 277.679 52.2473 277.679 52.9442V56.2402C277.679 56.7291 277.719 57.0607 277.797 57.2349C277.859 57.3754 277.958 57.485 278.092 57.5637C278.233 57.6424 278.489 57.6817 278.86 57.6817V57.9852H275.041V57.6817H275.201C275.561 57.6817 275.811 57.6283 275.951 57.5215C276.097 57.4091 276.199 57.2462 276.255 57.0326C276.277 56.9483 276.289 56.6842 276.289 56.2402V53.0791C276.289 52.3766 276.196 51.868 276.01 51.5533C275.831 51.2329 275.524 51.0728 275.092 51.0728C274.423 51.0728 273.757 51.4381 273.094 52.1686V56.2402C273.094 56.7629 273.125 57.086 273.186 57.2096C273.265 57.3726 273.372 57.4934 273.507 57.5721C273.647 57.6452 273.928 57.6817 274.35 57.6817V57.9852H270.531V57.6817H270.7C271.093 57.6817 271.357 57.5834 271.492 57.3867C271.632 57.1843 271.703 56.8022 271.703 56.2402V53.3741C271.703 52.4468 271.68 51.882 271.635 51.6797C271.596 51.4774 271.531 51.3397 271.441 51.2667C271.357 51.1936 271.242 51.1571 271.096 51.1571C270.938 51.1571 270.75 51.1992 270.531 51.2835L270.405 50.98L272.731 50.0359H273.094V51.6713ZM279.037 50.2635H282.636V50.5754H282.459C282.206 50.5754 282.015 50.6316 281.886 50.744C281.762 50.8508 281.7 50.9857 281.7 51.1486C281.7 51.3678 281.793 51.6713 281.979 52.0591L283.858 55.9536L285.587 51.6881C285.682 51.4577 285.73 51.2301 285.73 51.0053C285.73 50.9042 285.71 50.8283 285.671 50.7777C285.626 50.7159 285.556 50.6681 285.46 50.6344C285.365 50.5951 285.196 50.5754 284.954 50.5754V50.2635H287.466V50.5754C287.258 50.5979 287.098 50.6429 286.986 50.7103C286.873 50.7777 286.75 50.9042 286.615 51.0896C286.564 51.1683 286.469 51.3847 286.328 51.7387L283.184 59.4435C282.881 60.191 282.482 60.7557 281.987 61.1379C281.498 61.52 281.026 61.7111 280.571 61.7111C280.239 61.7111 279.967 61.6156 279.753 61.4245C279.54 61.2334 279.433 61.0143 279.433 60.767C279.433 60.531 279.509 60.3399 279.66 60.1938C279.818 60.0533 280.031 59.983 280.301 59.983C280.487 59.983 280.739 60.0448 281.06 60.1685C281.285 60.2528 281.425 60.2949 281.481 60.2949C281.65 60.2949 281.832 60.2078 282.029 60.0336C282.232 59.8594 282.434 59.5222 282.636 59.022L283.184 57.6817L280.411 51.8567C280.326 51.6825 280.192 51.4662 280.006 51.2076C279.866 51.011 279.75 50.8789 279.66 50.8114C279.531 50.7215 279.323 50.6429 279.037 50.5754V50.2635Z" fill="#382617"/>
<rect x="119.875" y="37.875" width="58.25" height="29.25" rx="14.625" stroke="#ECECEC" stroke-width="1.75"/>
<path d="M134.317 54.7523C134.827 55.1307 135.449 55.353 136.119 55.353C136.789 55.353 137.41 55.1307 137.921 54.7523M134.617 52.0494V51.749M137.621 52.0494V51.749" stroke="#382617" stroke-width="1.12624" stroke-linecap="round" stroke-linejoin="round"/>
<path d="M141.525 52.9504C141.525 53.6603 141.385 54.3633 141.113 55.0191C140.842 55.675 140.443 56.271 139.941 56.773C139.439 57.2749 138.843 57.6731 138.188 57.9448C137.532 58.2165 136.829 58.3563 136.119 58.3563C135.409 58.3563 134.706 58.2165 134.05 57.9448C133.394 57.6731 132.798 57.2749 132.296 56.773C131.794 56.271 131.396 55.675 131.124 55.0191C130.853 54.3633 130.713 53.6603 130.713 52.9504C130.713 51.5166 131.282 50.1416 132.296 49.1278C133.31 48.114 134.685 47.5444 136.119 47.5444C137.553 47.5444 138.928 48.114 139.941 49.1278C140.955 50.1416 141.525 51.5166 141.525 52.9504Z" stroke="#382617" stroke-width="0.991089" stroke-linecap="round" stroke-linejoin="round"/>
<path d="M150.279 51.6797C150.841 51.1177 151.172 50.7946 151.273 50.7103C151.526 50.4967 151.799 50.331 152.091 50.2129C152.383 50.0949 152.673 50.0359 152.959 50.0359C153.443 50.0359 153.859 50.1764 154.207 50.4574C154.555 50.7384 154.789 51.1458 154.907 51.6797C155.485 51.0053 155.974 50.5642 156.373 50.3562C156.772 50.1427 157.183 50.0359 157.604 50.0359C158.014 50.0359 158.377 50.1427 158.692 50.3562C159.012 50.5642 159.265 50.907 159.45 51.3847C159.574 51.7106 159.636 52.222 159.636 52.9189V56.2402C159.636 56.7235 159.672 57.0551 159.745 57.2349C159.802 57.3586 159.905 57.4653 160.057 57.5553C160.209 57.6395 160.456 57.6817 160.799 57.6817V57.9852H156.989V57.6817H157.149C157.481 57.6817 157.739 57.6171 157.924 57.4878C158.054 57.3979 158.146 57.2546 158.203 57.0579C158.225 56.9624 158.236 56.6898 158.236 56.2402V52.9189C158.236 52.2895 158.161 51.8455 158.009 51.587C157.79 51.2273 157.438 51.0475 156.955 51.0475C156.657 51.0475 156.357 51.1234 156.053 51.2751C155.755 51.4212 155.393 51.6966 154.966 52.1012L154.949 52.1939L154.966 52.5564V56.2402C154.966 56.7685 154.994 57.0972 155.05 57.2265C155.112 57.3557 155.224 57.4653 155.387 57.5553C155.55 57.6395 155.828 57.6817 156.222 57.6817V57.9852H152.319V57.6817C152.746 57.6817 153.038 57.6311 153.195 57.53C153.358 57.4288 153.471 57.2771 153.533 57.0748C153.561 56.9792 153.575 56.701 153.575 56.2402V52.9189C153.575 52.2895 153.482 51.8371 153.297 51.5617C153.049 51.202 152.704 51.0222 152.26 51.0222C151.956 51.0222 151.656 51.1037 151.358 51.2667C150.891 51.5139 150.532 51.7921 150.279 52.1012V56.2402C150.279 56.746 150.312 57.0748 150.38 57.2265C150.453 57.3782 150.557 57.4934 150.692 57.5721C150.832 57.6452 151.113 57.6817 151.535 57.6817V57.9852H147.716V57.6817C148.07 57.6817 148.317 57.6452 148.458 57.5721C148.598 57.4934 148.705 57.3726 148.778 57.2096C148.851 57.041 148.888 56.7179 148.888 56.2402V53.2898C148.888 52.4412 148.863 51.8933 148.812 51.646C148.773 51.4605 148.711 51.3341 148.626 51.2667C148.542 51.1936 148.427 51.1571 148.281 51.1571C148.123 51.1571 147.935 51.1992 147.716 51.2835L147.59 50.98L149.916 50.0359H150.279V51.6797ZM162.721 53.1718C162.715 54.3182 162.994 55.2174 163.556 55.8693C164.118 56.5212 164.778 56.8472 165.537 56.8472C166.042 56.8472 166.481 56.7095 166.852 56.4341C167.228 56.1531 167.543 55.6754 167.796 55.001L168.057 55.1696C167.939 55.9395 167.596 56.642 167.029 57.2771C166.461 57.9065 165.75 58.2212 164.896 58.2212C163.969 58.2212 163.173 57.8615 162.51 57.1422C161.853 56.4172 161.524 55.445 161.524 54.2255C161.524 52.9048 161.861 51.8764 162.536 51.1402C163.216 50.3984 164.067 50.0275 165.09 50.0275C165.955 50.0275 166.666 50.3141 167.223 50.8873C167.779 51.4549 168.057 52.2164 168.057 53.1718H162.721ZM162.721 52.6829H166.295C166.267 52.1883 166.208 51.8399 166.118 51.6376C165.978 51.3229 165.767 51.0756 165.486 50.8957C165.211 50.7159 164.921 50.626 164.618 50.626C164.151 50.626 163.733 50.8086 163.362 51.1739C162.996 51.5336 162.783 52.0366 162.721 52.6829Z" fill="#382617"/>
<rect x="1228.88" y="37.875" width="87.25" height="29.25" rx="14.625" stroke="#ECECEC" stroke-width="1.75"/>
<path d="M1244.03 51.8306C1244.03 51.7034 1244.08 51.5815 1244.17 51.4915C1244.26 51.4016 1244.38 51.3511 1244.51 51.3511H1248.34C1248.47 51.3511 1248.59 51.4016 1248.68 51.4915C1248.77 51.5815 1248.82 51.7034 1248.82 51.8306C1248.82 51.9578 1248.77 52.0798 1248.68 52.1697C1248.59 52.2597 1248.47 52.3102 1248.34 52.3102H1244.51C1244.38 52.3102 1244.26 52.2597 1244.17 52.1697C1244.08 52.0798 1244.03 51.9578 1244.03 51.8306ZM1244.51 54.2284H1248.34C1248.47 54.2284 1248.59 54.1779 1248.68 54.088C1248.77 53.998 1248.82 53.876 1248.82 53.7489C1248.82 53.6217 1248.77 53.4997 1248.68 53.4098C1248.59 53.3198 1248.47 53.2693 1248.34 53.2693H1244.51C1244.38 53.2693 1244.26 53.3198 1244.17 53.4098C1244.08 53.4997 1244.03 53.6217 1244.03 53.7489C1244.03 53.876 1244.08 53.998 1244.17 54.088C1244.26 54.1779 1244.38 54.2284 1244.51 54.2284ZM1252.18 57.1058C1252.18 57.6145 1251.98 58.1024 1251.62 58.4622C1251.26 58.8219 1250.77 59.024 1250.26 59.024H1243.55C1243.04 59.024 1242.55 58.8219 1242.19 58.4622C1241.83 58.1024 1241.63 57.6145 1241.63 57.1058V49.4328C1241.63 49.1785 1241.53 48.9345 1241.35 48.7546C1241.17 48.5748 1240.93 48.4737 1240.67 48.4737C1240.42 48.4737 1240.17 48.5748 1239.99 48.7546C1239.81 48.9345 1239.71 49.1785 1239.71 49.4328C1239.71 49.7769 1240 50.0095 1240.01 50.0119C1240.08 50.073 1240.14 50.1574 1240.17 50.2532C1240.2 50.3491 1240.2 50.4516 1240.17 50.5464C1240.13 50.6412 1240.07 50.7236 1239.99 50.7819C1239.91 50.8402 1239.81 50.8715 1239.71 50.8715C1239.61 50.8716 1239.51 50.8377 1239.43 50.775C1239.36 50.724 1238.75 50.2487 1238.75 49.4328C1238.75 48.9241 1238.96 48.4362 1239.32 48.0764C1239.68 47.7167 1240.16 47.5146 1240.67 47.5146H1248.82C1249.33 47.5146 1249.82 47.7167 1250.18 48.0764C1250.54 48.4362 1250.74 48.9241 1250.74 49.4328V55.6671H1251.22C1251.33 55.6671 1251.43 55.7007 1251.51 55.763C1251.58 55.8146 1252.18 56.2899 1252.18 57.1058ZM1244.04 55.9956C1244.08 55.8989 1244.14 55.815 1244.22 55.756C1244.31 55.697 1244.41 55.6659 1244.51 55.6671H1249.78V49.4328C1249.78 49.1785 1249.68 48.9345 1249.5 48.7546C1249.32 48.5748 1249.08 48.4737 1248.82 48.4737H1242.33C1242.5 48.7649 1242.59 49.0959 1242.59 49.4328V57.1058C1242.59 57.3601 1242.69 57.6041 1242.87 57.784C1243.05 57.9638 1243.29 58.0649 1243.55 58.0649C1243.8 58.0649 1244.05 57.9638 1244.23 57.784C1244.41 57.6041 1244.51 57.3601 1244.51 57.1058C1244.51 56.7617 1244.22 56.5291 1244.22 56.5267C1244.13 56.4682 1244.07 56.3851 1244.04 56.2894C1244.01 56.1938 1244.01 56.0908 1244.04 55.9956ZM1251.22 57.1058C1251.22 56.9281 1251.15 56.7582 1251.03 56.6262H1245.39C1245.44 56.7815 1245.47 56.9432 1245.47 57.1058C1245.47 57.4426 1245.38 57.7735 1245.21 58.0649H1250.26C1250.52 58.0649 1250.76 57.9638 1250.94 57.784C1251.12 57.6041 1251.22 57.3601 1251.22 57.1058Z" fill="#382617"/>
<path d="M1260.72 50.094V51.8305C1261.37 50.6729 1262.03 50.094 1262.71 50.094C1263.02 50.094 1263.28 50.1896 1263.48 50.3806C1263.68 50.5661 1263.78 50.7824 1263.78 51.0297C1263.78 51.2489 1263.71 51.4343 1263.56 51.5861C1263.42 51.7378 1263.24 51.8137 1263.04 51.8137C1262.84 51.8137 1262.62 51.7182 1262.37 51.5271C1262.13 51.3304 1261.95 51.232 1261.83 51.232C1261.73 51.232 1261.62 51.2882 1261.51 51.4006C1261.25 51.631 1260.99 52.0104 1260.72 52.5386V56.2393C1260.72 56.6664 1260.78 56.9896 1260.88 57.2087C1260.95 57.3605 1261.08 57.4869 1261.27 57.5881C1261.46 57.6892 1261.72 57.7398 1262.07 57.7398V58.0433H1258.12V57.7398C1258.51 57.7398 1258.8 57.678 1258.99 57.5543C1259.13 57.4644 1259.23 57.3211 1259.29 57.1244C1259.32 57.0289 1259.33 56.7563 1259.33 56.3067V53.3142C1259.33 52.415 1259.31 51.8811 1259.27 51.7125C1259.24 51.5383 1259.17 51.4119 1259.07 51.3332C1258.97 51.2545 1258.85 51.2152 1258.71 51.2152C1258.53 51.2152 1258.34 51.2573 1258.12 51.3416L1258.03 51.0382L1260.37 50.094H1260.72ZM1265.51 53.2299C1265.5 54.3763 1265.78 55.2755 1266.34 55.9274C1266.91 56.5793 1267.57 56.9053 1268.33 56.9053C1268.83 56.9053 1269.27 56.7676 1269.64 56.4922C1270.02 56.2112 1270.33 55.7335 1270.58 55.0591L1270.85 55.2277C1270.73 55.9977 1270.39 56.7001 1269.82 57.3352C1269.25 57.9646 1268.54 58.2793 1267.68 58.2793C1266.76 58.2793 1265.96 57.9196 1265.3 57.2003C1264.64 56.4753 1264.31 55.5031 1264.31 54.2836C1264.31 52.9629 1264.65 51.9345 1265.32 51.1983C1266 50.4565 1266.86 50.0856 1267.88 50.0856C1268.74 50.0856 1269.45 50.3722 1270.01 50.9454C1270.57 51.513 1270.85 52.2745 1270.85 53.2299H1265.51ZM1265.51 52.741H1269.08C1269.06 52.2464 1269 51.898 1268.91 51.6957C1268.77 51.381 1268.56 51.1337 1268.27 50.9539C1268 50.774 1267.71 50.6841 1267.41 50.6841C1266.94 50.6841 1266.52 50.8667 1266.15 51.232C1265.79 51.5917 1265.57 52.0947 1265.51 52.741ZM1276.87 50.094V52.7241H1276.59C1276.38 51.898 1276.11 51.336 1275.77 51.0382C1275.44 50.7403 1275.01 50.5914 1274.5 50.5914C1274.1 50.5914 1273.79 50.6953 1273.54 50.9033C1273.3 51.1112 1273.18 51.3416 1273.18 51.5945C1273.18 51.9092 1273.27 52.179 1273.45 52.4038C1273.62 52.6342 1273.98 52.8786 1274.51 53.1372L1275.74 53.7357C1276.88 54.292 1277.45 55.0254 1277.45 55.9358C1277.45 56.6383 1277.19 57.2059 1276.65 57.6386C1276.13 58.0658 1275.53 58.2793 1274.88 58.2793C1274.4 58.2793 1273.86 58.195 1273.26 58.0264C1273.07 57.9702 1272.92 57.9421 1272.8 57.9421C1272.67 57.9421 1272.57 58.0152 1272.5 58.1613H1272.22V55.4048H1272.5C1272.66 56.1915 1272.96 56.7844 1273.4 57.1834C1273.84 57.5824 1274.34 57.782 1274.89 57.782C1275.28 57.782 1275.59 57.6696 1275.84 57.4448C1276.08 57.2143 1276.21 56.939 1276.21 56.6186C1276.21 56.2309 1276.07 55.9049 1275.79 55.6408C1275.52 55.3767 1274.98 55.0423 1274.17 54.6377C1273.35 54.233 1272.82 53.8677 1272.57 53.5418C1272.31 53.2215 1272.19 52.8168 1272.19 52.3279C1272.19 51.6929 1272.4 51.1618 1272.84 50.7347C1273.27 50.3076 1273.84 50.094 1274.53 50.094C1274.83 50.094 1275.2 50.1586 1275.63 50.2879C1275.92 50.3722 1276.11 50.4143 1276.21 50.4143C1276.3 50.4143 1276.37 50.3947 1276.42 50.3553C1276.47 50.316 1276.53 50.2289 1276.59 50.094H1276.87ZM1285.38 50.3216V55.0001C1285.38 55.8937 1285.4 56.4416 1285.44 56.6439C1285.48 56.8406 1285.55 56.9783 1285.64 57.057C1285.74 57.1357 1285.85 57.175 1285.97 57.175C1286.14 57.175 1286.34 57.1272 1286.56 57.0317L1286.68 57.3267L1284.37 58.2793H1283.99V56.6439C1283.32 57.3633 1282.82 57.8157 1282.47 58.0011C1282.12 58.1866 1281.75 58.2793 1281.37 58.2793C1280.93 58.2793 1280.56 58.1557 1280.24 57.9084C1279.92 57.6555 1279.7 57.3324 1279.58 56.939C1279.46 56.5456 1279.39 55.9892 1279.39 55.2699V51.8221C1279.39 51.4568 1279.35 51.2039 1279.28 51.0634C1279.2 50.9229 1279.08 50.8162 1278.92 50.7431C1278.77 50.6644 1278.49 50.6279 1278.09 50.6335V50.3216H1280.79V55.4891C1280.79 56.2084 1280.92 56.6805 1281.16 56.9053C1281.42 57.1301 1281.72 57.2424 1282.07 57.2424C1282.32 57.2424 1282.59 57.1666 1282.89 57.0148C1283.2 56.8631 1283.57 56.5737 1283.99 56.1466V51.7715C1283.99 51.3332 1283.91 51.0382 1283.74 50.8864C1283.59 50.7291 1283.25 50.6448 1282.75 50.6335V50.3216H1285.38ZM1289.53 51.7378C1290.1 51.1758 1290.43 50.8527 1290.53 50.7684C1290.78 50.5548 1291.05 50.3891 1291.35 50.271C1291.64 50.153 1291.93 50.094 1292.22 50.094C1292.7 50.094 1293.11 50.2345 1293.46 50.5155C1293.81 50.7965 1294.04 51.2039 1294.16 51.7378C1294.74 51.0634 1295.23 50.6223 1295.63 50.4143C1296.03 50.2008 1296.44 50.094 1296.86 50.094C1297.27 50.094 1297.63 50.2008 1297.95 50.4143C1298.27 50.6223 1298.52 50.9651 1298.71 51.4428C1298.83 51.7687 1298.89 52.2801 1298.89 52.977V56.2983C1298.89 56.7816 1298.93 57.1132 1299 57.293C1299.06 57.4167 1299.16 57.5234 1299.31 57.6134C1299.46 57.6977 1299.71 57.7398 1300.05 57.7398V58.0433H1296.24V57.7398H1296.4C1296.74 57.7398 1296.99 57.6752 1297.18 57.5459C1297.31 57.456 1297.4 57.3127 1297.46 57.116C1297.48 57.0205 1297.49 56.7479 1297.49 56.2983V52.977C1297.49 52.3476 1297.42 51.9036 1297.26 51.6451C1297.05 51.2854 1296.69 51.1056 1296.21 51.1056C1295.91 51.1056 1295.61 51.1815 1295.31 51.3332C1295.01 51.4793 1294.65 51.7547 1294.22 52.1593L1294.2 52.252L1294.22 52.6145V56.2983C1294.22 56.8266 1294.25 57.1553 1294.31 57.2846C1294.37 57.4139 1294.48 57.5234 1294.64 57.6134C1294.81 57.6977 1295.08 57.7398 1295.48 57.7398V58.0433H1291.57V57.7398C1292 57.7398 1292.29 57.6892 1292.45 57.5881C1292.61 57.4869 1292.73 57.3352 1292.79 57.1329C1292.82 57.0373 1292.83 56.7591 1292.83 56.2983V52.977C1292.83 52.3476 1292.74 51.8952 1292.55 51.6198C1292.31 51.2601 1291.96 51.0803 1291.52 51.0803C1291.21 51.0803 1290.91 51.1618 1290.61 51.3248C1290.15 51.572 1289.79 51.8502 1289.53 52.1593V56.2983C1289.53 56.8041 1289.57 57.1329 1289.64 57.2846C1289.71 57.4363 1289.81 57.5515 1289.95 57.6302C1290.09 57.7033 1290.37 57.7398 1290.79 57.7398V58.0433H1286.97V57.7398C1287.33 57.7398 1287.57 57.7033 1287.71 57.6302C1287.85 57.5515 1287.96 57.4307 1288.03 57.2677C1288.11 57.0991 1288.14 56.776 1288.14 56.2983V53.3479C1288.14 52.4993 1288.12 51.9514 1288.07 51.7041C1288.03 51.5186 1287.97 51.3922 1287.88 51.3248C1287.8 51.2517 1287.68 51.2152 1287.54 51.2152C1287.38 51.2152 1287.19 51.2573 1286.97 51.3416L1286.85 51.0382L1289.17 50.094H1289.53V51.7378ZM1301.98 53.2299C1301.97 54.3763 1302.25 55.2755 1302.81 55.9274C1303.37 56.5793 1304.03 56.9053 1304.79 56.9053C1305.3 56.9053 1305.74 56.7676 1306.11 56.4922C1306.48 56.2112 1306.8 55.7335 1307.05 55.0591L1307.31 55.2277C1307.19 55.9977 1306.85 56.7001 1306.28 57.3352C1305.72 57.9646 1305.01 58.2793 1304.15 58.2793C1303.22 58.2793 1302.43 57.9196 1301.77 57.2003C1301.11 56.4753 1300.78 55.5031 1300.78 54.2836C1300.78 52.9629 1301.12 51.9345 1301.79 51.1983C1302.47 50.4565 1303.32 50.0856 1304.35 50.0856C1305.21 50.0856 1305.92 50.3722 1306.48 50.9454C1307.03 51.513 1307.31 52.2745 1307.31 53.2299H1301.98ZM1301.98 52.741H1305.55C1305.52 52.2464 1305.46 51.898 1305.37 51.6957C1305.23 51.381 1305.02 51.1337 1304.74 50.9539C1304.47 50.774 1304.18 50.6841 1303.87 50.6841C1303.41 50.6841 1302.99 50.8667 1302.62 51.232C1302.25 51.5917 1302.04 52.0947 1301.98 52.741Z" fill="#382617"/>
<rect x="1323.88" y="37.875" width="98.25" height="29.25" rx="14.625" stroke="#ECECEC" stroke-width="1.75"/>
<path d="M1339.03 51.8306C1339.03 51.7034 1339.08 51.5815 1339.17 51.4915C1339.26 51.4016 1339.38 51.3511 1339.51 51.3511H1343.34C1343.47 51.3511 1343.59 51.4016 1343.68 51.4915C1343.77 51.5815 1343.82 51.7034 1343.82 51.8306C1343.82 51.9578 1343.77 52.0798 1343.68 52.1697C1343.59 52.2597 1343.47 52.3102 1343.34 52.3102H1339.51C1339.38 52.3102 1339.26 52.2597 1339.17 52.1697C1339.08 52.0798 1339.03 51.9578 1339.03 51.8306ZM1339.51 54.2284H1343.34C1343.47 54.2284 1343.59 54.1779 1343.68 54.088C1343.77 53.998 1343.82 53.876 1343.82 53.7489C1343.82 53.6217 1343.77 53.4997 1343.68 53.4098C1343.59 53.3198 1343.47 53.2693 1343.34 53.2693H1339.51C1339.38 53.2693 1339.26 53.3198 1339.17 53.4098C1339.08 53.4997 1339.03 53.6217 1339.03 53.7489C1339.03 53.876 1339.08 53.998 1339.17 54.088C1339.26 54.1779 1339.38 54.2284 1339.51 54.2284ZM1347.18 57.1058C1347.18 57.6145 1346.98 58.1024 1346.62 58.4622C1346.26 58.8219 1345.77 59.024 1345.26 59.024H1338.55C1338.04 59.024 1337.55 58.8219 1337.19 58.4622C1336.83 58.1024 1336.63 57.6145 1336.63 57.1058V49.4328C1336.63 49.1785 1336.53 48.9345 1336.35 48.7546C1336.17 48.5748 1335.93 48.4737 1335.67 48.4737C1335.42 48.4737 1335.17 48.5748 1334.99 48.7546C1334.81 48.9345 1334.71 49.1785 1334.71 49.4328C1334.71 49.7769 1335 50.0095 1335.01 50.0119C1335.08 50.073 1335.14 50.1574 1335.17 50.2532C1335.2 50.3491 1335.2 50.4516 1335.17 50.5464C1335.13 50.6412 1335.07 50.7236 1334.99 50.7819C1334.91 50.8402 1334.81 50.8715 1334.71 50.8715C1334.61 50.8716 1334.51 50.8377 1334.43 50.775C1334.36 50.724 1333.75 50.2487 1333.75 49.4328C1333.75 48.9241 1333.96 48.4362 1334.32 48.0764C1334.68 47.7167 1335.16 47.5146 1335.67 47.5146H1343.82C1344.33 47.5146 1344.82 47.7167 1345.18 48.0764C1345.54 48.4362 1345.74 48.9241 1345.74 49.4328V55.6671H1346.22C1346.33 55.6671 1346.43 55.7007 1346.51 55.763C1346.58 55.8146 1347.18 56.2899 1347.18 57.1058ZM1339.04 55.9956C1339.08 55.8989 1339.14 55.815 1339.22 55.756C1339.31 55.697 1339.41 55.6659 1339.51 55.6671H1344.78V49.4328C1344.78 49.1785 1344.68 48.9345 1344.5 48.7546C1344.32 48.5748 1344.08 48.4737 1343.82 48.4737H1337.33C1337.5 48.7649 1337.59 49.0959 1337.59 49.4328V57.1058C1337.59 57.3601 1337.69 57.6041 1337.87 57.784C1338.05 57.9638 1338.29 58.0649 1338.55 58.0649C1338.8 58.0649 1339.05 57.9638 1339.23 57.784C1339.41 57.6041 1339.51 57.3601 1339.51 57.1058C1339.51 56.7617 1339.22 56.5291 1339.22 56.5267C1339.13 56.4682 1339.07 56.3851 1339.04 56.2894C1339.01 56.1938 1339.01 56.0908 1339.04 55.9956ZM1346.22 57.1058C1346.22 56.9281 1346.15 56.7582 1346.03 56.6262H1340.39C1340.44 56.7815 1340.47 56.9432 1340.47 57.1058C1340.47 57.4426 1340.38 57.7735 1340.21 58.0649H1345.26C1345.52 58.0649 1345.76 57.9638 1345.94 57.784C1346.12 57.6041 1346.22 57.3601 1346.22 57.1058Z" fill="#382617"/>
<path d="M1357.84 45.9634V56.2055C1357.84 56.6888 1357.87 57.0092 1357.94 57.1665C1358.01 57.3239 1358.12 57.4447 1358.27 57.529C1358.41 57.6077 1358.69 57.647 1359.09 57.647V57.9505H1355.3V57.647C1355.65 57.647 1355.9 57.6105 1356.03 57.5374C1356.15 57.4644 1356.26 57.3436 1356.33 57.175C1356.4 57.0064 1356.44 56.6832 1356.44 56.2055V49.192C1356.44 48.3209 1356.42 47.787 1356.38 47.5903C1356.34 47.388 1356.28 47.2503 1356.19 47.1773C1356.1 47.1042 1355.99 47.0677 1355.86 47.0677C1355.71 47.0677 1355.52 47.1126 1355.3 47.2026L1355.16 46.9075L1357.46 45.9634H1357.84ZM1361.95 45.9634C1362.19 45.9634 1362.39 46.0477 1362.55 46.2163C1362.72 46.3793 1362.8 46.5788 1362.8 46.8148C1362.8 47.0508 1362.72 47.2531 1362.55 47.4217C1362.39 47.5903 1362.19 47.6746 1361.95 47.6746C1361.72 47.6746 1361.51 47.5903 1361.34 47.4217C1361.18 47.2531 1361.09 47.0508 1361.09 46.8148C1361.09 46.5788 1361.17 46.3793 1361.34 46.2163C1361.5 46.0477 1361.71 45.9634 1361.95 45.9634ZM1362.65 50.0012V56.2055C1362.65 56.6888 1362.68 57.012 1362.75 57.175C1362.83 57.3323 1362.93 57.4503 1363.06 57.529C1363.2 57.6077 1363.46 57.647 1363.82 57.647V57.9505H1360.07V57.647C1360.45 57.647 1360.7 57.6105 1360.83 57.5374C1360.96 57.4644 1361.06 57.3436 1361.13 57.175C1361.21 57.0064 1361.25 56.6832 1361.25 56.2055V53.2298C1361.25 52.3925 1361.23 51.8502 1361.18 51.6029C1361.14 51.4231 1361.07 51.2994 1360.99 51.232C1360.91 51.1589 1360.79 51.1224 1360.64 51.1224C1360.49 51.1224 1360.3 51.1646 1360.07 51.2488L1359.95 50.9454L1362.28 50.0012H1362.65ZM1367.04 51.6366C1367.95 50.5464 1368.81 50.0012 1369.63 50.0012C1370.05 50.0012 1370.41 50.108 1370.72 50.3216C1371.02 50.5295 1371.26 50.8751 1371.44 51.3584C1371.57 51.6956 1371.63 52.2126 1371.63 52.9095V56.2055C1371.63 56.6945 1371.67 57.026 1371.75 57.2003C1371.81 57.3407 1371.91 57.4503 1372.04 57.529C1372.18 57.6077 1372.44 57.647 1372.81 57.647V57.9505H1368.99V57.647H1369.15C1369.51 57.647 1369.76 57.5936 1369.9 57.4869C1370.05 57.3745 1370.15 57.2115 1370.2 56.9979C1370.23 56.9136 1370.24 56.6495 1370.24 56.2055V53.0444C1370.24 52.3419 1370.14 51.8333 1369.96 51.5186C1369.78 51.1983 1369.47 51.0381 1369.04 51.0381C1368.37 51.0381 1367.71 51.4034 1367.04 52.134V56.2055C1367.04 56.7282 1367.07 57.0513 1367.14 57.175C1367.21 57.3379 1367.32 57.4588 1367.46 57.5374C1367.6 57.6105 1367.88 57.647 1368.3 57.647V57.9505H1364.48V57.647H1364.65C1365.04 57.647 1365.31 57.5487 1365.44 57.352C1365.58 57.1497 1365.65 56.7675 1365.65 56.2055V53.3394C1365.65 52.4122 1365.63 51.8474 1365.58 51.645C1365.55 51.4427 1365.48 51.305 1365.39 51.232C1365.31 51.1589 1365.19 51.1224 1365.04 51.1224C1364.89 51.1224 1364.7 51.1646 1364.48 51.2488L1364.35 50.9454L1366.68 50.0012H1367.04V51.6366ZM1375.71 45.9634V53.6513L1377.67 51.8558C1378.09 51.4736 1378.33 51.232 1378.4 51.1308C1378.44 51.0634 1378.47 50.996 1378.47 50.9285C1378.47 50.8161 1378.42 50.7206 1378.32 50.6419C1378.23 50.5576 1378.08 50.5098 1377.87 50.4986V50.2288H1381.22V50.4986C1380.76 50.5098 1380.38 50.5801 1380.07 50.7093C1379.76 50.8386 1379.43 51.069 1379.06 51.4006L1377.08 53.2298L1379.06 55.7335C1379.61 56.4247 1379.99 56.8631 1380.18 57.0485C1380.45 57.3126 1380.68 57.4841 1380.88 57.5627C1381.02 57.6189 1381.27 57.647 1381.62 57.647V57.9505H1377.87V57.647C1378.08 57.6414 1378.22 57.6105 1378.3 57.5543C1378.38 57.4925 1378.41 57.4082 1378.41 57.3014C1378.41 57.1722 1378.3 56.9642 1378.08 56.6776L1375.71 53.6513V56.214C1375.71 56.7141 1375.74 57.0429 1375.81 57.2003C1375.88 57.3576 1375.98 57.47 1376.11 57.5374C1376.24 57.6049 1376.52 57.6414 1376.96 57.647V57.9505H1373.03V57.647C1373.42 57.647 1373.72 57.5993 1373.91 57.5037C1374.03 57.4419 1374.12 57.3464 1374.18 57.2171C1374.27 57.0317 1374.31 56.7113 1374.31 56.2561V49.2257C1374.31 48.3322 1374.29 47.787 1374.25 47.5903C1374.21 47.388 1374.15 47.2503 1374.06 47.1773C1373.97 47.0986 1373.85 47.0593 1373.7 47.0593C1373.58 47.0593 1373.41 47.107 1373.17 47.2026L1373.03 46.9075L1375.32 45.9634H1375.71ZM1383.35 53.1371C1383.35 54.2836 1383.63 55.1827 1384.19 55.8346C1384.75 56.4865 1385.41 56.8125 1386.17 56.8125C1386.68 56.8125 1387.11 56.6748 1387.48 56.3994C1387.86 56.1184 1388.18 55.6407 1388.43 54.9664L1388.69 55.135C1388.57 55.9049 1388.23 56.6074 1387.66 57.2424C1387.09 57.8718 1386.38 58.1865 1385.53 58.1865C1384.6 58.1865 1383.81 57.8269 1383.14 57.1075C1382.49 56.3826 1382.16 55.4103 1382.16 54.1908C1382.16 52.8702 1382.49 51.8417 1383.17 51.1055C1383.85 50.3637 1384.7 49.9928 1385.72 49.9928C1386.59 49.9928 1387.3 50.2794 1387.86 50.8526C1388.41 51.4203 1388.69 52.1817 1388.69 53.1371H1383.35ZM1383.35 52.6482H1386.93C1386.9 52.1536 1386.84 51.8052 1386.75 51.6029C1386.61 51.2882 1386.4 51.0409 1386.12 50.8611C1385.84 50.6812 1385.55 50.5913 1385.25 50.5913C1384.78 50.5913 1384.37 50.774 1384 51.1393C1383.63 51.4989 1383.42 52.0019 1383.35 52.6482ZM1395.18 57.0822C1394.8 57.4756 1394.44 57.7594 1394.08 57.9336C1393.72 58.1022 1393.33 58.1865 1392.91 58.1865C1392.07 58.1865 1391.33 57.8353 1390.71 57.1328C1390.08 56.4247 1389.76 55.5171 1389.76 54.41C1389.76 53.3029 1390.11 52.2913 1390.81 51.3753C1391.5 50.4536 1392.4 49.9928 1393.5 49.9928C1394.18 49.9928 1394.74 50.2092 1395.18 50.6419V49.2173C1395.18 48.335 1395.16 47.7926 1395.11 47.5903C1395.07 47.388 1395.01 47.2503 1394.92 47.1773C1394.83 47.1042 1394.72 47.0677 1394.58 47.0677C1394.44 47.0677 1394.24 47.1126 1394 47.2026L1393.89 46.9075L1396.19 45.9634H1396.57V54.8905C1396.57 55.7953 1396.59 56.3488 1396.63 56.5512C1396.68 56.7479 1396.74 56.8855 1396.83 56.9642C1396.93 57.0429 1397.04 57.0822 1397.16 57.0822C1397.31 57.0822 1397.52 57.0345 1397.77 56.9389L1397.86 57.234L1395.57 58.1865H1395.18V57.0822ZM1395.18 56.4922V52.5133C1395.15 52.1312 1395.05 51.7827 1394.88 51.468C1394.71 51.1533 1394.48 50.9173 1394.2 50.7599C1393.93 50.5969 1393.66 50.5155 1393.39 50.5155C1392.9 50.5155 1392.46 50.7374 1392.07 51.1814C1391.56 51.7659 1391.3 52.6201 1391.3 53.7441C1391.3 54.8793 1391.55 55.7503 1392.05 56.3573C1392.54 56.9586 1393.09 57.2593 1393.7 57.2593C1394.21 57.2593 1394.7 57.0036 1395.18 56.4922ZM1400.32 45.9634C1400.56 45.9634 1400.76 46.0477 1400.92 46.2163C1401.09 46.3793 1401.17 46.5788 1401.17 46.8148C1401.17 47.0508 1401.09 47.2531 1400.92 47.4217C1400.76 47.5903 1400.56 47.6746 1400.32 47.6746C1400.09 47.6746 1399.89 47.5903 1399.72 47.4217C1399.55 47.2531 1399.46 47.0508 1399.46 46.8148C1399.46 46.5788 1399.55 46.3793 1399.71 46.2163C1399.88 46.0477 1400.08 45.9634 1400.32 45.9634ZM1401.02 50.0012V56.2055C1401.02 56.6888 1401.06 57.012 1401.12 57.175C1401.2 57.3323 1401.3 57.4503 1401.44 57.529C1401.58 57.6077 1401.83 57.647 1402.19 57.647V57.9505H1398.44V57.647C1398.82 57.647 1399.07 57.6105 1399.2 57.5374C1399.33 57.4644 1399.43 57.3436 1399.51 57.175C1399.58 57.0064 1399.62 56.6832 1399.62 56.2055V53.2298C1399.62 52.3925 1399.6 51.8502 1399.55 51.6029C1399.51 51.4231 1399.45 51.2994 1399.36 51.232C1399.28 51.1589 1399.16 51.1224 1399.02 51.1224C1398.86 51.1224 1398.67 51.1646 1398.44 51.2488L1398.33 50.9454L1400.65 50.0012H1401.02ZM1405.42 51.6366C1406.32 50.5464 1407.18 50.0012 1408 50.0012C1408.42 50.0012 1408.79 50.108 1409.09 50.3216C1409.39 50.5295 1409.64 50.8751 1409.82 51.3584C1409.94 51.6956 1410 52.2126 1410 52.9095V56.2055C1410 56.6945 1410.04 57.026 1410.12 57.2003C1410.18 57.3407 1410.28 57.4503 1410.41 57.529C1410.55 57.6077 1410.81 57.647 1411.18 57.647V57.9505H1407.36V57.647H1407.52C1407.88 57.647 1408.13 57.5936 1408.27 57.4869C1408.42 57.3745 1408.52 57.2115 1408.58 56.9979C1408.6 56.9136 1408.61 56.6495 1408.61 56.2055V53.0444C1408.61 52.3419 1408.52 51.8333 1408.33 51.5186C1408.15 51.1983 1407.85 51.0381 1407.41 51.0381C1406.74 51.0381 1406.08 51.4034 1405.42 52.134V56.2055C1405.42 56.7282 1405.45 57.0513 1405.51 57.175C1405.59 57.3379 1405.69 57.4588 1405.83 57.5374C1405.97 57.6105 1406.25 57.647 1406.67 57.647V57.9505H1402.85V57.647H1403.02C1403.41 57.647 1403.68 57.5487 1403.81 57.352C1403.95 57.1497 1404.02 56.7675 1404.02 56.2055V53.3394C1404.02 52.4122 1404 51.8474 1403.96 51.645C1403.92 51.4427 1403.85 51.305 1403.76 51.232C1403.68 51.1589 1403.56 51.1224 1403.42 51.1224C1403.26 51.1224 1403.07 51.1646 1402.85 51.2488L1402.73 50.9454L1405.05 50.0012H1405.42V51.6366Z" fill="#382617"/>
</svg>
