<svg width="373" height="41" viewBox="0 0 373 41" fill="none" xmlns="http://www.w3.org/2000/svg">
<rect width="373" height="41" rx="20.5" fill="#F8F8F8"/>
<rect x="7" y="5" width="75" height="31" rx="15.5" fill="#717B08"/>
<path d="M25.9575 18.9835L25.7657 18.8052C25.5549 18.6108 25.4493 18.5132 25.394 18.3784C25.3381 18.2435 25.3381 18.0871 25.3388 17.7738L25.3387 17.489C25.3389 16.3864 25.3396 15.8352 25.0127 15.6522M29.3154 24.4315C29.4191 24.3221 29.5541 24.263 29.826 24.1452L30.0727 24.0371C31.0283 23.6225 31.5062 23.4146 31.5858 23.003C31.6662 22.591 31.2957 22.2485 30.5544 21.5622L30.3631 21.3847C30.1523 21.1902 30.0474 21.0921 29.9914 20.9579C29.9353 20.8236 29.9354 20.6666 29.9355 20.3531L29.9354 20.0683C29.9362 18.9658 29.9363 18.4145 29.6101 18.2316L25.0127 15.6522C24.686 15.4685 24.2491 15.7746 23.3752 16.3869L23.1487 16.5453C22.9008 16.7195 22.7769 16.8066 22.6385 16.833C22.5008 16.8589 22.3655 16.8215 22.0939 16.7452L21.8466 16.6765C20.8913 16.4108 20.414 16.2774 20.132 16.576C19.85 16.8746 19.9507 17.407 20.1513 18.4704L20.2037 18.7459C20.2603 19.0484 20.2889 19.1998 20.2596 19.3506C20.2303 19.5015 20.1465 19.6345 19.9788 19.9011L19.8258 20.1437C19.2344 21.0818 18.9394 21.5507 19.0917 21.9179C19.2438 22.2857 19.7429 22.3088 20.7417 22.3545L20.9997 22.3658C21.2835 22.3785 21.4246 22.3853 21.5446 22.4524C21.6645 22.5194 21.7478 22.6399 21.9161 22.8798L22.0683 23.0991C22.6586 23.9443 23.3299 24.2963 23.3299 24.2963M30.3637 21.3848L25.957 18.9828C26.6985 19.6684 27.0695 20.0117 26.9892 20.4231C26.909 20.8345 26.431 21.0424 25.4752 21.4583L25.2286 21.5657C24.9568 21.6835 24.8211 21.7425 24.7181 21.8521L29.3154 24.4315M23.3299 24.2963C23.7056 24.2249 23.9136 23.707 24.3298 22.6707L24.4373 22.4025C24.5554 22.1081 24.6144 21.9615 24.7174 21.852M23.3299 24.2963L27.1031 26.4132C27.5025 26.6373 27.7025 26.7497 27.9541 26.6741C28.205 26.5983 28.3107 26.4216 28.5214 26.0686C28.6581 25.8398 28.8008 25.5661 28.927 25.2508L29.0351 24.9827C29.1534 24.6877 29.2125 24.5405 29.3154 24.4315" stroke="white" stroke-width="0.761616"/>
<path d="M36.1113 18.3216H39.3483V18.6335C39.0504 18.656 38.8537 18.7094 38.7582 18.7937C38.6683 18.878 38.6233 18.9988 38.6233 19.1562C38.6233 19.3304 38.6711 19.5411 38.7666 19.7884L40.4189 24.2309L42.0795 20.6145L41.6412 19.4765C41.5063 19.1393 41.3293 18.9061 41.1101 18.7768C40.9865 18.6982 40.7561 18.6504 40.4189 18.6335V18.3216H44.0942V18.6335C43.6896 18.6504 43.403 18.7234 43.2344 18.8527C43.122 18.9426 43.0658 19.0859 43.0658 19.2826C43.0658 19.395 43.0883 19.5102 43.1333 19.6282L44.8866 24.0623L46.5136 19.7884C46.626 19.4849 46.6822 19.2433 46.6822 19.0634C46.6822 18.9567 46.626 18.8611 46.5136 18.7768C46.4068 18.6925 46.1933 18.6448 45.8729 18.6335V18.3216H48.3091V18.6335C47.8202 18.7066 47.4605 19.0382 47.2301 19.6282L44.6506 26.2793H44.305L42.3746 21.3479L40.1238 26.2793H39.8119L37.3336 19.7884C37.1706 19.3782 37.0104 19.1028 36.8531 18.9623C36.6957 18.8162 36.4485 18.7066 36.1113 18.6335V18.3216ZM52.7937 18.094C53.9627 18.094 54.9012 18.538 55.6093 19.4259C56.2106 20.1846 56.5113 21.0557 56.5113 22.0391C56.5113 22.7304 56.3455 23.4301 56.0139 24.1382C55.6823 24.8462 55.2243 25.3801 54.6399 25.7398C54.061 26.0995 53.4147 26.2793 52.701 26.2793C51.5377 26.2793 50.6133 25.8157 49.9276 24.8884C49.3488 24.1072 49.0594 23.2305 49.0594 22.2583C49.0594 21.5502 49.2336 20.8477 49.582 20.1509C49.9361 19.4484 50.3997 18.9314 50.9729 18.5998C51.5461 18.2626 52.1531 18.094 52.7937 18.094ZM52.5324 18.642C52.2346 18.642 51.9339 18.7319 51.6304 18.9117C51.3326 19.0859 51.0909 19.395 50.9055 19.839C50.72 20.2829 50.6273 20.8534 50.6273 21.5502C50.6273 22.6742 50.8493 23.6436 51.2933 24.4585C51.7428 25.2734 52.3329 25.6808 53.0635 25.6808C53.6086 25.6808 54.0582 25.456 54.4123 25.0064C54.7663 24.5568 54.9433 23.7841 54.9433 22.6882C54.9433 21.317 54.6483 20.238 54.0582 19.4512C53.6592 18.9117 53.1506 18.642 52.5324 18.642ZM59.9085 18.094V19.8305C60.5547 18.6729 61.2179 18.094 61.8979 18.094C62.207 18.094 62.4627 18.1896 62.665 18.3806C62.8673 18.5661 62.9685 18.7824 62.9685 19.0297C62.9685 19.2489 62.8954 19.4343 62.7493 19.5861C62.6032 19.7378 62.429 19.8137 62.2266 19.8137C62.0299 19.8137 61.808 19.7182 61.5607 19.5271C61.319 19.3304 61.1392 19.232 61.0212 19.232C60.92 19.232 60.8104 19.2882 60.6924 19.4006C60.4395 19.631 60.1782 20.0104 59.9085 20.5386V24.2393C59.9085 24.6664 59.9618 24.9896 60.0686 25.2087C60.1417 25.3605 60.2709 25.4869 60.4564 25.5881C60.6418 25.6892 60.9088 25.7398 61.2572 25.7398V26.0433H57.3037V25.7398C57.6971 25.7398 57.9893 25.678 58.1804 25.5543C58.3209 25.4644 58.4192 25.3211 58.4754 25.1244C58.5035 25.0289 58.5175 24.7563 58.5175 24.3067V21.3142C58.5175 20.415 58.4979 19.8811 58.4585 19.7125C58.4248 19.5383 58.3574 19.4119 58.2562 19.3332C58.1607 19.2545 58.0399 19.2152 57.8937 19.2152C57.7195 19.2152 57.5228 19.2573 57.3037 19.3416L57.2194 19.0382L59.5544 18.094H59.9085ZM65.6828 14.0562V21.7441L67.647 19.9486C68.0628 19.5664 68.3045 19.3248 68.3719 19.2236C68.4169 19.1562 68.4394 19.0887 68.4394 19.0213C68.4394 18.9089 68.3916 18.8134 68.2961 18.7347C68.2061 18.6504 68.0544 18.6026 67.8409 18.5914V18.3216H71.1959V18.5914C70.7351 18.6026 70.3501 18.6729 70.041 18.8021C69.7375 18.9314 69.4032 19.1618 69.0379 19.4934L67.0569 21.3226L69.0379 23.8262C69.5886 24.5175 69.9595 24.9558 70.1506 25.1413C70.4204 25.4054 70.6564 25.5768 70.8587 25.6555C70.9992 25.7117 71.2437 25.7398 71.5921 25.7398V26.0433H67.8409V25.7398C68.0544 25.7342 68.1977 25.7033 68.2708 25.6471C68.3494 25.5853 68.3888 25.501 68.3888 25.3942C68.3888 25.2649 68.2764 25.057 68.0516 24.7704L65.6828 21.7441V24.3067C65.6828 24.8069 65.7166 25.1357 65.784 25.293C65.8571 25.4504 65.9582 25.5628 66.0875 25.6302C66.2167 25.6977 66.4977 25.7342 66.9304 25.7398V26.0433H63.0022V25.7398C63.3956 25.7398 63.6906 25.692 63.8873 25.5965C64.0053 25.5347 64.0952 25.4391 64.1571 25.3099C64.2414 25.1244 64.2835 24.8041 64.2835 24.3489V17.3185C64.2835 16.4249 64.2638 15.8798 64.2245 15.6831C64.1852 15.4808 64.1205 15.3431 64.0306 15.2701C63.9407 15.1914 63.8227 15.152 63.6766 15.152C63.5585 15.152 63.3815 15.1998 63.1455 15.2953L63.0022 15.0003L65.2951 14.0562H65.6828Z" fill="white"/>
<rect x="249" y="5" width="115" height="31" rx="15.5" fill="white"/>
<path d="M269.18 21.896H264.996L265.124 21.7639L266.218 20.6366C266.66 20.8659 267.147 20.9881 267.642 20.994C268.14 20.9953 268.629 20.8549 269.054 20.5882C270.348 19.7812 271.042 17.9132 270.909 15.5912C270.903 15.4812 270.858 15.3774 270.782 15.2995C270.706 15.2216 270.606 15.175 270.499 15.1685C268.245 15.0325 266.432 15.7463 265.648 17.0793C265.138 17.9475 265.125 18.9962 265.601 20.0015L264.816 20.8102L264.15 20.124C264.477 19.3794 264.454 18.6067 264.074 17.9616C263.481 16.9506 262.121 16.4116 260.437 16.5134C260.33 16.5199 260.23 16.5665 260.154 16.6442C260.079 16.722 260.034 16.8256 260.027 16.9354C259.928 18.6702 260.452 20.0707 261.434 20.6821C261.762 20.8888 262.14 20.9977 262.525 20.9968C262.874 20.9932 263.218 20.913 263.535 20.7613L264.198 21.4464L263.762 21.896H261.324C261.209 21.896 261.098 21.9433 261.016 22.0276C260.934 22.112 260.888 22.2263 260.888 22.3455C260.888 22.4648 260.934 22.5791 261.016 22.6634C261.098 22.7478 261.209 22.7951 261.324 22.7951H261.848L262.568 26.1372C262.61 26.3374 262.718 26.5165 262.873 26.6447C263.028 26.7729 263.221 26.8423 263.42 26.8413H267.085C267.283 26.8423 267.477 26.7729 267.632 26.6447C267.787 26.5165 267.894 26.3374 267.937 26.1372L268.657 22.7951H269.18C269.296 22.7951 269.407 22.7478 269.488 22.6634C269.57 22.5791 269.616 22.4648 269.616 22.3455C269.616 22.2263 269.57 22.112 269.488 22.0276C269.407 21.9433 269.296 21.896 269.18 21.896ZM266.398 17.5451C266.968 16.5752 268.32 16.0278 270.053 16.052C270.075 17.8396 269.545 19.2316 268.603 19.8172C267.975 20.2106 267.218 20.1847 266.46 19.7509C266.039 18.9737 266.016 18.192 266.398 17.5451ZM263.294 19.879C262.792 20.1561 262.295 20.169 261.885 19.9127C261.258 19.521 260.896 18.5977 260.888 17.4002C262.051 17.4086 262.947 17.7812 263.327 18.4274C263.576 18.85 263.561 19.362 263.294 19.879ZM267.085 25.9422H263.42L262.743 22.7951H267.762L267.085 25.9422Z" fill="#382617"/>
<path d="M279.544 19.6797C280.106 19.1177 280.437 18.7946 280.538 18.7103C280.791 18.4967 281.064 18.3309 281.356 18.2129C281.648 18.0949 281.938 18.0359 282.224 18.0359C282.708 18.0359 283.124 18.1764 283.472 18.4574C283.82 18.7384 284.054 19.1458 284.172 19.6797C284.751 19.0053 285.239 18.5641 285.638 18.3562C286.037 18.1427 286.448 18.0359 286.869 18.0359C287.279 18.0359 287.642 18.1427 287.957 18.3562C288.277 18.5641 288.53 18.907 288.715 19.3846C288.839 19.7106 288.901 20.222 288.901 20.9189V24.2402C288.901 24.7235 288.937 25.0551 289.01 25.2349C289.067 25.3585 289.171 25.4653 289.322 25.5552C289.474 25.6395 289.721 25.6817 290.064 25.6817V25.9851H286.254V25.6817H286.414C286.746 25.6817 287.004 25.617 287.19 25.4878C287.319 25.3979 287.412 25.2546 287.468 25.0579C287.49 24.9623 287.501 24.6898 287.501 24.2402V20.9189C287.501 20.2894 287.426 19.8455 287.274 19.587C287.055 19.2273 286.703 19.0475 286.22 19.0475C285.922 19.0475 285.622 19.1233 285.318 19.2751C285.02 19.4212 284.658 19.6965 284.231 20.1012L284.214 20.1939L284.231 20.5564V24.2402C284.231 24.7684 284.259 25.0972 284.315 25.2265C284.377 25.3557 284.489 25.4653 284.652 25.5552C284.815 25.6395 285.093 25.6817 285.487 25.6817V25.9851H281.584V25.6817C282.011 25.6817 282.303 25.6311 282.46 25.5299C282.623 25.4288 282.736 25.277 282.798 25.0747C282.826 24.9792 282.84 24.701 282.84 24.2402V20.9189C282.84 20.2894 282.747 19.837 282.562 19.5617C282.314 19.202 281.969 19.0222 281.525 19.0222C281.221 19.0222 280.921 19.1037 280.623 19.2666C280.156 19.5139 279.797 19.7921 279.544 20.1012V24.2402C279.544 24.746 279.577 25.0747 279.645 25.2265C279.718 25.3782 279.822 25.4934 279.957 25.5721C280.097 25.6451 280.378 25.6817 280.8 25.6817V25.9851H276.981V25.6817C277.335 25.6817 277.582 25.6451 277.723 25.5721C277.863 25.4934 277.97 25.3726 278.043 25.2096C278.116 25.041 278.153 24.7179 278.153 24.2402V21.2898C278.153 20.4412 278.128 19.8932 278.077 19.646C278.038 19.4605 277.976 19.3341 277.892 19.2666C277.807 19.1936 277.692 19.157 277.546 19.157C277.389 19.157 277.2 19.1992 276.981 19.2835L276.855 18.98L279.181 18.0359H279.544V19.6797ZM292.652 13.998C292.888 13.998 293.088 14.0823 293.251 14.2509C293.419 14.4139 293.503 14.6134 293.503 14.8494C293.503 15.0855 293.419 15.2878 293.251 15.4564C293.088 15.625 292.888 15.7093 292.652 15.7093C292.416 15.7093 292.214 15.625 292.045 15.4564C291.876 15.2878 291.792 15.0855 291.792 14.8494C291.792 14.6134 291.874 14.4139 292.037 14.2509C292.205 14.0823 292.41 13.998 292.652 13.998ZM293.352 18.0359V24.2402C293.352 24.7235 293.385 25.0466 293.453 25.2096C293.526 25.367 293.63 25.485 293.765 25.5637C293.905 25.6423 294.158 25.6817 294.523 25.6817V25.9851H290.772V25.6817C291.149 25.6817 291.402 25.6451 291.531 25.5721C291.66 25.499 291.761 25.3782 291.834 25.2096C291.913 25.041 291.952 24.7179 291.952 24.2402V21.2645C291.952 20.4271 291.927 19.8848 291.876 19.6375C291.837 19.4577 291.775 19.3341 291.691 19.2666C291.607 19.1936 291.492 19.157 291.345 19.157C291.188 19.157 290.997 19.1992 290.772 19.2835L290.654 18.98L292.981 18.0359H293.352ZM300.483 18.0359V20.666H300.205C299.992 19.8398 299.716 19.2779 299.379 18.98C299.047 18.6822 298.623 18.5332 298.106 18.5332C297.713 18.5332 297.395 18.6372 297.153 18.8451C296.912 19.0531 296.791 19.2835 296.791 19.5364C296.791 19.8511 296.881 20.1208 297.061 20.3456C297.235 20.576 297.589 20.8205 298.123 21.079L299.354 21.6775C300.494 22.2339 301.065 22.9673 301.065 23.8777C301.065 24.5802 300.798 25.1478 300.264 25.5805C299.736 26.0076 299.143 26.2212 298.485 26.2212C298.013 26.2212 297.474 26.1369 296.867 25.9683C296.681 25.9121 296.53 25.884 296.412 25.884C296.282 25.884 296.181 25.957 296.108 26.1032H295.83V23.3466H296.108C296.266 24.1334 296.566 24.7263 297.01 25.1253C297.454 25.5243 297.952 25.7238 298.502 25.7238C298.89 25.7238 299.205 25.6114 299.446 25.3866C299.694 25.1562 299.817 24.8808 299.817 24.5605C299.817 24.1727 299.68 23.8468 299.404 23.5827C299.134 23.3185 298.592 22.9841 297.777 22.5795C296.962 22.1749 296.429 21.8096 296.176 21.4837C295.923 21.1633 295.796 20.7587 295.796 20.2698C295.796 19.6347 296.013 19.1037 296.445 18.6765C296.884 18.2494 297.449 18.0359 298.14 18.0359C298.443 18.0359 298.811 18.1005 299.244 18.2298C299.531 18.3141 299.722 18.3562 299.817 18.3562C299.907 18.3562 299.977 18.3365 300.028 18.2972C300.079 18.2579 300.138 18.1708 300.205 18.0359H300.483ZM308.778 23.0516C308.57 24.0688 308.163 24.8527 307.556 25.4035C306.949 25.9486 306.277 26.2212 305.541 26.2212C304.664 26.2212 303.9 25.8531 303.248 25.1169C302.596 24.3807 302.27 23.386 302.27 22.1327C302.27 20.9189 302.63 19.9326 303.349 19.1739C304.074 18.4152 304.943 18.0359 305.954 18.0359C306.713 18.0359 307.337 18.2382 307.826 18.6428C308.314 19.0418 308.559 19.4577 308.559 19.8904C308.559 20.104 308.489 20.2782 308.348 20.4131C308.213 20.5423 308.022 20.607 307.775 20.607C307.443 20.607 307.193 20.5002 307.025 20.2866C306.929 20.1686 306.865 19.9438 306.831 19.6122C306.803 19.2807 306.69 19.0278 306.494 18.8536C306.297 18.685 306.024 18.6007 305.676 18.6007C305.114 18.6007 304.662 18.8086 304.319 19.2245C303.864 19.7752 303.636 20.503 303.636 21.4078C303.636 22.3294 303.861 23.1443 304.31 23.8524C304.766 24.5549 305.378 24.9061 306.148 24.9061C306.699 24.9061 307.193 24.7179 307.632 24.3413C307.941 24.0828 308.241 23.6136 308.534 22.9336L308.778 23.0516ZM311.189 21.1717C311.183 22.3182 311.462 23.2174 312.024 23.8693C312.586 24.5212 313.246 24.8471 314.005 24.8471C314.51 24.8471 314.949 24.7094 315.32 24.4341C315.696 24.1531 316.011 23.6754 316.264 23.001L316.525 23.1696C316.407 23.9395 316.064 24.642 315.497 25.277C314.929 25.9065 314.218 26.2212 313.364 26.2212C312.437 26.2212 311.641 25.8615 310.978 25.1422C310.321 24.4172 309.992 23.445 309.992 22.2255C309.992 20.9048 310.329 19.8764 311.004 19.1402C311.684 18.3984 312.535 18.0275 313.558 18.0275C314.423 18.0275 315.134 18.3141 315.691 18.8873C316.247 19.4549 316.525 20.2164 316.525 21.1717H311.189ZM311.189 20.6828H314.763C314.735 20.1883 314.676 19.8398 314.586 19.6375C314.446 19.3228 314.235 19.0756 313.954 18.8957C313.679 18.7159 313.389 18.626 313.086 18.626C312.619 18.626 312.201 18.8086 311.83 19.1739C311.464 19.5336 311.251 20.0365 311.189 20.6828ZM320.217 13.998V24.2402C320.217 24.7235 320.251 25.0438 320.318 25.2012C320.392 25.3585 320.501 25.4794 320.647 25.5637C320.793 25.6423 321.066 25.6817 321.465 25.6817V25.9851H317.68V25.6817C318.034 25.6817 318.276 25.6451 318.405 25.5721C318.534 25.499 318.635 25.3782 318.708 25.2096C318.781 25.041 318.818 24.7179 318.818 24.2402V17.2266C318.818 16.3556 318.798 15.8217 318.759 15.625C318.72 15.4227 318.655 15.285 318.565 15.2119C318.481 15.1389 318.371 15.1023 318.236 15.1023C318.09 15.1023 317.905 15.1473 317.68 15.2372L317.537 14.9422L319.838 13.998H320.217ZM325.022 13.998V24.2402C325.022 24.7235 325.056 25.0438 325.123 25.2012C325.196 25.3585 325.306 25.4794 325.452 25.5637C325.598 25.6423 325.871 25.6817 326.27 25.6817V25.9851H322.485V25.6817C322.839 25.6817 323.081 25.6451 323.21 25.5721C323.339 25.499 323.44 25.3782 323.513 25.2096C323.586 25.041 323.623 24.7179 323.623 24.2402V17.2266C323.623 16.3556 323.603 15.8217 323.564 15.625C323.525 15.4227 323.46 15.285 323.37 15.2119C323.286 15.1389 323.176 15.1023 323.041 15.1023C322.895 15.1023 322.71 15.1473 322.485 15.2372L322.342 14.9422L324.643 13.998H325.022ZM331.547 24.8724C330.754 25.485 330.257 25.839 330.055 25.9346C329.751 26.0751 329.428 26.1453 329.085 26.1453C328.552 26.1453 328.11 25.9627 327.762 25.5974C327.419 25.2321 327.248 24.7516 327.248 24.1559C327.248 23.7794 327.332 23.4534 327.501 23.178C327.731 22.7959 328.13 22.4362 328.698 22.099C329.271 21.7618 330.221 21.3516 331.547 20.8683V20.5648C331.547 19.7949 331.423 19.2666 331.176 18.98C330.934 18.6934 330.58 18.5501 330.114 18.5501C329.76 18.5501 329.479 18.6456 329.271 18.8367C329.057 19.0278 328.951 19.247 328.951 19.4942L328.967 19.9832C328.967 20.2417 328.9 20.4412 328.765 20.5817C328.636 20.7222 328.464 20.7924 328.251 20.7924C328.043 20.7924 327.872 20.7194 327.737 20.5732C327.607 20.4271 327.543 20.2276 327.543 19.9747C327.543 19.4914 327.79 19.0475 328.285 18.6428C328.779 18.2382 329.473 18.0359 330.367 18.0359C331.052 18.0359 331.614 18.1511 332.053 18.3815C332.384 18.5557 332.629 18.8283 332.786 19.1992C332.887 19.4408 332.938 19.9354 332.938 20.6828V23.3045C332.938 24.0407 332.952 24.4931 332.98 24.6617C333.008 24.8246 333.053 24.9342 333.115 24.9904C333.182 25.0466 333.258 25.0747 333.342 25.0747C333.432 25.0747 333.511 25.0551 333.578 25.0157C333.696 24.9427 333.924 24.7375 334.261 24.4003V24.8724C333.632 25.7154 333.031 26.1369 332.457 26.1369C332.182 26.1369 331.963 26.0413 331.8 25.8503C331.637 25.6592 331.552 25.3332 331.547 24.8724ZM331.547 24.3245V21.3825C330.698 21.7197 330.15 21.9585 329.903 22.099C329.459 22.3463 329.142 22.6048 328.951 22.8746C328.759 23.1443 328.664 23.4394 328.664 23.7597C328.664 24.1643 328.785 24.5015 329.026 24.7713C329.268 25.0354 329.546 25.1675 329.861 25.1675C330.288 25.1675 330.85 24.8865 331.547 24.3245ZM337.094 19.6713C337.998 18.581 338.861 18.0359 339.682 18.0359C340.103 18.0359 340.466 18.1427 340.769 18.3562C341.072 18.5641 341.314 18.9098 341.494 19.3931C341.618 19.7303 341.679 20.2473 341.679 20.9441V24.2402C341.679 24.7291 341.719 25.0607 341.797 25.2349C341.859 25.3754 341.958 25.485 342.092 25.5637C342.233 25.6423 342.489 25.6817 342.86 25.6817V25.9851H339.041V25.6817H339.201C339.561 25.6817 339.811 25.6283 339.951 25.5215C340.097 25.4091 340.199 25.2461 340.255 25.0326C340.277 24.9483 340.289 24.6841 340.289 24.2402V21.079C340.289 20.3765 340.196 19.8679 340.01 19.5532C339.831 19.2329 339.524 19.0727 339.092 19.0727C338.423 19.0727 337.757 19.438 337.094 20.1686V24.2402C337.094 24.7628 337.125 25.086 337.186 25.2096C337.265 25.3726 337.372 25.4934 337.507 25.5721C337.647 25.6451 337.928 25.6817 338.35 25.6817V25.9851H334.531V25.6817H334.7C335.093 25.6817 335.357 25.5833 335.492 25.3866C335.632 25.1843 335.703 24.8022 335.703 24.2402V21.3741C335.703 20.4468 335.68 19.882 335.635 19.6797C335.596 19.4774 335.531 19.3397 335.441 19.2666C335.357 19.1936 335.242 19.157 335.096 19.157C334.938 19.157 334.75 19.1992 334.531 19.2835L334.405 18.98L336.731 18.0359H337.094V19.6713ZM343.037 18.2635H346.636V18.5754H346.459C346.206 18.5754 346.015 18.6316 345.886 18.744C345.762 18.8508 345.7 18.9856 345.7 19.1486C345.7 19.3678 345.793 19.6713 345.979 20.059L347.858 23.9536L349.587 19.6881C349.682 19.4577 349.73 19.2301 349.73 19.0053C349.73 18.9041 349.71 18.8283 349.671 18.7777C349.626 18.7159 349.556 18.6681 349.46 18.6344C349.365 18.5951 349.196 18.5754 348.954 18.5754V18.2635H351.466V18.5754C351.258 18.5979 351.098 18.6428 350.986 18.7103C350.873 18.7777 350.75 18.9041 350.615 19.0896C350.564 19.1683 350.469 19.3846 350.328 19.7387L347.184 27.4435C346.881 28.1909 346.482 28.7557 345.987 29.1379C345.498 29.52 345.026 29.7111 344.571 29.7111C344.239 29.7111 343.967 29.6156 343.753 29.4245C343.54 29.2334 343.433 29.0142 343.433 28.767C343.433 28.5309 343.509 28.3398 343.66 28.1937C343.818 28.0532 344.031 27.983 344.301 27.983C344.487 27.983 344.739 28.0448 345.06 28.1684C345.285 28.2527 345.425 28.2949 345.481 28.2949C345.65 28.2949 345.832 28.2078 346.029 28.0336C346.232 27.8594 346.434 27.5222 346.636 27.022L347.184 25.6817L344.411 19.8567C344.326 19.6825 344.192 19.4661 344.006 19.2076C343.866 19.0109 343.75 18.8789 343.66 18.8114C343.531 18.7215 343.323 18.6428 343.037 18.5754V18.2635Z" fill="#382617"/>
<rect x="154" y="5" width="89" height="31" rx="15.5" fill="white"/>
<path d="M170.029 19.8307C170.029 19.7035 170.079 19.5815 170.169 19.4916C170.259 19.4016 170.381 19.3511 170.508 19.3511H174.345C174.472 19.3511 174.594 19.4016 174.684 19.4916C174.774 19.5815 174.824 19.7035 174.824 19.8307C174.824 19.9579 174.774 20.0798 174.684 20.1698C174.594 20.2597 174.472 20.3102 174.345 20.3102H170.508C170.381 20.3102 170.259 20.2597 170.169 20.1698C170.079 20.0798 170.029 19.9579 170.029 19.8307ZM170.508 22.2285H174.345C174.472 22.2285 174.594 22.178 174.684 22.088C174.774 21.9981 174.824 21.8761 174.824 21.7489C174.824 21.6217 174.774 21.4998 174.684 21.4098C174.594 21.3199 174.472 21.2694 174.345 21.2694H170.508C170.381 21.2694 170.259 21.3199 170.169 21.4098C170.079 21.4998 170.029 21.6217 170.029 21.7489C170.029 21.8761 170.079 21.9981 170.169 22.088C170.259 22.178 170.381 22.2285 170.508 22.2285ZM178.181 25.1058C178.181 25.6146 177.979 26.1025 177.619 26.4622C177.26 26.822 176.772 27.0241 176.263 27.0241H169.549C169.041 27.0241 168.553 26.822 168.193 26.4622C167.833 26.1025 167.631 25.6146 167.631 25.1058V17.4329C167.631 17.1785 167.53 16.9346 167.35 16.7547C167.17 16.5748 166.926 16.4738 166.672 16.4738C166.418 16.4738 166.174 16.5748 165.994 16.7547C165.814 16.9346 165.713 17.1785 165.713 17.4329C165.713 17.777 166.002 18.0096 166.005 18.012C166.085 18.073 166.143 18.1574 166.172 18.2533C166.201 18.3492 166.199 18.4517 166.167 18.5465C166.135 18.6413 166.073 18.7236 165.992 18.7819C165.911 18.8402 165.813 18.8716 165.713 18.8716C165.609 18.8717 165.508 18.8378 165.426 18.7751C165.356 18.7241 164.754 18.2487 164.754 17.4329C164.754 16.9241 164.956 16.4362 165.316 16.0765C165.675 15.7167 166.163 15.5146 166.672 15.5146H174.824C175.333 15.5146 175.821 15.7167 176.181 16.0765C176.541 16.4362 176.743 16.9241 176.743 17.4329V23.6672H177.222C177.326 23.6672 177.427 23.7008 177.51 23.7631C177.582 23.8146 178.181 24.29 178.181 25.1058ZM170.044 23.9957C170.077 23.8989 170.14 23.8151 170.223 23.7561C170.306 23.6971 170.406 23.6659 170.508 23.6672H175.784V17.4329C175.784 17.1785 175.682 16.9346 175.503 16.7547C175.323 16.5748 175.079 16.4738 174.824 16.4738H168.332C168.501 16.7649 168.591 17.0959 168.59 17.4329V25.1058C168.59 25.3602 168.691 25.6042 168.871 25.784C169.051 25.9639 169.295 26.065 169.549 26.065C169.804 26.065 170.048 25.9639 170.227 25.784C170.407 25.6042 170.508 25.3602 170.508 25.1058C170.508 24.7618 170.219 24.5292 170.216 24.5268C170.134 24.4683 170.073 24.3851 170.042 24.2895C170.012 24.1939 170.012 24.0909 170.044 23.9957ZM177.222 25.1058C177.216 24.9282 177.148 24.7583 177.029 24.6263H171.394C171.442 24.7816 171.466 24.9432 171.466 25.1058C171.467 25.4426 171.378 25.7736 171.209 26.065H176.263C176.517 26.065 176.761 25.9639 176.941 25.784C177.121 25.6042 177.222 25.3602 177.222 25.1058Z" fill="#382617"/>
<path d="M186.722 18.094V19.8305C187.368 18.6729 188.031 18.094 188.711 18.094C189.02 18.094 189.276 18.1896 189.478 18.3806C189.68 18.5661 189.782 18.7824 189.782 19.0297C189.782 19.2489 189.709 19.4343 189.562 19.5861C189.416 19.7378 189.242 19.8137 189.04 19.8137C188.843 19.8137 188.621 19.7182 188.374 19.5271C188.132 19.3304 187.952 19.232 187.834 19.232C187.733 19.232 187.624 19.2882 187.506 19.4006C187.253 19.631 186.991 20.0104 186.722 20.5386V24.2393C186.722 24.6664 186.775 24.9896 186.882 25.2087C186.955 25.3605 187.084 25.4869 187.27 25.5881C187.455 25.6892 187.722 25.7398 188.07 25.7398V26.0433H184.117V25.7398C184.51 25.7398 184.802 25.678 184.994 25.5543C185.134 25.4644 185.232 25.3211 185.289 25.1244C185.317 25.0289 185.331 24.7563 185.331 24.3067V21.3142C185.331 20.415 185.311 19.8811 185.272 19.7125C185.238 19.5383 185.171 19.4119 185.069 19.3332C184.974 19.2545 184.853 19.2152 184.707 19.2152C184.533 19.2152 184.336 19.2573 184.117 19.3416L184.033 19.0382L186.368 18.094H186.722ZM191.51 21.2299C191.504 22.3763 191.782 23.2755 192.344 23.9274C192.906 24.5793 193.567 24.9053 194.325 24.9053C194.831 24.9053 195.269 24.7676 195.64 24.4922C196.017 24.2112 196.332 23.7335 196.584 23.0591L196.846 23.2277C196.728 23.9977 196.385 24.7001 195.817 25.3352C195.25 25.9646 194.539 26.2793 193.685 26.2793C192.757 26.2793 191.962 25.9196 191.299 25.2003C190.641 24.4753 190.313 23.5031 190.313 22.2836C190.313 20.9629 190.65 19.9345 191.324 19.1983C192.004 18.4565 192.856 18.0856 193.878 18.0856C194.744 18.0856 195.455 18.3722 196.011 18.9454C196.568 19.513 196.846 20.2745 196.846 21.2299H191.51ZM191.51 20.741H195.084C195.056 20.2464 194.997 19.898 194.907 19.6957C194.766 19.381 194.556 19.1337 194.275 18.9539C193.999 18.774 193.71 18.6841 193.406 18.6841C192.94 18.6841 192.521 18.8667 192.15 19.232C191.785 19.5917 191.572 20.0947 191.51 20.741ZM202.873 18.094V20.7241H202.595C202.381 19.898 202.106 19.336 201.769 19.0382C201.437 18.7403 201.013 18.5914 200.496 18.5914C200.102 18.5914 199.785 18.6953 199.543 18.9033C199.302 19.1112 199.181 19.3416 199.181 19.5945C199.181 19.9092 199.271 20.179 199.451 20.4038C199.625 20.6342 199.979 20.8786 200.513 21.1372L201.743 21.7357C202.884 22.292 203.455 23.0254 203.455 23.9358C203.455 24.6383 203.188 25.2059 202.654 25.6386C202.126 26.0658 201.533 26.2793 200.875 26.2793C200.403 26.2793 199.864 26.195 199.257 26.0264C199.071 25.9702 198.919 25.9421 198.801 25.9421C198.672 25.9421 198.571 26.0152 198.498 26.1613H198.22V23.4048H198.498C198.655 24.1915 198.956 24.7844 199.4 25.1834C199.844 25.5824 200.341 25.782 200.892 25.782C201.28 25.782 201.595 25.6696 201.836 25.4448C202.083 25.2143 202.207 24.939 202.207 24.6186C202.207 24.2309 202.069 23.9049 201.794 23.6408C201.524 23.3767 200.982 23.0423 200.167 22.6377C199.352 22.233 198.818 21.8677 198.565 21.5418C198.313 21.2215 198.186 20.8168 198.186 20.3279C198.186 19.6929 198.402 19.1618 198.835 18.7347C199.274 18.3076 199.838 18.094 200.53 18.094C200.833 18.094 201.201 18.1586 201.634 18.2879C201.92 18.3722 202.112 18.4143 202.207 18.4143C202.297 18.4143 202.367 18.3947 202.418 18.3553C202.468 18.316 202.527 18.2289 202.595 18.094H202.873ZM211.379 18.3216V23.0001C211.379 23.8937 211.398 24.4416 211.438 24.6439C211.483 24.8406 211.55 24.9783 211.64 25.057C211.736 25.1357 211.845 25.175 211.969 25.175C212.143 25.175 212.34 25.1272 212.559 25.0317L212.677 25.3267L210.367 26.2793H209.988V24.6439C209.325 25.3633 208.819 25.8157 208.47 26.0011C208.122 26.1866 207.754 26.2793 207.366 26.2793C206.933 26.2793 206.557 26.1557 206.237 25.9084C205.922 25.6555 205.703 25.3324 205.579 24.939C205.455 24.5456 205.394 23.9892 205.394 23.2699V19.8221C205.394 19.4568 205.354 19.2039 205.276 19.0634C205.197 18.9229 205.079 18.8162 204.921 18.7431C204.77 18.6644 204.492 18.6279 204.087 18.6335V18.3216H206.793V23.4891C206.793 24.2084 206.917 24.6805 207.164 24.9053C207.417 25.1301 207.72 25.2424 208.074 25.2424C208.316 25.2424 208.588 25.1666 208.892 25.0148C209.201 24.8631 209.566 24.5737 209.988 24.1466V19.7715C209.988 19.3332 209.906 19.0382 209.743 18.8864C209.586 18.7291 209.254 18.6448 208.749 18.6335V18.3216H211.379ZM215.535 19.7378C216.097 19.1758 216.428 18.8527 216.529 18.7684C216.782 18.5548 217.055 18.3891 217.347 18.271C217.639 18.153 217.929 18.094 218.215 18.094C218.698 18.094 219.114 18.2345 219.463 18.5155C219.811 18.7965 220.044 19.2039 220.162 19.7378C220.741 19.0634 221.23 18.6223 221.629 18.4143C222.028 18.2008 222.438 18.094 222.86 18.094C223.27 18.094 223.633 18.2008 223.947 18.4143C224.268 18.6223 224.521 18.9651 224.706 19.4428C224.83 19.7687 224.892 20.2801 224.892 20.977V24.2983C224.892 24.7816 224.928 25.1132 225.001 25.293C225.057 25.4167 225.161 25.5234 225.313 25.6134C225.465 25.6977 225.712 25.7398 226.055 25.7398V26.0433H222.245V25.7398H222.405C222.736 25.7398 222.995 25.6752 223.18 25.5459C223.31 25.456 223.402 25.3127 223.458 25.116C223.481 25.0205 223.492 24.7479 223.492 24.2983V20.977C223.492 20.3476 223.416 19.9036 223.265 19.6451C223.045 19.2854 222.694 19.1056 222.211 19.1056C221.913 19.1056 221.612 19.1815 221.309 19.3332C221.011 19.4793 220.649 19.7547 220.221 20.1593L220.205 20.252L220.221 20.6145V24.2983C220.221 24.8266 220.25 25.1553 220.306 25.2846C220.368 25.4139 220.48 25.5234 220.643 25.6134C220.806 25.6977 221.084 25.7398 221.478 25.7398V26.0433H217.575V25.7398C218.002 25.7398 218.294 25.6892 218.451 25.5881C218.614 25.4869 218.727 25.3352 218.788 25.1329C218.817 25.0373 218.831 24.7591 218.831 24.2983V20.977C218.831 20.3476 218.738 19.8952 218.552 19.6198C218.305 19.2601 217.959 19.0803 217.516 19.0803C217.212 19.0803 216.911 19.1618 216.614 19.3248C216.147 19.572 215.787 19.8502 215.535 20.1593V24.2983C215.535 24.8041 215.568 25.1329 215.636 25.2846C215.709 25.4363 215.813 25.5515 215.948 25.6302C216.088 25.7033 216.369 25.7398 216.791 25.7398V26.0433H212.972V25.7398C213.326 25.7398 213.573 25.7033 213.714 25.6302C213.854 25.5515 213.961 25.4307 214.034 25.2677C214.107 25.0991 214.144 24.776 214.144 24.2983V21.3479C214.144 20.4993 214.118 19.9514 214.068 19.7041C214.028 19.5186 213.967 19.3922 213.882 19.3248C213.798 19.2517 213.683 19.2152 213.537 19.2152C213.379 19.2152 213.191 19.2573 212.972 19.3416L212.845 19.0382L215.172 18.094H215.535V19.7378ZM227.977 21.2299C227.971 22.3763 228.249 23.2755 228.811 23.9274C229.373 24.5793 230.034 24.9053 230.792 24.9053C231.298 24.9053 231.737 24.7676 232.107 24.4922C232.484 24.2112 232.799 23.7335 233.052 23.0591L233.313 23.2277C233.195 23.9977 232.852 24.7001 232.284 25.3352C231.717 25.9646 231.006 26.2793 230.152 26.2793C229.224 26.2793 228.429 25.9196 227.766 25.2003C227.109 24.4753 226.78 23.5031 226.78 22.2836C226.78 20.9629 227.117 19.9345 227.791 19.1983C228.471 18.4565 229.323 18.0856 230.346 18.0856C231.211 18.0856 231.922 18.3722 232.478 18.9454C233.035 19.513 233.313 20.2745 233.313 21.2299H227.977ZM227.977 20.741H231.551C231.523 20.2464 231.464 19.898 231.374 19.6957C231.234 19.381 231.023 19.1337 230.742 18.9539C230.466 18.774 230.177 18.6841 229.874 18.6841C229.407 18.6841 228.988 18.8667 228.618 19.232C228.252 19.5917 228.039 20.0947 227.977 20.741Z" fill="#382617"/>
<rect x="88" y="5" width="60" height="31" rx="15.5" fill="white"/>
<path d="M103.317 22.7524C103.827 23.1308 104.449 23.353 105.119 23.353C105.789 23.353 106.41 23.1308 106.921 22.7524M103.617 20.0494V19.7491M106.621 20.0494V19.7491" stroke="#382617" stroke-width="1.12624" stroke-linecap="round" stroke-linejoin="round"/>
<path d="M110.525 20.9504C110.525 21.6604 110.385 22.3633 110.113 23.0192C109.842 23.6751 109.443 24.271 108.941 24.773C108.439 25.275 107.843 25.6732 107.188 25.9449C106.532 26.2165 105.829 26.3564 105.119 26.3564C104.409 26.3564 103.706 26.2165 103.05 25.9449C102.394 25.6732 101.798 25.275 101.296 24.773C100.794 24.271 100.396 23.6751 100.124 23.0192C99.8527 22.3633 99.7129 21.6604 99.7129 20.9504C99.7129 19.5167 100.282 18.1417 101.296 17.1279C102.31 16.114 103.685 15.5445 105.119 15.5445C106.553 15.5445 107.928 16.114 108.941 17.1279C109.955 18.1417 110.525 19.5167 110.525 20.9504Z" stroke="#382617" stroke-width="0.991089" stroke-linecap="round" stroke-linejoin="round"/>
<path d="M119.279 19.6797C119.841 19.1177 120.172 18.7946 120.273 18.7103C120.526 18.4967 120.799 18.3309 121.091 18.2129C121.383 18.0949 121.673 18.0359 121.959 18.0359C122.443 18.0359 122.859 18.1764 123.207 18.4574C123.555 18.7384 123.789 19.1458 123.907 19.6797C124.485 19.0053 124.974 18.5641 125.373 18.3562C125.772 18.1427 126.183 18.0359 126.604 18.0359C127.014 18.0359 127.377 18.1427 127.692 18.3562C128.012 18.5641 128.265 18.907 128.45 19.3846C128.574 19.7106 128.636 20.222 128.636 20.9189V24.2402C128.636 24.7235 128.672 25.0551 128.745 25.2349C128.802 25.3585 128.905 25.4653 129.057 25.5552C129.209 25.6395 129.456 25.6817 129.799 25.6817V25.9851H125.989V25.6817H126.149C126.481 25.6817 126.739 25.617 126.924 25.4878C127.054 25.3979 127.146 25.2546 127.203 25.0579C127.225 24.9623 127.236 24.6898 127.236 24.2402V20.9189C127.236 20.2894 127.161 19.8455 127.009 19.587C126.79 19.2273 126.438 19.0475 125.955 19.0475C125.657 19.0475 125.357 19.1233 125.053 19.2751C124.755 19.4212 124.393 19.6965 123.966 20.1012L123.949 20.1939L123.966 20.5564V24.2402C123.966 24.7684 123.994 25.0972 124.05 25.2265C124.112 25.3557 124.224 25.4653 124.387 25.5552C124.55 25.6395 124.828 25.6817 125.222 25.6817V25.9851H121.319V25.6817C121.746 25.6817 122.038 25.6311 122.195 25.5299C122.358 25.4288 122.471 25.277 122.533 25.0747C122.561 24.9792 122.575 24.701 122.575 24.2402V20.9189C122.575 20.2894 122.482 19.837 122.297 19.5617C122.049 19.202 121.704 19.0222 121.26 19.0222C120.956 19.0222 120.656 19.1037 120.358 19.2666C119.891 19.5139 119.532 19.7921 119.279 20.1012V24.2402C119.279 24.746 119.312 25.0747 119.38 25.2265C119.453 25.3782 119.557 25.4934 119.692 25.5721C119.832 25.6451 120.113 25.6817 120.535 25.6817V25.9851H116.716V25.6817C117.07 25.6817 117.317 25.6451 117.458 25.5721C117.598 25.4934 117.705 25.3726 117.778 25.2096C117.851 25.041 117.888 24.7179 117.888 24.2402V21.2898C117.888 20.4412 117.863 19.8932 117.812 19.646C117.773 19.4605 117.711 19.3341 117.626 19.2666C117.542 19.1936 117.427 19.157 117.281 19.157C117.123 19.157 116.935 19.1992 116.716 19.2835L116.59 18.98L118.916 18.0359H119.279V19.6797ZM131.721 21.1717C131.715 22.3182 131.994 23.2174 132.556 23.8693C133.118 24.5212 133.778 24.8471 134.537 24.8471C135.042 24.8471 135.481 24.7094 135.852 24.4341C136.228 24.1531 136.543 23.6754 136.796 23.001L137.057 23.1696C136.939 23.9395 136.596 24.642 136.029 25.277C135.461 25.9065 134.75 26.2212 133.896 26.2212C132.969 26.2212 132.173 25.8615 131.51 25.1422C130.853 24.4172 130.524 23.445 130.524 22.2255C130.524 20.9048 130.861 19.8764 131.536 19.1402C132.216 18.3984 133.067 18.0275 134.09 18.0275C134.955 18.0275 135.666 18.3141 136.223 18.8873C136.779 19.4549 137.057 20.2164 137.057 21.1717H131.721ZM131.721 20.6828H135.295C135.267 20.1883 135.208 19.8398 135.118 19.6375C134.978 19.3228 134.767 19.0756 134.486 18.8957C134.211 18.7159 133.921 18.626 133.618 18.626C133.151 18.626 132.733 18.8086 132.362 19.1739C131.996 19.5336 131.783 20.0365 131.721 20.6828Z" fill="#382617"/>
</svg>
