<svg width="357" height="31" viewBox="0 0 357 31" fill="none" xmlns="http://www.w3.org/2000/svg">
<rect width="75" height="31" rx="15.5" fill="#717B08"/>
<path d="M18.9575 13.9835L18.7657 13.8052C18.5549 13.6108 18.4493 13.5132 18.394 13.3784C18.3381 13.2435 18.3381 13.0871 18.3388 12.7738L18.3387 12.489C18.3389 11.3864 18.3396 10.8352 18.0127 10.6522M22.3154 19.4315C22.4191 19.3221 22.5541 19.263 22.826 19.1452L23.0727 19.0371C24.0283 18.6225 24.5062 18.4146 24.5858 18.003C24.6662 17.591 24.2957 17.2485 23.5544 16.5622L23.3631 16.3847C23.1523 16.1902 23.0474 16.0921 22.9914 15.9579C22.9353 15.8236 22.9354 15.6666 22.9355 15.3531L22.9354 15.0683C22.9362 13.9658 22.9363 13.4145 22.6101 13.2316L18.0127 10.6522C17.686 10.4685 17.2491 10.7746 16.3752 11.3869L16.1487 11.5453C15.9008 11.7195 15.7769 11.8066 15.6385 11.833C15.5008 11.8589 15.3655 11.8215 15.0939 11.7452L14.8466 11.6765C13.8913 11.4108 13.414 11.2774 13.132 11.576C12.85 11.8746 12.9507 12.407 13.1513 13.4704L13.2037 13.7459C13.2603 14.0484 13.2889 14.1998 13.2596 14.3506C13.2303 14.5015 13.1465 14.6345 12.9788 14.9011L12.8258 15.1437C12.2344 16.0818 11.9394 16.5507 12.0917 16.9179C12.2438 17.2857 12.7429 17.3088 13.7417 17.3545L13.9997 17.3658C14.2835 17.3785 14.4246 17.3853 14.5446 17.4524C14.6645 17.5194 14.7478 17.6399 14.9161 17.8798L15.0683 18.0991C15.6586 18.9443 16.3299 19.2963 16.3299 19.2963M23.3637 16.3848L18.957 13.9828C19.6985 14.6684 20.0695 15.0117 19.9892 15.4231C19.909 15.8345 19.431 16.0424 18.4752 16.4583L18.2286 16.5657C17.9568 16.6835 17.8211 16.7425 17.7181 16.8521L22.3154 19.4315M16.3299 19.2963C16.7056 19.2249 16.9136 18.707 17.3298 17.6707L17.4373 17.4025C17.5554 17.1081 17.6144 16.9615 17.7174 16.852M16.3299 19.2963L20.1031 21.4132C20.5025 21.6373 20.7025 21.7497 20.9541 21.6741C21.205 21.5983 21.3107 21.4216 21.5214 21.0686C21.6581 20.8398 21.8008 20.5661 21.927 20.2508L22.0351 19.9827C22.1534 19.6877 22.2125 19.5405 22.3154 19.4315" stroke="white" stroke-width="0.761616"/>
<path d="M29.1113 13.3216H32.3483V13.6335C32.0504 13.656 31.8537 13.7094 31.7582 13.7937C31.6683 13.878 31.6233 13.9988 31.6233 14.1562C31.6233 14.3304 31.6711 14.5411 31.7666 14.7884L33.4189 19.2309L35.0795 15.6145L34.6412 14.4765C34.5063 14.1393 34.3293 13.9061 34.1101 13.7768C33.9865 13.6982 33.7561 13.6504 33.4189 13.6335V13.3216H37.0942V13.6335C36.6896 13.6504 36.403 13.7234 36.2344 13.8527C36.122 13.9426 36.0658 14.0859 36.0658 14.2826C36.0658 14.395 36.0883 14.5102 36.1333 14.6282L37.8866 19.0623L39.5136 14.7884C39.626 14.4849 39.6822 14.2433 39.6822 14.0634C39.6822 13.9567 39.626 13.8611 39.5136 13.7768C39.4068 13.6925 39.1933 13.6448 38.8729 13.6335V13.3216H41.3091V13.6335C40.8202 13.7066 40.4605 14.0382 40.2301 14.6282L37.6506 21.2793H37.305L35.3746 16.3479L33.1238 21.2793H32.8119L30.3336 14.7884C30.1706 14.3782 30.0104 14.1028 29.8531 13.9623C29.6957 13.8162 29.4485 13.7066 29.1113 13.6335V13.3216ZM45.7937 13.094C46.9627 13.094 47.9012 13.538 48.6093 14.4259C49.2106 15.1846 49.5113 16.0557 49.5113 17.0391C49.5113 17.7304 49.3455 18.4301 49.0139 19.1382C48.6823 19.8462 48.2243 20.3801 47.6399 20.7398C47.061 21.0995 46.4147 21.2793 45.701 21.2793C44.5377 21.2793 43.6133 20.8157 42.9276 19.8884C42.3488 19.1072 42.0594 18.2305 42.0594 17.2583C42.0594 16.5502 42.2336 15.8477 42.582 15.1509C42.9361 14.4484 43.3997 13.9314 43.9729 13.5998C44.5461 13.2626 45.1531 13.094 45.7937 13.094ZM45.5324 13.642C45.2346 13.642 44.9339 13.7319 44.6304 13.9117C44.3326 14.0859 44.0909 14.395 43.9055 14.839C43.72 15.2829 43.6273 15.8534 43.6273 16.5502C43.6273 17.6742 43.8493 18.6436 44.2933 19.4585C44.7428 20.2734 45.3329 20.6808 46.0635 20.6808C46.6086 20.6808 47.0582 20.456 47.4123 20.0064C47.7663 19.5568 47.9433 18.7841 47.9433 17.6882C47.9433 16.317 47.6483 15.238 47.0582 14.4512C46.6592 13.9117 46.1506 13.642 45.5324 13.642ZM52.9085 13.094V14.8305C53.5547 13.6729 54.2179 13.094 54.8979 13.094C55.207 13.094 55.4627 13.1896 55.665 13.3806C55.8673 13.5661 55.9685 13.7824 55.9685 14.0297C55.9685 14.2489 55.8954 14.4343 55.7493 14.5861C55.6032 14.7378 55.429 14.8137 55.2266 14.8137C55.0299 14.8137 54.808 14.7182 54.5607 14.5271C54.319 14.3304 54.1392 14.232 54.0212 14.232C53.92 14.232 53.8104 14.2882 53.6924 14.4006C53.4395 14.631 53.1782 15.0104 52.9085 15.5386V19.2393C52.9085 19.6664 52.9618 19.9896 53.0686 20.2087C53.1417 20.3605 53.2709 20.4869 53.4564 20.5881C53.6418 20.6892 53.9088 20.7398 54.2572 20.7398V21.0433H50.3037V20.7398C50.6971 20.7398 50.9893 20.678 51.1804 20.5543C51.3209 20.4644 51.4192 20.3211 51.4754 20.1244C51.5035 20.0289 51.5175 19.7563 51.5175 19.3067V16.3142C51.5175 15.415 51.4979 14.8811 51.4585 14.7125C51.4248 14.5383 51.3574 14.4119 51.2562 14.3332C51.1607 14.2545 51.0399 14.2152 50.8937 14.2152C50.7195 14.2152 50.5228 14.2573 50.3037 14.3416L50.2194 14.0382L52.5544 13.094H52.9085ZM58.6828 9.05617V16.7441L60.647 14.9486C61.0628 14.5664 61.3045 14.3248 61.3719 14.2236C61.4169 14.1562 61.4394 14.0887 61.4394 14.0213C61.4394 13.9089 61.3916 13.8134 61.2961 13.7347C61.2061 13.6504 61.0544 13.6026 60.8409 13.5914V13.3216H64.1959V13.5914C63.7351 13.6026 63.3501 13.6729 63.041 13.8021C62.7375 13.9314 62.4032 14.1618 62.0379 14.4934L60.0569 16.3226L62.0379 18.8262C62.5886 19.5175 62.9595 19.9558 63.1506 20.1413C63.4204 20.4054 63.6564 20.5768 63.8587 20.6555C63.9992 20.7117 64.2437 20.7398 64.5921 20.7398V21.0433H60.8409V20.7398C61.0544 20.7342 61.1977 20.7033 61.2708 20.6471C61.3494 20.5853 61.3888 20.501 61.3888 20.3942C61.3888 20.2649 61.2764 20.057 61.0516 19.7704L58.6828 16.7441V19.3067C58.6828 19.8069 58.7166 20.1357 58.784 20.293C58.8571 20.4504 58.9582 20.5628 59.0875 20.6302C59.2167 20.6977 59.4977 20.7342 59.9304 20.7398V21.0433H56.0022V20.7398C56.3956 20.7398 56.6906 20.692 56.8873 20.5965C57.0053 20.5347 57.0952 20.4391 57.1571 20.3099C57.2414 20.1244 57.2835 19.8041 57.2835 19.3489V12.3185C57.2835 11.4249 57.2638 10.8798 57.2245 10.6831C57.1852 10.4808 57.1205 10.3431 57.0306 10.2701C56.9407 10.1914 56.8227 10.152 56.6766 10.152C56.5585 10.152 56.3815 10.1998 56.1455 10.2953L56.0022 10.0003L58.2951 9.05617H58.6828Z" fill="white"/>
<rect x="242.875" y="0.875" width="113.25" height="29.25" rx="14.625" stroke="#ECECEC" stroke-width="1.75"/>
<path d="M262.18 16.896H257.996L258.124 16.7639L259.218 15.6366C259.66 15.8659 260.147 15.9881 260.642 15.994C261.14 15.9953 261.629 15.8549 262.054 15.5882C263.348 14.7812 264.042 12.9132 263.909 10.5912C263.903 10.4812 263.858 10.3774 263.782 10.2995C263.706 10.2216 263.606 10.175 263.499 10.1685C261.245 10.0325 259.432 10.7463 258.648 12.0793C258.138 12.9475 258.125 13.9962 258.601 15.0015L257.816 15.8102L257.15 15.124C257.477 14.3794 257.454 13.6067 257.074 12.9616C256.481 11.9506 255.121 11.4116 253.437 11.5134C253.33 11.5199 253.23 11.5665 253.154 11.6442C253.079 11.722 253.034 11.8256 253.027 11.9354C252.928 13.6702 253.452 15.0707 254.434 15.6821C254.762 15.8888 255.14 15.9977 255.525 15.9968C255.874 15.9932 256.218 15.913 256.535 15.7613L257.198 16.4464L256.762 16.896H254.324C254.209 16.896 254.098 16.9433 254.016 17.0276C253.934 17.112 253.888 17.2263 253.888 17.3455C253.888 17.4648 253.934 17.5791 254.016 17.6634C254.098 17.7478 254.209 17.7951 254.324 17.7951H254.848L255.568 21.1372C255.61 21.3374 255.718 21.5165 255.873 21.6447C256.028 21.7729 256.221 21.8423 256.42 21.8413H260.085C260.283 21.8423 260.477 21.7729 260.632 21.6447C260.787 21.5165 260.894 21.3374 260.937 21.1372L261.657 17.7951H262.18C262.296 17.7951 262.407 17.7478 262.488 17.6634C262.57 17.5791 262.616 17.4648 262.616 17.3455C262.616 17.2263 262.57 17.112 262.488 17.0276C262.407 16.9433 262.296 16.896 262.18 16.896ZM259.398 12.5451C259.968 11.5752 261.32 11.0278 263.053 11.052C263.075 12.8396 262.545 14.2316 261.603 14.8172C260.975 15.2106 260.218 15.1847 259.46 14.7509C259.039 13.9737 259.016 13.192 259.398 12.5451ZM256.294 14.879C255.792 15.1561 255.295 15.169 254.885 14.9127C254.258 14.521 253.896 13.5977 253.888 12.4002C255.051 12.4086 255.947 12.7812 256.327 13.4274C256.576 13.85 256.561 14.362 256.294 14.879ZM260.085 20.9422H256.42L255.743 17.7951H260.762L260.085 20.9422Z" fill="#382617"/>
<path d="M272.544 14.6797C273.106 14.1177 273.437 13.7946 273.538 13.7103C273.791 13.4967 274.064 13.3309 274.356 13.2129C274.648 13.0949 274.938 13.0359 275.224 13.0359C275.708 13.0359 276.124 13.1764 276.472 13.4574C276.82 13.7384 277.054 14.1458 277.172 14.6797C277.751 14.0053 278.239 13.5641 278.638 13.3562C279.037 13.1427 279.448 13.0359 279.869 13.0359C280.279 13.0359 280.642 13.1427 280.957 13.3562C281.277 13.5641 281.53 13.907 281.715 14.3846C281.839 14.7106 281.901 15.222 281.901 15.9189V19.2402C281.901 19.7235 281.937 20.0551 282.01 20.2349C282.067 20.3585 282.171 20.4653 282.322 20.5552C282.474 20.6395 282.721 20.6817 283.064 20.6817V20.9851H279.254V20.6817H279.414C279.746 20.6817 280.004 20.617 280.19 20.4878C280.319 20.3979 280.412 20.2546 280.468 20.0579C280.49 19.9623 280.501 19.6898 280.501 19.2402V15.9189C280.501 15.2894 280.426 14.8455 280.274 14.587C280.055 14.2273 279.703 14.0475 279.22 14.0475C278.922 14.0475 278.622 14.1233 278.318 14.2751C278.02 14.4212 277.658 14.6965 277.231 15.1012L277.214 15.1939L277.231 15.5564V19.2402C277.231 19.7684 277.259 20.0972 277.315 20.2265C277.377 20.3557 277.489 20.4653 277.652 20.5552C277.815 20.6395 278.093 20.6817 278.487 20.6817V20.9851H274.584V20.6817C275.011 20.6817 275.303 20.6311 275.46 20.5299C275.623 20.4288 275.736 20.277 275.798 20.0747C275.826 19.9792 275.84 19.701 275.84 19.2402V15.9189C275.84 15.2894 275.747 14.837 275.562 14.5617C275.314 14.202 274.969 14.0222 274.525 14.0222C274.221 14.0222 273.921 14.1037 273.623 14.2666C273.156 14.5139 272.797 14.7921 272.544 15.1012V19.2402C272.544 19.746 272.577 20.0747 272.645 20.2265C272.718 20.3782 272.822 20.4934 272.957 20.5721C273.097 20.6451 273.378 20.6817 273.8 20.6817V20.9851H269.981V20.6817C270.335 20.6817 270.582 20.6451 270.723 20.5721C270.863 20.4934 270.97 20.3726 271.043 20.2096C271.116 20.041 271.153 19.7179 271.153 19.2402V16.2898C271.153 15.4412 271.128 14.8932 271.077 14.646C271.038 14.4605 270.976 14.3341 270.892 14.2666C270.807 14.1936 270.692 14.157 270.546 14.157C270.389 14.157 270.2 14.1992 269.981 14.2835L269.855 13.98L272.181 13.0359H272.544V14.6797ZM285.652 8.99803C285.888 8.99803 286.088 9.08233 286.251 9.25092C286.419 9.4139 286.503 9.6134 286.503 9.84944C286.503 10.0855 286.419 10.2878 286.251 10.4564C286.088 10.625 285.888 10.7093 285.652 10.7093C285.416 10.7093 285.214 10.625 285.045 10.4564C284.876 10.2878 284.792 10.0855 284.792 9.84944C284.792 9.6134 284.874 9.4139 285.037 9.25092C285.205 9.08233 285.41 8.99803 285.652 8.99803ZM286.352 13.0359V19.2402C286.352 19.7235 286.385 20.0466 286.453 20.2096C286.526 20.367 286.63 20.485 286.765 20.5637C286.905 20.6423 287.158 20.6817 287.523 20.6817V20.9851H283.772V20.6817C284.149 20.6817 284.402 20.6451 284.531 20.5721C284.66 20.499 284.761 20.3782 284.834 20.2096C284.913 20.041 284.952 19.7179 284.952 19.2402V16.2645C284.952 15.4271 284.927 14.8848 284.876 14.6375C284.837 14.4577 284.775 14.3341 284.691 14.2666C284.607 14.1936 284.492 14.157 284.345 14.157C284.188 14.157 283.997 14.1992 283.772 14.2835L283.654 13.98L285.981 13.0359H286.352ZM293.483 13.0359V15.666H293.205C292.992 14.8398 292.716 14.2779 292.379 13.98C292.047 13.6822 291.623 13.5332 291.106 13.5332C290.713 13.5332 290.395 13.6372 290.153 13.8451C289.912 14.0531 289.791 14.2835 289.791 14.5364C289.791 14.8511 289.881 15.1208 290.061 15.3456C290.235 15.576 290.589 15.8205 291.123 16.079L292.354 16.6775C293.494 17.2339 294.065 17.9673 294.065 18.8777C294.065 19.5802 293.798 20.1478 293.264 20.5805C292.736 21.0076 292.143 21.2212 291.485 21.2212C291.013 21.2212 290.474 21.1369 289.867 20.9683C289.681 20.9121 289.53 20.884 289.412 20.884C289.282 20.884 289.181 20.957 289.108 21.1032H288.83V18.3466H289.108C289.266 19.1334 289.566 19.7263 290.01 20.1253C290.454 20.5243 290.952 20.7238 291.502 20.7238C291.89 20.7238 292.205 20.6114 292.446 20.3866C292.694 20.1562 292.817 19.8808 292.817 19.5605C292.817 19.1727 292.68 18.8468 292.404 18.5827C292.134 18.3185 291.592 17.9841 290.777 17.5795C289.962 17.1749 289.429 16.8096 289.176 16.4837C288.923 16.1633 288.796 15.7587 288.796 15.2698C288.796 14.6347 289.013 14.1037 289.445 13.6765C289.884 13.2494 290.449 13.0359 291.14 13.0359C291.443 13.0359 291.811 13.1005 292.244 13.2298C292.531 13.3141 292.722 13.3562 292.817 13.3562C292.907 13.3562 292.977 13.3365 293.028 13.2972C293.079 13.2579 293.138 13.1708 293.205 13.0359H293.483ZM301.778 18.0516C301.57 19.0688 301.163 19.8527 300.556 20.4035C299.949 20.9486 299.277 21.2212 298.541 21.2212C297.664 21.2212 296.9 20.8531 296.248 20.1169C295.596 19.3807 295.27 18.386 295.27 17.1327C295.27 15.9189 295.63 14.9326 296.349 14.1739C297.074 13.4152 297.943 13.0359 298.954 13.0359C299.713 13.0359 300.337 13.2382 300.826 13.6428C301.314 14.0418 301.559 14.4577 301.559 14.8904C301.559 15.104 301.489 15.2782 301.348 15.4131C301.213 15.5423 301.022 15.607 300.775 15.607C300.443 15.607 300.193 15.5002 300.025 15.2866C299.929 15.1686 299.865 14.9438 299.831 14.6122C299.803 14.2807 299.69 14.0278 299.494 13.8536C299.297 13.685 299.024 13.6007 298.676 13.6007C298.114 13.6007 297.662 13.8086 297.319 14.2245C296.864 14.7752 296.636 15.503 296.636 16.4078C296.636 17.3294 296.861 18.1443 297.31 18.8524C297.766 19.5549 298.378 19.9061 299.148 19.9061C299.699 19.9061 300.193 19.7179 300.632 19.3413C300.941 19.0828 301.241 18.6136 301.534 17.9336L301.778 18.0516ZM304.189 16.1717C304.183 17.3182 304.462 18.2174 305.024 18.8693C305.586 19.5212 306.246 19.8471 307.005 19.8471C307.51 19.8471 307.949 19.7094 308.32 19.4341C308.696 19.1531 309.011 18.6754 309.264 18.001L309.525 18.1696C309.407 18.9395 309.064 19.642 308.497 20.277C307.929 20.9065 307.218 21.2212 306.364 21.2212C305.437 21.2212 304.641 20.8615 303.978 20.1422C303.321 19.4172 302.992 18.445 302.992 17.2255C302.992 15.9048 303.329 14.8764 304.004 14.1402C304.684 13.3984 305.535 13.0275 306.558 13.0275C307.423 13.0275 308.134 13.3141 308.691 13.8873C309.247 14.4549 309.525 15.2164 309.525 16.1717H304.189ZM304.189 15.6828H307.763C307.735 15.1883 307.676 14.8398 307.586 14.6375C307.446 14.3228 307.235 14.0756 306.954 13.8957C306.679 13.7159 306.389 13.626 306.086 13.626C305.619 13.626 305.201 13.8086 304.83 14.1739C304.464 14.5336 304.251 15.0365 304.189 15.6828ZM313.217 8.99803V19.2402C313.217 19.7235 313.251 20.0438 313.318 20.2012C313.392 20.3585 313.501 20.4794 313.647 20.5637C313.793 20.6423 314.066 20.6817 314.465 20.6817V20.9851H310.68V20.6817C311.034 20.6817 311.276 20.6451 311.405 20.5721C311.534 20.499 311.635 20.3782 311.708 20.2096C311.781 20.041 311.818 19.7179 311.818 19.2402V12.2266C311.818 11.3556 311.798 10.8217 311.759 10.625C311.72 10.4227 311.655 10.285 311.565 10.2119C311.481 10.1389 311.371 10.1023 311.236 10.1023C311.09 10.1023 310.905 10.1473 310.68 10.2372L310.537 9.94216L312.838 8.99803H313.217ZM318.022 8.99803V19.2402C318.022 19.7235 318.056 20.0438 318.123 20.2012C318.196 20.3585 318.306 20.4794 318.452 20.5637C318.598 20.6423 318.871 20.6817 319.27 20.6817V20.9851H315.485V20.6817C315.839 20.6817 316.081 20.6451 316.21 20.5721C316.339 20.499 316.44 20.3782 316.513 20.2096C316.586 20.041 316.623 19.7179 316.623 19.2402V12.2266C316.623 11.3556 316.603 10.8217 316.564 10.625C316.525 10.4227 316.46 10.285 316.37 10.2119C316.286 10.1389 316.176 10.1023 316.041 10.1023C315.895 10.1023 315.71 10.1473 315.485 10.2372L315.342 9.94216L317.643 8.99803H318.022ZM324.547 19.8724C323.754 20.485 323.257 20.839 323.055 20.9346C322.751 21.0751 322.428 21.1453 322.085 21.1453C321.552 21.1453 321.11 20.9627 320.762 20.5974C320.419 20.2321 320.248 19.7516 320.248 19.1559C320.248 18.7794 320.332 18.4534 320.501 18.178C320.731 17.7959 321.13 17.4362 321.698 17.099C322.271 16.7618 323.221 16.3516 324.547 15.8683V15.5648C324.547 14.7949 324.423 14.2666 324.176 13.98C323.934 13.6934 323.58 13.5501 323.114 13.5501C322.76 13.5501 322.479 13.6456 322.271 13.8367C322.057 14.0278 321.951 14.247 321.951 14.4942L321.967 14.9832C321.967 15.2417 321.9 15.4412 321.765 15.5817C321.636 15.7222 321.464 15.7924 321.251 15.7924C321.043 15.7924 320.872 15.7194 320.737 15.5732C320.607 15.4271 320.543 15.2276 320.543 14.9747C320.543 14.4914 320.79 14.0475 321.285 13.6428C321.779 13.2382 322.473 13.0359 323.367 13.0359C324.052 13.0359 324.614 13.1511 325.053 13.3815C325.384 13.5557 325.629 13.8283 325.786 14.1992C325.887 14.4408 325.938 14.9354 325.938 15.6828V18.3045C325.938 19.0407 325.952 19.4931 325.98 19.6617C326.008 19.8246 326.053 19.9342 326.115 19.9904C326.182 20.0466 326.258 20.0747 326.342 20.0747C326.432 20.0747 326.511 20.0551 326.578 20.0157C326.696 19.9427 326.924 19.7375 327.261 19.4003V19.8724C326.632 20.7154 326.031 21.1369 325.457 21.1369C325.182 21.1369 324.963 21.0413 324.8 20.8503C324.637 20.6592 324.552 20.3332 324.547 19.8724ZM324.547 19.3245V16.3825C323.698 16.7197 323.15 16.9585 322.903 17.099C322.459 17.3463 322.142 17.6048 321.951 17.8746C321.759 18.1443 321.664 18.4394 321.664 18.7597C321.664 19.1643 321.785 19.5015 322.026 19.7713C322.268 20.0354 322.546 20.1675 322.861 20.1675C323.288 20.1675 323.85 19.8865 324.547 19.3245ZM330.094 14.6713C330.998 13.581 331.861 13.0359 332.682 13.0359C333.103 13.0359 333.466 13.1427 333.769 13.3562C334.072 13.5641 334.314 13.9098 334.494 14.3931C334.618 14.7303 334.679 15.2473 334.679 15.9441V19.2402C334.679 19.7291 334.719 20.0607 334.797 20.2349C334.859 20.3754 334.958 20.485 335.092 20.5637C335.233 20.6423 335.489 20.6817 335.86 20.6817V20.9851H332.041V20.6817H332.201C332.561 20.6817 332.811 20.6283 332.951 20.5215C333.097 20.4091 333.199 20.2461 333.255 20.0326C333.277 19.9483 333.289 19.6841 333.289 19.2402V16.079C333.289 15.3765 333.196 14.8679 333.01 14.5532C332.831 14.2329 332.524 14.0727 332.092 14.0727C331.423 14.0727 330.757 14.438 330.094 15.1686V19.2402C330.094 19.7628 330.125 20.086 330.186 20.2096C330.265 20.3726 330.372 20.4934 330.507 20.5721C330.647 20.6451 330.928 20.6817 331.35 20.6817V20.9851H327.531V20.6817H327.7C328.093 20.6817 328.357 20.5833 328.492 20.3866C328.632 20.1843 328.703 19.8022 328.703 19.2402V16.3741C328.703 15.4468 328.68 14.882 328.635 14.6797C328.596 14.4774 328.531 14.3397 328.441 14.2666C328.357 14.1936 328.242 14.157 328.096 14.157C327.938 14.157 327.75 14.1992 327.531 14.2835L327.405 13.98L329.731 13.0359H330.094V14.6713ZM336.037 13.2635H339.636V13.5754H339.459C339.206 13.5754 339.015 13.6316 338.886 13.744C338.762 13.8508 338.7 13.9856 338.7 14.1486C338.7 14.3678 338.793 14.6713 338.979 15.059L340.858 18.9536L342.587 14.6881C342.682 14.4577 342.73 14.2301 342.73 14.0053C342.73 13.9041 342.71 13.8283 342.671 13.7777C342.626 13.7159 342.556 13.6681 342.46 13.6344C342.365 13.5951 342.196 13.5754 341.954 13.5754V13.2635H344.466V13.5754C344.258 13.5979 344.098 13.6428 343.986 13.7103C343.873 13.7777 343.75 13.9041 343.615 14.0896C343.564 14.1683 343.469 14.3846 343.328 14.7387L340.184 22.4435C339.881 23.1909 339.482 23.7557 338.987 24.1379C338.498 24.52 338.026 24.7111 337.571 24.7111C337.239 24.7111 336.967 24.6156 336.753 24.4245C336.54 24.2334 336.433 24.0142 336.433 23.767C336.433 23.5309 336.509 23.3398 336.66 23.1937C336.818 23.0532 337.031 22.983 337.301 22.983C337.487 22.983 337.739 23.0448 338.06 23.1684C338.285 23.2527 338.425 23.2949 338.481 23.2949C338.65 23.2949 338.832 23.2078 339.029 23.0336C339.232 22.8594 339.434 22.5222 339.636 22.022L340.184 20.6817L337.411 14.8567C337.326 14.6825 337.192 14.4661 337.006 14.2076C336.866 14.0109 336.75 13.8789 336.66 13.8114C336.531 13.7215 336.323 13.6428 336.037 13.5754V13.2635Z" fill="#382617"/>
<rect x="147.875" y="0.875" width="87.25" height="29.25" rx="14.625" stroke="#ECECEC" stroke-width="1.75"/>
<path d="M163.029 14.8307C163.029 14.7035 163.079 14.5815 163.169 14.4916C163.259 14.4016 163.381 14.3511 163.508 14.3511H167.345C167.472 14.3511 167.594 14.4016 167.684 14.4916C167.774 14.5815 167.824 14.7035 167.824 14.8307C167.824 14.9579 167.774 15.0798 167.684 15.1698C167.594 15.2597 167.472 15.3102 167.345 15.3102H163.508C163.381 15.3102 163.259 15.2597 163.169 15.1698C163.079 15.0798 163.029 14.9579 163.029 14.8307ZM163.508 17.2285H167.345C167.472 17.2285 167.594 17.178 167.684 17.088C167.774 16.9981 167.824 16.8761 167.824 16.7489C167.824 16.6217 167.774 16.4998 167.684 16.4098C167.594 16.3199 167.472 16.2694 167.345 16.2694H163.508C163.381 16.2694 163.259 16.3199 163.169 16.4098C163.079 16.4998 163.029 16.6217 163.029 16.7489C163.029 16.8761 163.079 16.9981 163.169 17.088C163.259 17.178 163.381 17.2285 163.508 17.2285ZM171.181 20.1058C171.181 20.6146 170.979 21.1025 170.619 21.4622C170.26 21.822 169.772 22.0241 169.263 22.0241H162.549C162.041 22.0241 161.553 21.822 161.193 21.4622C160.833 21.1025 160.631 20.6146 160.631 20.1058V12.4329C160.631 12.1785 160.53 11.9346 160.35 11.7547C160.17 11.5748 159.926 11.4738 159.672 11.4738C159.418 11.4738 159.174 11.5748 158.994 11.7547C158.814 11.9346 158.713 12.1785 158.713 12.4329C158.713 12.777 159.002 13.0096 159.005 13.012C159.085 13.073 159.143 13.1574 159.172 13.2533C159.201 13.3492 159.199 13.4517 159.167 13.5465C159.135 13.6413 159.073 13.7236 158.992 13.7819C158.911 13.8402 158.813 13.8716 158.713 13.8716C158.609 13.8717 158.508 13.8378 158.426 13.7751C158.356 13.7241 157.754 13.2487 157.754 12.4329C157.754 11.9241 157.956 11.4362 158.316 11.0765C158.675 10.7167 159.163 10.5146 159.672 10.5146H167.824C168.333 10.5146 168.821 10.7167 169.181 11.0765C169.541 11.4362 169.743 11.9241 169.743 12.4329V18.6672H170.222C170.326 18.6672 170.427 18.7008 170.51 18.7631C170.582 18.8146 171.181 19.29 171.181 20.1058ZM163.044 18.9957C163.077 18.8989 163.14 18.8151 163.223 18.7561C163.306 18.6971 163.406 18.6659 163.508 18.6672H168.784V12.4329C168.784 12.1785 168.682 11.9346 168.503 11.7547C168.323 11.5748 168.079 11.4738 167.824 11.4738H161.332C161.501 11.7649 161.591 12.0959 161.59 12.4329V20.1058C161.59 20.3602 161.691 20.6042 161.871 20.784C162.051 20.9639 162.295 21.065 162.549 21.065C162.804 21.065 163.048 20.9639 163.227 20.784C163.407 20.6042 163.508 20.3602 163.508 20.1058C163.508 19.7618 163.219 19.5292 163.216 19.5268C163.134 19.4683 163.073 19.3851 163.042 19.2895C163.012 19.1939 163.012 19.0909 163.044 18.9957ZM170.222 20.1058C170.216 19.9282 170.148 19.7583 170.029 19.6263H164.394C164.442 19.7816 164.466 19.9432 164.466 20.1058C164.467 20.4426 164.378 20.7736 164.209 21.065H169.263C169.517 21.065 169.761 20.9639 169.941 20.784C170.121 20.6042 170.222 20.3602 170.222 20.1058Z" fill="#382617"/>
<path d="M179.722 13.094V14.8305C180.368 13.6729 181.031 13.094 181.711 13.094C182.02 13.094 182.276 13.1896 182.478 13.3806C182.68 13.5661 182.782 13.7824 182.782 14.0297C182.782 14.2489 182.709 14.4343 182.562 14.5861C182.416 14.7378 182.242 14.8137 182.04 14.8137C181.843 14.8137 181.621 14.7182 181.374 14.5271C181.132 14.3304 180.952 14.232 180.834 14.232C180.733 14.232 180.624 14.2882 180.506 14.4006C180.253 14.631 179.991 15.0104 179.722 15.5386V19.2393C179.722 19.6664 179.775 19.9896 179.882 20.2087C179.955 20.3605 180.084 20.4869 180.27 20.5881C180.455 20.6892 180.722 20.7398 181.07 20.7398V21.0433H177.117V20.7398C177.51 20.7398 177.802 20.678 177.994 20.5543C178.134 20.4644 178.232 20.3211 178.289 20.1244C178.317 20.0289 178.331 19.7563 178.331 19.3067V16.3142C178.331 15.415 178.311 14.8811 178.272 14.7125C178.238 14.5383 178.171 14.4119 178.069 14.3332C177.974 14.2545 177.853 14.2152 177.707 14.2152C177.533 14.2152 177.336 14.2573 177.117 14.3416L177.033 14.0382L179.368 13.094H179.722ZM184.51 16.2299C184.504 17.3763 184.782 18.2755 185.344 18.9274C185.906 19.5793 186.567 19.9053 187.325 19.9053C187.831 19.9053 188.269 19.7676 188.64 19.4922C189.017 19.2112 189.332 18.7335 189.584 18.0591L189.846 18.2277C189.728 18.9977 189.385 19.7001 188.817 20.3352C188.25 20.9646 187.539 21.2793 186.685 21.2793C185.757 21.2793 184.962 20.9196 184.299 20.2003C183.641 19.4753 183.313 18.5031 183.313 17.2836C183.313 15.9629 183.65 14.9345 184.324 14.1983C185.004 13.4565 185.856 13.0856 186.878 13.0856C187.744 13.0856 188.455 13.3722 189.011 13.9454C189.568 14.513 189.846 15.2745 189.846 16.2299H184.51ZM184.51 15.741H188.084C188.056 15.2464 187.997 14.898 187.907 14.6957C187.766 14.381 187.556 14.1337 187.275 13.9539C186.999 13.774 186.71 13.6841 186.406 13.6841C185.94 13.6841 185.521 13.8667 185.15 14.232C184.785 14.5917 184.572 15.0947 184.51 15.741ZM195.873 13.094V15.7241H195.595C195.381 14.898 195.106 14.336 194.769 14.0382C194.437 13.7403 194.013 13.5914 193.496 13.5914C193.102 13.5914 192.785 13.6953 192.543 13.9033C192.302 14.1112 192.181 14.3416 192.181 14.5945C192.181 14.9092 192.271 15.179 192.451 15.4038C192.625 15.6342 192.979 15.8786 193.513 16.1372L194.743 16.7357C195.884 17.292 196.455 18.0254 196.455 18.9358C196.455 19.6383 196.188 20.2059 195.654 20.6386C195.126 21.0658 194.533 21.2793 193.875 21.2793C193.403 21.2793 192.864 21.195 192.257 21.0264C192.071 20.9702 191.919 20.9421 191.801 20.9421C191.672 20.9421 191.571 21.0152 191.498 21.1613H191.22V18.4048H191.498C191.655 19.1915 191.956 19.7844 192.4 20.1834C192.844 20.5824 193.341 20.782 193.892 20.782C194.28 20.782 194.595 20.6696 194.836 20.4448C195.083 20.2143 195.207 19.939 195.207 19.6186C195.207 19.2309 195.069 18.9049 194.794 18.6408C194.524 18.3767 193.982 18.0423 193.167 17.6377C192.352 17.233 191.818 16.8677 191.565 16.5418C191.313 16.2215 191.186 15.8168 191.186 15.3279C191.186 14.6929 191.402 14.1618 191.835 13.7347C192.274 13.3076 192.838 13.094 193.53 13.094C193.833 13.094 194.201 13.1586 194.634 13.2879C194.92 13.3722 195.112 13.4143 195.207 13.4143C195.297 13.4143 195.367 13.3947 195.418 13.3553C195.468 13.316 195.527 13.2289 195.595 13.094H195.873ZM204.379 13.3216V18.0001C204.379 18.8937 204.398 19.4416 204.438 19.6439C204.483 19.8406 204.55 19.9783 204.64 20.057C204.736 20.1357 204.845 20.175 204.969 20.175C205.143 20.175 205.34 20.1272 205.559 20.0317L205.677 20.3267L203.367 21.2793H202.988V19.6439C202.325 20.3633 201.819 20.8157 201.47 21.0011C201.122 21.1866 200.754 21.2793 200.366 21.2793C199.933 21.2793 199.557 21.1557 199.237 20.9084C198.922 20.6555 198.703 20.3324 198.579 19.939C198.455 19.5456 198.394 18.9892 198.394 18.2699V14.8221C198.394 14.4568 198.354 14.2039 198.276 14.0634C198.197 13.9229 198.079 13.8162 197.921 13.7431C197.77 13.6644 197.492 13.6279 197.087 13.6335V13.3216H199.793V18.4891C199.793 19.2084 199.917 19.6805 200.164 19.9053C200.417 20.1301 200.72 20.2424 201.074 20.2424C201.316 20.2424 201.588 20.1666 201.892 20.0148C202.201 19.8631 202.566 19.5737 202.988 19.1466V14.7715C202.988 14.3332 202.906 14.0382 202.743 13.8864C202.586 13.7291 202.254 13.6448 201.749 13.6335V13.3216H204.379ZM208.535 14.7378C209.097 14.1758 209.428 13.8527 209.529 13.7684C209.782 13.5548 210.055 13.3891 210.347 13.271C210.639 13.153 210.929 13.094 211.215 13.094C211.698 13.094 212.114 13.2345 212.463 13.5155C212.811 13.7965 213.044 14.2039 213.162 14.7378C213.741 14.0634 214.23 13.6223 214.629 13.4143C215.028 13.2008 215.438 13.094 215.86 13.094C216.27 13.094 216.633 13.2008 216.947 13.4143C217.268 13.6223 217.521 13.9651 217.706 14.4428C217.83 14.7687 217.892 15.2801 217.892 15.977V19.2983C217.892 19.7816 217.928 20.1132 218.001 20.293C218.057 20.4167 218.161 20.5234 218.313 20.6134C218.465 20.6977 218.712 20.7398 219.055 20.7398V21.0433H215.245V20.7398H215.405C215.736 20.7398 215.995 20.6752 216.18 20.5459C216.31 20.456 216.402 20.3127 216.458 20.116C216.481 20.0205 216.492 19.7479 216.492 19.2983V15.977C216.492 15.3476 216.416 14.9036 216.265 14.6451C216.045 14.2854 215.694 14.1056 215.211 14.1056C214.913 14.1056 214.612 14.1815 214.309 14.3332C214.011 14.4793 213.649 14.7547 213.221 15.1593L213.205 15.252L213.221 15.6145V19.2983C213.221 19.8266 213.25 20.1553 213.306 20.2846C213.368 20.4139 213.48 20.5234 213.643 20.6134C213.806 20.6977 214.084 20.7398 214.478 20.7398V21.0433H210.575V20.7398C211.002 20.7398 211.294 20.6892 211.451 20.5881C211.614 20.4869 211.727 20.3352 211.788 20.1329C211.817 20.0373 211.831 19.7591 211.831 19.2983V15.977C211.831 15.3476 211.738 14.8952 211.552 14.6198C211.305 14.2601 210.959 14.0803 210.516 14.0803C210.212 14.0803 209.911 14.1618 209.614 14.3248C209.147 14.572 208.787 14.8502 208.535 15.1593V19.2983C208.535 19.8041 208.568 20.1329 208.636 20.2846C208.709 20.4363 208.813 20.5515 208.948 20.6302C209.088 20.7033 209.369 20.7398 209.791 20.7398V21.0433H205.972V20.7398C206.326 20.7398 206.573 20.7033 206.714 20.6302C206.854 20.5515 206.961 20.4307 207.034 20.2677C207.107 20.0991 207.144 19.776 207.144 19.2983V16.3479C207.144 15.4993 207.118 14.9514 207.068 14.7041C207.028 14.5186 206.967 14.3922 206.882 14.3248C206.798 14.2517 206.683 14.2152 206.537 14.2152C206.379 14.2152 206.191 14.2573 205.972 14.3416L205.845 14.0382L208.172 13.094H208.535V14.7378ZM220.977 16.2299C220.971 17.3763 221.249 18.2755 221.811 18.9274C222.373 19.5793 223.034 19.9053 223.792 19.9053C224.298 19.9053 224.737 19.7676 225.107 19.4922C225.484 19.2112 225.799 18.7335 226.052 18.0591L226.313 18.2277C226.195 18.9977 225.852 19.7001 225.284 20.3352C224.717 20.9646 224.006 21.2793 223.152 21.2793C222.224 21.2793 221.429 20.9196 220.766 20.2003C220.109 19.4753 219.78 18.5031 219.78 17.2836C219.78 15.9629 220.117 14.9345 220.791 14.1983C221.471 13.4565 222.323 13.0856 223.346 13.0856C224.211 13.0856 224.922 13.3722 225.478 13.9454C226.035 14.513 226.313 15.2745 226.313 16.2299H220.977ZM220.977 15.741H224.551C224.523 15.2464 224.464 14.898 224.374 14.6957C224.234 14.381 224.023 14.1337 223.742 13.9539C223.466 13.774 223.177 13.6841 222.874 13.6841C222.407 13.6841 221.988 13.8667 221.618 14.232C221.252 14.5917 221.039 15.0947 220.977 15.741Z" fill="#382617"/>
<rect x="81.875" y="0.875" width="58.25" height="29.25" rx="14.625" stroke="#ECECEC" stroke-width="1.75"/>
<path d="M96.3169 17.7524C96.8275 18.1308 97.4491 18.353 98.1189 18.353C98.7886 18.353 99.4103 18.1308 99.9209 17.7524M96.6172 15.0494V14.7491M99.6205 15.0494V14.7491" stroke="#382617" stroke-width="1.12624" stroke-linecap="round" stroke-linejoin="round"/>
<path d="M103.525 15.9504C103.525 16.6604 103.385 17.3633 103.113 18.0192C102.842 18.6751 102.443 19.271 101.941 19.773C101.439 20.275 100.843 20.6732 100.188 20.9449C99.5317 21.2165 98.8287 21.3564 98.1188 21.3564C97.4089 21.3564 96.7059 21.2165 96.0501 20.9449C95.3942 20.6732 94.7982 20.275 94.2963 19.773C93.7943 19.271 93.3961 18.6751 93.1244 18.0192C92.8527 17.3633 92.7129 16.6604 92.7129 15.9504C92.7129 14.5167 93.2824 13.1417 94.2963 12.1279C95.3101 11.114 96.6851 10.5445 98.1188 10.5445C99.5526 10.5445 100.928 11.114 101.941 12.1279C102.955 13.1417 103.525 14.5167 103.525 15.9504Z" stroke="#382617" stroke-width="0.991089" stroke-linecap="round" stroke-linejoin="round"/>
<path d="M112.279 14.6797C112.841 14.1177 113.172 13.7946 113.273 13.7103C113.526 13.4967 113.799 13.3309 114.091 13.2129C114.383 13.0949 114.673 13.0359 114.959 13.0359C115.443 13.0359 115.859 13.1764 116.207 13.4574C116.555 13.7384 116.789 14.1458 116.907 14.6797C117.485 14.0053 117.974 13.5641 118.373 13.3562C118.772 13.1427 119.183 13.0359 119.604 13.0359C120.014 13.0359 120.377 13.1427 120.692 13.3562C121.012 13.5641 121.265 13.907 121.45 14.3846C121.574 14.7106 121.636 15.222 121.636 15.9189V19.2402C121.636 19.7235 121.672 20.0551 121.745 20.2349C121.802 20.3585 121.905 20.4653 122.057 20.5552C122.209 20.6395 122.456 20.6817 122.799 20.6817V20.9851H118.989V20.6817H119.149C119.481 20.6817 119.739 20.617 119.924 20.4878C120.054 20.3979 120.146 20.2546 120.203 20.0579C120.225 19.9623 120.236 19.6898 120.236 19.2402V15.9189C120.236 15.2894 120.161 14.8455 120.009 14.587C119.79 14.2273 119.438 14.0475 118.955 14.0475C118.657 14.0475 118.357 14.1233 118.053 14.2751C117.755 14.4212 117.393 14.6965 116.966 15.1012L116.949 15.1939L116.966 15.5564V19.2402C116.966 19.7684 116.994 20.0972 117.05 20.2265C117.112 20.3557 117.224 20.4653 117.387 20.5552C117.55 20.6395 117.828 20.6817 118.222 20.6817V20.9851H114.319V20.6817C114.746 20.6817 115.038 20.6311 115.195 20.5299C115.358 20.4288 115.471 20.277 115.533 20.0747C115.561 19.9792 115.575 19.701 115.575 19.2402V15.9189C115.575 15.2894 115.482 14.837 115.297 14.5617C115.049 14.202 114.704 14.0222 114.26 14.0222C113.956 14.0222 113.656 14.1037 113.358 14.2666C112.891 14.5139 112.532 14.7921 112.279 15.1012V19.2402C112.279 19.746 112.312 20.0747 112.38 20.2265C112.453 20.3782 112.557 20.4934 112.692 20.5721C112.832 20.6451 113.113 20.6817 113.535 20.6817V20.9851H109.716V20.6817C110.07 20.6817 110.317 20.6451 110.458 20.5721C110.598 20.4934 110.705 20.3726 110.778 20.2096C110.851 20.041 110.888 19.7179 110.888 19.2402V16.2898C110.888 15.4412 110.863 14.8932 110.812 14.646C110.773 14.4605 110.711 14.3341 110.626 14.2666C110.542 14.1936 110.427 14.157 110.281 14.157C110.123 14.157 109.935 14.1992 109.716 14.2835L109.59 13.98L111.916 13.0359H112.279V14.6797ZM124.721 16.1717C124.715 17.3182 124.994 18.2174 125.556 18.8693C126.118 19.5212 126.778 19.8471 127.537 19.8471C128.042 19.8471 128.481 19.7094 128.852 19.4341C129.228 19.1531 129.543 18.6754 129.796 18.001L130.057 18.1696C129.939 18.9395 129.596 19.642 129.029 20.277C128.461 20.9065 127.75 21.2212 126.896 21.2212C125.969 21.2212 125.173 20.8615 124.51 20.1422C123.853 19.4172 123.524 18.445 123.524 17.2255C123.524 15.9048 123.861 14.8764 124.536 14.1402C125.216 13.3984 126.067 13.0275 127.09 13.0275C127.955 13.0275 128.666 13.3141 129.223 13.8873C129.779 14.4549 130.057 15.2164 130.057 16.1717H124.721ZM124.721 15.6828H128.295C128.267 15.1883 128.208 14.8398 128.118 14.6375C127.978 14.3228 127.767 14.0756 127.486 13.8957C127.211 13.7159 126.921 13.626 126.618 13.626C126.151 13.626 125.733 13.8086 125.362 14.1739C124.996 14.5336 124.783 15.0365 124.721 15.6828Z" fill="#382617"/>
</svg>
