<svg width="684" height="659" viewBox="0 0 684 659" fill="none" xmlns="http://www.w3.org/2000/svg">
<path d="M304.525 282.995C304.525 282.888 304.525 282.781 306.13 246.705C307.736 210.63 310.947 138.588 313.684 95.7395C316.421 52.8908 318.586 41.4183 320.326 31.6748C323.431 14.2814 325.497 3.58091 327.699 1.18834C328.578 0.232795 330.685 5.23308 337.237 32.1337C343.79 59.0342 355.162 109.072 361.361 135.674C369.521 170.688 374 184.548 376.728 189.874C378.092 192.538 388.489 179.51 413.705 153.265C431.258 134.996 462.235 109.79 486.679 90.4091C511.122 71.0282 529.056 59.0326 540.755 51.5701C565.064 36.0639 574.857 34.0343 576.558 34.0705C577.135 34.0828 575.837 35.9215 558.504 58.433C541.172 80.9444 507.513 124.543 487.764 150.92C455.108 194.534 453.733 202.05 453.275 204.841C453.055 206.18 454.846 207.328 466.762 208.155C478.677 208.983 501.17 209.445 534.996 216.924C568.821 224.403 613.298 238.884 637.025 246.564C660.751 254.244 662.38 254.683 662.692 255.869C663.004 257.054 661.948 258.972 636.468 267.797C610.988 276.622 561.115 292.295 533.881 300.975C503.481 310.664 499.172 313.012 497.659 315.249C495.863 317.905 501.821 324.725 532.516 353.225C559.165 377.968 611.865 420.323 640.366 443.809C672.222 470.06 677.787 473.213 677.903 474.546C678.377 479.992 663.358 475.007 619.402 460.634C579.322 446.532 503.153 418.607 459.559 402.033C415.964 385.459 407.251 381.082 397.434 374.755" stroke="#717B08" stroke-width="2.16061" stroke-linecap="round"/>
<path d="M398.373 380.275C400.976 383.03 409.643 391.219 418.177 399.604C426.006 407.298 434.598 413.659 449.214 426.2C460.93 436.253 482.244 452.95 494.519 463.214C510.03 476.184 515.344 481.846 530.964 494.71C543.9 505.364 566.372 525.018 582.087 539.427C606.638 561.938 615.284 572.737 615.501 574.294C615.612 575.094 612.099 574.203 585.037 560.435C557.975 546.667 506.543 519.611 477.998 504.281C433.085 480.162 420.084 466.331 418.039 465.892C415.421 465.331 416.721 472.18 413.791 497.37C411.113 520.392 405.001 564.098 401.597 587.784C397.171 618.588 394.878 627.126 388.263 645.703C387.057 649.088 384.568 648.038 382.616 645.831C377.851 640.444 372.714 625.986 365.266 602.566C356.185 574.009 353.637 555.082 352.761 549.599C350.065 532.742 347.998 518.168 346.628 505.977C344.238 484.705 340.711 463.757 339.04 459.037C338.754 458.228 336.516 460.648 325.363 469.644C314.21 478.639 293.541 495.021 270.672 515.837C247.803 536.652 223.362 561.405 210.025 574.661C192.798 591.781 186.271 595.296 181.194 597.277C173.125 600.425 184.731 571.472 206.928 539.947C223.081 517.006 251.322 481.242 266.052 461.951C280.782 442.66 281.699 441.252 281.374 440.277C281.048 439.302 279.453 438.802 277.854 438.412C276.256 438.023 274.703 437.76 272.68 437.488" stroke="#717B08" stroke-width="2.16061" stroke-linecap="round"/>
<path d="M303.449 282.703C302.708 282.703 299.124 282.703 288.857 281.724C281.747 281.047 270.956 278.789 228.085 267.484C185.214 256.179 110.634 235.585 70.2315 224.252C29.8288 212.918 25.8626 211.469 21.6929 209.718C7.13473 203.606 2.97093 200.003 1.23134 198.528C-0.157896 197.35 7.3732 199.19 49.6926 222.749C89.6024 244.968 166.674 288.409 208.102 311.943C249.53 335.477 252.911 337.885 255.266 339.674C258.94 342.464 261.164 344.534 262.042 346.072C262.402 346.703 260.436 347.277 250.642 353.28C240.848 359.283 222.734 370.76 196.277 385.594C169.82 400.428 135.569 418.27 115.121 429.37C80.8985 447.948 77.6514 452.556 76.3105 454.184C72.636 458.645 90.954 454.33 114.185 451.672C130.009 449.861 147.967 447.536 171.999 444.225C192.183 441.445 206.597 437.275 216.928 435.248C232.678 432.159 258.961 434.957 263.791 435.738C266.224 436.115 268.665 436.49 271.071 436.858C272.285 437.042 273.487 437.22 275.022 437.403" stroke="#717B08" stroke-width="2.16061" stroke-linecap="round"/>
<path d="M309.531 293.007C309.531 292.9 309.531 292.794 311.137 256.718C312.742 220.642 315.953 148.6 318.69 105.752C321.427 62.9032 323.593 51.4306 325.332 41.6871C328.437 24.2938 330.503 13.5933 332.705 11.2007C333.584 10.2451 335.691 15.2454 342.243 42.146C348.796 69.0466 360.168 119.084 366.368 145.686C374.527 180.7 379.007 194.56 381.734 199.886C383.098 202.55 393.495 189.522 418.711 163.277C436.264 145.009 467.242 119.802 491.685 100.421C516.128 81.0406 534.062 69.0449 545.761 61.5825C570.07 46.0763 579.864 44.0467 581.564 44.0828C582.141 44.0951 580.843 45.9338 563.51 68.4453C546.178 90.9568 512.519 134.555 492.77 160.932C460.114 204.547 458.739 212.062 458.281 214.853C458.061 216.192 459.853 217.341 471.768 218.168C483.684 218.995 506.176 219.457 540.002 226.936C573.827 234.415 618.304 248.897 642.031 256.576C665.757 264.256 667.387 264.696 667.698 265.881C668.01 267.066 666.954 268.985 641.474 277.809C615.994 286.634 566.122 302.307 538.887 310.987C508.487 320.676 504.178 323.024 502.665 325.262C500.869 327.918 506.827 334.737 537.522 363.237C564.171 387.98 616.871 430.336 645.373 453.822C677.228 480.072 682.793 483.225 682.909 484.559C683.384 490.004 668.364 485.019 624.408 470.647C584.328 456.545 508.16 428.619 464.565 412.045C420.97 395.471 412.257 391.094 402.44 384.768" stroke="#D9D9D9" stroke-width="2.16061" stroke-linecap="round"/>
<path d="M403.379 390.288C405.982 393.042 414.649 401.231 423.183 409.617C431.013 417.31 439.604 423.671 454.22 436.212C465.936 446.265 487.25 462.962 499.525 473.226C515.036 486.196 520.351 491.858 535.97 504.722C548.907 515.376 571.378 535.03 587.093 549.439C611.645 571.95 620.29 582.749 620.507 584.306C620.618 585.106 617.105 584.216 590.043 570.448C562.981 556.679 511.55 529.623 483.004 514.294C438.091 490.174 425.091 476.343 423.045 475.905C420.427 475.343 421.727 482.192 418.797 507.383C416.119 530.404 410.007 574.11 406.603 597.796C402.177 628.6 399.884 637.139 393.269 655.715C392.063 659.1 389.574 658.05 387.622 655.843C382.857 650.457 377.72 635.999 370.272 612.578C361.191 584.021 358.644 565.094 357.767 559.611C355.072 542.754 353.004 528.181 351.634 515.99C349.245 494.717 345.717 473.769 344.047 469.049C343.761 468.241 341.522 470.66 330.369 479.656C319.216 488.652 298.547 505.033 275.678 525.849C252.809 546.665 228.368 571.418 215.031 584.673C197.805 601.794 191.277 605.309 186.2 607.289C178.131 610.437 189.737 581.485 211.934 549.96C228.088 527.018 256.328 491.254 271.058 471.963C285.789 452.672 286.706 451.265 286.38 450.289C286.055 449.314 284.459 448.814 282.86 448.425C281.262 448.035 279.709 447.772 277.686 447.501" stroke="#D9D9D9" stroke-width="2.16061" stroke-linecap="round"/>
<path d="M308.455 292.715C307.714 292.715 304.131 292.715 293.863 291.737C286.753 291.059 275.962 288.801 233.091 277.496C190.22 266.191 115.64 245.598 75.2377 234.264C34.8349 222.931 30.8688 221.481 26.6991 219.73C12.1409 213.618 7.9771 210.015 6.23751 208.54C4.84827 207.363 12.3794 209.202 54.6988 232.762C94.6085 254.98 171.68 298.421 213.108 321.955C254.536 345.489 257.917 347.898 260.273 349.686C263.946 352.476 266.171 354.546 267.048 356.084C267.408 356.715 265.442 357.29 255.648 363.292C245.854 369.295 227.74 380.773 201.283 395.606C174.827 410.44 140.575 428.282 120.127 439.383C85.9047 457.961 82.6576 462.569 81.3166 464.196C77.6422 468.657 95.9602 464.342 119.191 461.684C135.015 459.873 152.973 457.548 177.005 454.237C197.189 451.457 211.603 447.287 221.934 445.26C237.684 442.171 263.967 444.97 268.797 445.751C271.23 446.128 273.671 446.502 276.077 446.871C277.291 447.054 278.494 447.232 280.028 447.415" stroke="#D9D9D9" stroke-width="2.16061" stroke-linecap="round"/>
</svg>
