<svg xmlns="http://www.w3.org/2000/svg" viewBox="38 236 1251 253" fill="none"><path fill-rule="evenodd" clip-rule="evenodd" d="M186.689 236C285.414 240.162 292.618 267.895 292.618 289.405C292.618 307.188 282.871 338.648 218.468 335.915H173.241V487.686L38 489V236H186.689ZM173.241 322.027H181.158C196 322.027 209.56 320.866 209.56 300.348C209.56 279.83 200.237 275.727 178.547 275.25H173.241V322.027Z" fill="#717B08"/><path d="M1205.1 387.972H1289V487.686H1144.87V236H1205.1V387.972Z" fill="#717B08"/><path d="M1067.53 436.532H1139.69V487.687H941.461V236L1067.53 236.001V436.532Z" fill="#717B08"/><path d="M721.105 487.686H616.012V260.621H721.105V487.686Z" fill="#717B08"/><path d="M721.105 249.679H616.012V236H721.105V249.679Z" fill="#717B08"/><path d="M827.153 240.155C883.648 264.2 879.445 301.604 879.445 326.717H822.483C822.483 315.224 821.358 308.954 819.478 305.803C814.284 297.103 802.874 295.192 795.403 298.932C780.929 314.428 783.731 338.619 783.731 368.746C783.731 398.873 783.731 413.28 787.466 423.432C791.413 429.911 795.055 430.162 796.804 430.913C797.738 431.314 810.811 433.05 815.48 429.844C824.72 423.5 823.417 406.429 823.417 406.429H798.558V358.281H881.313V365.416C880.3 430.913 865.414 455.187 855.166 471.522C846.274 485.699 816.414 487.553 800.539 487.553C786.065 487.553 765.365 491.08 742.643 461.904C728.031 439.037 725.368 403.092 725.368 360.915C725.368 317.152 726.755 281.579 744.044 260.994C775.793 233.208 809.27 232.544 827.153 240.155Z" fill="#717B08"/><path d="M936.376 487.686H884.581V282.507H936.376V487.686Z" fill="#717B08"/><path d="M936.346 271.564H884.647V236H936.346V271.564Z" fill="#717B08"/><path fill-rule="evenodd" clip-rule="evenodd" d="M305.81 264.354C300.309 280.126 297.347 298.107 297.347 314.804C297.347 448.02 307.196 381.249 360.409 381.249H416.472V487.687H436.76C436.76 487.687 436.76 370.892 436.76 314.845C436.76 258.797 418.115 236.014 371.903 236C335.895 235.99 313.022 243.676 305.81 264.354ZM415.546 361.954H369.67C369.67 346.203 369.61 359.915 369.67 347.315C369.806 318.869 384.799 310.69 390.994 310.69C397.189 310.69 415.546 314.765 415.546 347.315C415.546 359.883 415.546 349.386 415.546 361.954Z" fill="#717B08"/><path d="M297.526 390.297V334.243L368.922 334.243V419.932V452.948V487.579H297.526V429.362V390.297Z" fill="#717B08"/><path fill-rule="evenodd" clip-rule="evenodd" d="M531.622 236C592.266 236 610.676 237.324 610.676 299.152C610.676 321.46 604.989 360.973 555.378 357.919H512.112H468.846V487.686H440.574V236H531.622ZM468.846 327.031H523.246C539.675 328.273 550.702 322.823 550.702 303.748C550.702 275.135 524.609 278.671 521.294 277.533H468.846V327.031Z" fill="#717B08"/><path d="M583.351 371.762C561.517 364.908 481.632 365.098 462.61 366.05V397.465H536.209C549.855 397.465 549.442 426.684 549.855 429.921V487.686H609.421C609.421 455.51 609.402 422.171 609.402 421.714C609.402 418.281 610.643 380.33 583.351 371.762Z" fill="#717B08"/></svg>