<svg width="1315" height="83" viewBox="0 0 1315 83" fill="none" xmlns="http://www.w3.org/2000/svg">
<path fill-rule="evenodd" clip-rule="evenodd" d="M156.296 0.000244141C260.071 1.35571 267.643 10.3869 267.643 17.3916C267.643 23.1824 257.398 33.4275 189.701 32.5376H142.16V81.9615L0 82.3893V0.000244141H156.296ZM142.16 28.0148H150.482C166.083 28.0148 180.337 27.6368 180.337 20.9551C180.337 14.2735 170.537 12.9372 147.737 12.7819H142.16V28.0148Z" fill="#717B08"/>
<path d="M1226.81 49.4894H1315V81.9613H1163.49V0H1226.81V49.4894Z" fill="#717B08"/>
<path d="M1082.2 65.303H1158.05V81.9615H949.682V0L1082.2 0.000198491V65.303Z" fill="#717B08"/>
<path d="M718.052 81.9611H607.583V8.01782H718.052V81.9611Z" fill="#717B08"/>
<path d="M718.052 4.45442H607.583V0H718.052V4.45442Z" fill="#717B08"/>
<path d="M829.525 1.35306C888.91 9.18331 884.493 21.3637 884.493 29.5419H824.617C824.617 25.799 823.434 23.7573 821.457 22.7312C815.998 19.898 804.004 19.2757 796.151 20.4936C780.937 25.5399 783.881 33.4178 783.881 43.2286C783.881 53.0393 783.881 57.7309 787.808 61.037C791.956 63.1468 795.785 63.2287 797.623 63.4731C798.605 63.6036 812.347 64.1691 817.255 63.1251C826.967 61.059 825.598 55.5001 825.598 55.5001H799.468V39.8205H886.456V42.1441C885.391 63.4731 869.743 71.3779 858.972 76.6975C849.624 81.314 818.236 81.9177 801.55 81.9177C786.335 81.9177 764.577 83.0664 740.692 73.5654C725.332 66.1188 722.533 54.4133 722.533 40.6783C722.533 26.4269 723.991 14.8426 742.165 8.1392C775.538 -0.909108 810.727 -1.12555 829.525 1.35306Z" fill="#717B08"/>
<path d="M944.336 81.9615H889.892V15.1453H944.336V81.9615Z" fill="#717B08"/>
<path d="M944.305 11.5815H889.961V0H944.305V11.5815Z" fill="#717B08"/>
<path fill-rule="evenodd" clip-rule="evenodd" d="M281.511 9.23344C275.728 14.3695 272.615 20.225 272.615 25.6626C272.615 69.044 282.968 47.3001 338.903 47.3001H397.834V81.9615H419.161C419.161 81.9615 419.161 43.9276 419.161 25.6758C419.161 7.424 399.561 0.00458122 350.985 0.000247552C313.135 -0.00312921 289.092 2.49963 281.511 9.23344ZM396.861 41.017H348.638C348.638 35.8874 348.575 40.3529 348.638 36.2497C348.781 26.9862 364.541 24.3228 371.053 24.3228C377.565 24.3228 396.861 25.6499 396.861 36.2497C396.861 40.3425 396.861 36.9242 396.861 41.017Z" fill="#717B08"/>
<path d="M272.803 50.2464V31.9927L347.852 31.9927V59.8973V70.6487V81.9264H272.803V62.968V50.2464Z" fill="#717B08"/>
<path fill-rule="evenodd" clip-rule="evenodd" d="M518.875 0C582.621 -1.28253e-07 601.973 0.431187 601.973 20.5654C601.973 27.83 595.996 40.6973 543.846 39.7029H498.367H452.888V81.9613H423.169V0H518.875ZM452.888 29.6441H510.071C527.34 30.0485 538.931 28.2737 538.931 22.0619C538.931 12.7442 511.503 13.8957 508.019 13.5251H452.888V29.6441Z" fill="#717B08"/>
<path d="M573.25 44.2107C550.299 41.9786 466.328 42.0406 446.333 42.3506V52.5808H523.697C538.041 52.5808 537.607 62.096 538.041 63.15V81.9612H600.654C600.654 71.483 600.635 60.6262 600.635 60.4774C600.635 59.3595 601.939 47.0007 573.25 44.2107Z" fill="#717B08"/>
</svg>
